<?xml version="1.0" encoding="utf-8" standalone="no"?>
<!DOCTYPE svg PUBLIC "-//W3C//DTD SVG 1.1//EN"
  "http://www.w3.org/Graphics/SVG/1.1/DTD/svg11.dtd">
<svg xmlns:xlink="http://www.w3.org/1999/xlink" width="460.8pt" height="345.6pt" viewBox="0 0 460.8 345.6" xmlns="http://www.w3.org/2000/svg" version="1.1">
 <metadata>
  <rdf:RDF xmlns:dc="http://purl.org/dc/elements/1.1/" xmlns:cc="http://creativecommons.org/ns#" xmlns:rdf="http://www.w3.org/1999/02/22-rdf-syntax-ns#">
   <cc:Work>
    <dc:type rdf:resource="http://purl.org/dc/dcmitype/StillImage"/>
    <dc:date>2025-12-02T17:01:13.250319</dc:date>
    <dc:format>image/svg+xml</dc:format>
    <dc:creator>
     <cc:Agent>
      <dc:title>Matplotlib v3.10.7, https://matplotlib.org/</dc:title>
     </cc:Agent>
    </dc:creator>
   </cc:Work>
  </rdf:RDF>
 </metadata>
 <defs>
  <style type="text/css">*{stroke-linejoin: round; stroke-linecap: butt}</style>
 </defs>
 <g id="figure_1">
  <g id="patch_1">
   <path d="M 0 345.6 
L 460.8 345.6 
L 460.8 0 
L 0 0 
z
" style="fill: #ffffff"/>
  </g>
  <g id="axes_1">
   <g id="patch_2">
    <path d="M 57.6 307.584 
L 414.72 307.584 
L 414.72 41.472 
L 57.6 41.472 
z
" style="fill: #ffffff"/>
   </g>
   <g id="PathCollection_1">
    <defs>
     <path id="mf642309115" d="M 0 3 
C 0.795609 3 1.55874 2.683901 2.12132 2.12132 
C 2.683901 1.55874 3 0.795609 3 0 
C 3 -0.795609 2.683901 -1.55874 2.12132 -2.12132 
C 1.55874 -2.683901 0.795609 -3 0 -3 
C -0.795609 -3 -1.55874 -2.683901 -2.12132 -2.12132 
C -2.683901 -1.55874 -3 -0.795609 -3 0 
C -3 0.795609 -2.683901 1.55874 -2.12132 2.12132 
C -1.55874 2.683901 -0.795609 3 0 3 
z
" style="stroke: #ffffff"/>
    </defs>
    <g clip-path="url(#pb83415c915)">
     <use xlink:href="#mf642309115" x="79.336118" y="252.239305" style="fill: #ffffff; stroke: #ffffff"/>
     <use xlink:href="#mf642309115" x="101.447141" y="294.446423" style="fill: #ffffff; stroke: #ffffff"/>
     <use xlink:href="#mf642309115" x="121.940286" y="53.568" style="fill: #ffffff; stroke: #ffffff"/>
     <use xlink:href="#mf642309115" x="178.835725" y="195.136635" style="fill: #ffffff; stroke: #ffffff"/>
     <use xlink:href="#mf642309115" x="217.125547" y="295.488" style="fill: #ffffff; stroke: #ffffff"/>
     <use xlink:href="#mf642309115" x="250.292083" y="145.478326" style="fill: #ffffff; stroke: #ffffff"/>
     <use xlink:href="#mf642309115" x="274.560279" y="221.803306" style="fill: #ffffff; stroke: #ffffff"/>
     <use xlink:href="#mf642309115" x="304.221409" y="166.955663" style="fill: #ffffff; stroke: #ffffff"/>
     <use xlink:href="#mf642309115" x="358.690029" y="272.575329" style="fill: #ffffff; stroke: #ffffff"/>
     <use xlink:href="#mf642309115" x="373.79024" y="144.79453" style="fill: #ffffff; stroke: #ffffff"/>
    </g>
   </g>
   <g id="matplotlib.axis_1">
    <g id="xtick_1">
     <g id="line2d_1">
      <defs>
       <path id="m0a2aff3423" d="M 0 0 
L 0 3.5 
" style="stroke: #000000; stroke-width: 0.8"/>
      </defs>
      <g>
       <use xlink:href="#m0a2aff3423" x="74.482478" y="307.584" style="stroke: #000000; stroke-width: 0.8"/>
      </g>
     </g>
    </g>
    <g id="xtick_2">
     <g id="line2d_2">
      <g>
       <use xlink:href="#m0a2aff3423" x="128.411805" y="307.584" style="stroke: #000000; stroke-width: 0.8"/>
      </g>
     </g>
    </g>
    <g id="xtick_3">
     <g id="line2d_3">
      <g>
       <use xlink:href="#m0a2aff3423" x="182.341131" y="307.584" style="stroke: #000000; stroke-width: 0.8"/>
      </g>
     </g>
    </g>
    <g id="xtick_4">
     <g id="line2d_4">
      <g>
       <use xlink:href="#m0a2aff3423" x="236.270458" y="307.584" style="stroke: #000000; stroke-width: 0.8"/>
      </g>
     </g>
    </g>
    <g id="xtick_5">
     <g id="line2d_5">
      <g>
       <use xlink:href="#m0a2aff3423" x="290.199784" y="307.584" style="stroke: #000000; stroke-width: 0.8"/>
      </g>
     </g>
    </g>
    <g id="xtick_6">
     <g id="line2d_6">
      <g>
       <use xlink:href="#m0a2aff3423" x="344.129111" y="307.584" style="stroke: #000000; stroke-width: 0.8"/>
      </g>
     </g>
    </g>
    <g id="xtick_7">
     <g id="line2d_7">
      <g>
       <use xlink:href="#m0a2aff3423" x="398.058437" y="307.584" style="stroke: #000000; stroke-width: 0.8"/>
      </g>
     </g>
    </g>
   </g>
   <g id="matplotlib.axis_2">
    <g id="ytick_1">
     <g id="line2d_8">
      <defs>
       <path id="m28a23fa180" d="M 0 0 
L -3.5 0 
" style="stroke: #000000; stroke-width: 0.8"/>
      </defs>
      <g>
       <use xlink:href="#m28a23fa180" x="57.6" y="301.786414" style="stroke: #000000; stroke-width: 0.8"/>
      </g>
     </g>
     <g id="text_1">
      <!-- −1.5 -->
      <g transform="translate(26.317187 305.585633) scale(0.1 -0.1)">
       <defs>
        <path id="DejaVuSans-2212" d="M 678 2272 
L 4684 2272 
L 4684 1741 
L 678 1741 
L 678 2272 
z
" transform="scale(0.015625)"/>
        <path id="DejaVuSans-31" d="M 794 531 
L 1825 531 
L 1825 4091 
L 703 3866 
L 703 4441 
L 1819 4666 
L 2450 4666 
L 2450 531 
L 3481 531 
L 3481 0 
L 794 0 
L 794 531 
z
" transform="scale(0.015625)"/>
        <path id="DejaVuSans-2e" d="M 684 794 
L 1344 794 
L 1344 0 
L 684 0 
L 684 794 
z
" transform="scale(0.015625)"/>
        <path id="DejaVuSans-35" d="M 691 4666 
L 3169 4666 
L 3169 4134 
L 1269 4134 
L 1269 2991 
Q 1406 3038 1543 3061 
Q 1681 3084 1819 3084 
Q 2600 3084 3056 2656 
Q 3513 2228 3513 1497 
Q 3513 744 3044 326 
Q 2575 -91 1722 -91 
Q 1428 -91 1123 -41 
Q 819 9 494 109 
L 494 744 
Q 775 591 1075 516 
Q 1375 441 1709 441 
Q 2250 441 2565 725 
Q 2881 1009 2881 1497 
Q 2881 1984 2565 2268 
Q 2250 2553 1709 2553 
Q 1456 2553 1204 2497 
Q 953 2441 691 2322 
L 691 4666 
z
" transform="scale(0.015625)"/>
       </defs>
       <use xlink:href="#DejaVuSans-2212"/>
       <use xlink:href="#DejaVuSans-31" transform="translate(83.789062 0)"/>
       <use xlink:href="#DejaVuSans-2e" transform="translate(147.412109 0)"/>
       <use xlink:href="#DejaVuSans-35" transform="translate(179.199219 0)"/>
      </g>
     </g>
    </g>
    <g id="ytick_2">
     <g id="line2d_9">
      <g>
       <use xlink:href="#m28a23fa180" x="57.6" y="259.937491" style="stroke: #000000; stroke-width: 0.8"/>
      </g>
     </g>
     <g id="text_2">
      <!-- −1.0 -->
      <g transform="translate(26.317187 263.73671) scale(0.1 -0.1)">
       <defs>
        <path id="DejaVuSans-30" d="M 2034 4250 
Q 1547 4250 1301 3770 
Q 1056 3291 1056 2328 
Q 1056 1369 1301 889 
Q 1547 409 2034 409 
Q 2525 409 2770 889 
Q 3016 1369 3016 2328 
Q 3016 3291 2770 3770 
Q 2525 4250 2034 4250 
z
M 2034 4750 
Q 2819 4750 3233 4129 
Q 3647 3509 3647 2328 
Q 3647 1150 3233 529 
Q 2819 -91 2034 -91 
Q 1250 -91 836 529 
Q 422 1150 422 2328 
Q 422 3509 836 4129 
Q 1250 4750 2034 4750 
z
" transform="scale(0.015625)"/>
       </defs>
       <use xlink:href="#DejaVuSans-2212"/>
       <use xlink:href="#DejaVuSans-31" transform="translate(83.789062 0)"/>
       <use xlink:href="#DejaVuSans-2e" transform="translate(147.412109 0)"/>
       <use xlink:href="#DejaVuSans-30" transform="translate(179.199219 0)"/>
      </g>
     </g>
    </g>
    <g id="ytick_3">
     <g id="line2d_10">
      <g>
       <use xlink:href="#m28a23fa180" x="57.6" y="218.088568" style="stroke: #000000; stroke-width: 0.8"/>
      </g>
     </g>
     <g id="text_3">
      <!-- −0.5 -->
      <g transform="translate(26.317187 221.887787) scale(0.1 -0.1)">
       <use xlink:href="#DejaVuSans-2212"/>
       <use xlink:href="#DejaVuSans-30" transform="translate(83.789062 0)"/>
       <use xlink:href="#DejaVuSans-2e" transform="translate(147.412109 0)"/>
       <use xlink:href="#DejaVuSans-35" transform="translate(179.199219 0)"/>
      </g>
     </g>
    </g>
    <g id="ytick_4">
     <g id="line2d_11">
      <g>
       <use xlink:href="#m28a23fa180" x="57.6" y="176.239645" style="stroke: #000000; stroke-width: 0.8"/>
      </g>
     </g>
     <g id="text_4">
      <!-- 0.0 -->
      <g transform="translate(34.696875 180.038864) scale(0.1 -0.1)">
       <use xlink:href="#DejaVuSans-30"/>
       <use xlink:href="#DejaVuSans-2e" transform="translate(63.623047 0)"/>
       <use xlink:href="#DejaVuSans-30" transform="translate(95.410156 0)"/>
      </g>
     </g>
    </g>
    <g id="ytick_5">
     <g id="line2d_12">
      <g>
       <use xlink:href="#m28a23fa180" x="57.6" y="134.390722" style="stroke: #000000; stroke-width: 0.8"/>
      </g>
     </g>
     <g id="text_5">
      <!-- 0.5 -->
      <g transform="translate(34.696875 138.189941) scale(0.1 -0.1)">
       <use xlink:href="#DejaVuSans-30"/>
       <use xlink:href="#DejaVuSans-2e" transform="translate(63.623047 0)"/>
       <use xlink:href="#DejaVuSans-35" transform="translate(95.410156 0)"/>
      </g>
     </g>
    </g>
    <g id="ytick_6">
     <g id="line2d_13">
      <g>
       <use xlink:href="#m28a23fa180" x="57.6" y="92.541799" style="stroke: #000000; stroke-width: 0.8"/>
      </g>
     </g>
     <g id="text_6">
      <!-- 1.0 -->
      <g transform="translate(34.696875 96.341018) scale(0.1 -0.1)">
       <use xlink:href="#DejaVuSans-31"/>
       <use xlink:href="#DejaVuSans-2e" transform="translate(63.623047 0)"/>
       <use xlink:href="#DejaVuSans-30" transform="translate(95.410156 0)"/>
      </g>
     </g>
    </g>
    <g id="ytick_7">
     <g id="line2d_14">
      <g>
       <use xlink:href="#m28a23fa180" x="57.6" y="50.692876" style="stroke: #000000; stroke-width: 0.8"/>
      </g>
     </g>
     <g id="text_7">
      <!-- 1.5 -->
      <g transform="translate(34.696875 54.492095) scale(0.1 -0.1)">
       <use xlink:href="#DejaVuSans-31"/>
       <use xlink:href="#DejaVuSans-2e" transform="translate(63.623047 0)"/>
       <use xlink:href="#DejaVuSans-35" transform="translate(95.410156 0)"/>
      </g>
     </g>
    </g>
   </g>
   <g id="line2d_15">
    <path d="M 73.832727 176.239645 
L 79.495307 176.132622 
L 85.157886 175.806126 
L 91.899052 175.178067 
L 105.65103 173.81106 
L 110.235023 173.634775 
L 114.010076 173.70437 
L 117.515482 173.983223 
L 121.020888 174.494542 
L 124.256648 175.185163 
L 127.762054 176.170873 
L 131.26746 177.389346 
L 135.312159 179.042799 
L 140.435445 181.398221 
L 149.064138 185.399777 
L 152.569544 186.763796 
L 155.535657 187.67778 
L 157.962477 188.210985 
L 160.389296 188.51155 
L 162.546469 188.554925 
L 164.703642 188.363511 
L 166.591169 187.986717 
L 168.478695 187.401228 
L 170.366222 186.596002 
L 172.253748 185.561845 
L 174.141275 184.291607 
L 176.028801 182.780349 
L 178.185974 180.754877 
L 180.343147 178.411454 
L 182.50032 175.754633 
L 184.92714 172.402587 
L 187.35396 168.685371 
L 190.050426 164.160053 
L 193.016539 158.757176 
L 196.521945 151.901542 
L 201.105938 142.411034 
L 211.35251 120.997395 
L 214.857916 114.278239 
L 217.824029 109.076563 
L 220.250849 105.232016 
L 222.677668 101.816698 
L 224.834841 99.18102 
L 226.722368 97.208728 
L 228.609894 95.566434 
L 230.227774 94.43252 
L 231.845654 93.559209 
L 233.463534 92.952224 
L 235.081413 92.615548 
L 236.429647 92.543121 
L 237.77788 92.660308 
L 239.126113 92.966574 
L 240.743993 93.581648 
L 242.361873 94.4629 
L 243.979752 95.604557 
L 245.597632 96.999157 
L 247.485159 98.933672 
L 249.372685 101.182959 
L 251.529858 104.113557 
L 253.956678 107.829283 
L 256.653144 112.415416 
L 259.619257 117.92397 
L 263.124663 124.908673 
L 268.517596 136.223195 
L 275.798055 151.455542 
L 279.573108 158.849163 
L 282.808867 164.714637 
L 285.77498 169.618245 
L 288.471447 173.630148 
L 290.898266 176.848012 
L 293.325086 179.675592 
L 295.482259 181.853142 
L 297.639432 183.71213 
L 299.796605 185.254659 
L 301.684132 186.349571 
L 303.571658 187.213491 
L 305.459185 187.855098 
L 307.346711 188.284974 
L 309.503884 188.532817 
L 311.661057 188.540865 
L 313.81823 188.331857 
L 316.24505 187.867632 
L 318.941516 187.110041 
L 321.907629 186.041889 
L 325.682682 184.43101 
L 332.423848 181.246849 
L 338.086427 178.673189 
L 342.131127 177.071111 
L 345.636533 175.907363 
L 349.141939 174.981414 
L 352.377699 174.346985 
L 355.883105 173.894315 
L 359.388511 173.668859 
L 363.163564 173.648197 
L 367.47791 173.850212 
L 373.140489 174.357291 
L 389.049641 175.924213 
L 394.71222 176.186936 
L 398.487273 176.23949 
L 398.487273 176.23949 
" clip-path="url(#pb83415c915)" style="fill: none; stroke: #000000; stroke-width: 1.5; stroke-linecap: square"/>
   </g>
   <g id="line2d_16">
    <path d="M 57.6 176.239645 
L 414.72 176.239645 
" clip-path="url(#pb83415c915)" style="fill: none; stroke: #000000; stroke-width: 0.5; stroke-linecap: square"/>
   </g>
   <g id="patch_3">
    <path d="M 57.6 307.584 
L 57.6 41.472 
" style="fill: none; stroke: #000000; stroke-width: 0.8; stroke-linejoin: miter; stroke-linecap: square"/>
   </g>
   <g id="patch_4">
    <path d="M 414.72 307.584 
L 414.72 41.472 
" style="fill: none; stroke: #000000; stroke-width: 0.8; stroke-linejoin: miter; stroke-linecap: square"/>
   </g>
   <g id="patch_5">
    <path d="M 57.6 307.584 
L 414.72 307.584 
" style="fill: none; stroke: #000000; stroke-width: 0.8; stroke-linejoin: miter; stroke-linecap: square"/>
   </g>
   <g id="patch_6">
    <path d="M 57.6 41.472 
L 414.72 41.472 
" style="fill: none; stroke: #000000; stroke-width: 0.8; stroke-linejoin: miter; stroke-linecap: square"/>
   </g>
   <g id="patch_7">
    <path d="M 79.336118 176.239645 
Q 79.336118 214.239475 79.336118 250.562254 
" style="fill: none; stroke: #ff0000; stroke-width: 1.5; stroke-linecap: round"/>
    <path d="M 81.336118 246.562254 
L 79.336118 250.562254 
L 77.336118 246.562254 
" style="fill: none; stroke: #ff0000; stroke-width: 1.5; stroke-linecap: round"/>
   </g>
   <g id="patch_8">
    <path d="M 101.447141 176.239645 
Q 101.447141 235.343034 101.447141 292.769372 
" style="fill: none; stroke: #ff562c; stroke-width: 1.5; stroke-linecap: round"/>
    <path d="M 103.447141 288.769372 
L 101.447141 292.769372 
L 99.447141 288.769372 
" style="fill: none; stroke: #ff562c; stroke-width: 1.5; stroke-linecap: round"/>
   </g>
   <g id="patch_9">
    <path d="M 121.940286 176.239645 
Q 121.940286 114.903823 121.940286 55.245051 
" style="fill: none; stroke: #ffa256; stroke-width: 1.5; stroke-linecap: round"/>
    <path d="M 119.940286 59.245051 
L 121.940286 55.245051 
L 123.940286 59.245051 
" style="fill: none; stroke: #ffa256; stroke-width: 1.5; stroke-linecap: round"/>
   </g>
   <g id="patch_10">
    <path d="M 178.835725 176.239645 
Q 178.835725 185.68814 178.835725 193.459584 
" style="fill: none; stroke: #d5dd7f; stroke-width: 1.5; stroke-linecap: round"/>
    <path d="M 180.835725 189.459584 
L 178.835725 193.459584 
L 176.835725 189.459584 
" style="fill: none; stroke: #d5dd7f; stroke-width: 1.5; stroke-linecap: round"/>
   </g>
   <g id="patch_11">
    <path d="M 217.125547 176.239645 
Q 217.125547 235.863823 217.125547 293.810949 
" style="fill: none; stroke: #9cfba4; stroke-width: 1.5; stroke-linecap: round"/>
    <path d="M 219.125547 289.810949 
L 217.125547 293.810949 
L 215.125547 289.810949 
" style="fill: none; stroke: #9cfba4; stroke-width: 1.5; stroke-linecap: round"/>
   </g>
   <g id="patch_12">
    <path d="M 250.292083 176.239645 
Q 250.292083 160.858986 250.292083 147.155377 
" style="fill: none; stroke: #62fbc4; stroke-width: 1.5; stroke-linecap: round"/>
    <path d="M 248.292083 151.155377 
L 250.292083 147.155377 
L 252.292083 151.155377 
" style="fill: none; stroke: #62fbc4; stroke-width: 1.5; stroke-linecap: round"/>
   </g>
   <g id="patch_13">
    <path d="M 274.560279 176.239645 
Q 274.560279 199.021476 274.560279 220.126255 
" style="fill: none; stroke: #2bdddd; stroke-width: 1.5; stroke-linecap: round"/>
    <path d="M 276.560279 216.126255 
L 274.560279 220.126255 
L 272.560279 216.126255 
" style="fill: none; stroke: #2bdddd; stroke-width: 1.5; stroke-linecap: round"/>
   </g>
   <g id="patch_14">
    <path d="M 304.221409 176.239645 
Q 304.221409 171.597654 304.221409 168.632714 
" style="fill: none; stroke: #10a2f0; stroke-width: 1.5; stroke-linecap: round"/>
    <path d="M 302.221409 172.632714 
L 304.221409 168.632714 
L 306.221409 172.632714 
" style="fill: none; stroke: #10a2f0; stroke-width: 1.5; stroke-linecap: round"/>
   </g>
   <g id="patch_15">
    <path d="M 358.690029 176.239645 
Q 358.690029 224.407487 358.690029 270.898278 
" style="fill: none; stroke: #4756fb; stroke-width: 1.5; stroke-linecap: round"/>
    <path d="M 360.690029 266.898278 
L 358.690029 270.898278 
L 356.690029 266.898278 
" style="fill: none; stroke: #4756fb; stroke-width: 1.5; stroke-linecap: round"/>
   </g>
   <g id="patch_16">
    <path d="M 373.79024 176.239645 
Q 373.79024 160.517088 373.79024 146.471581 
" style="fill: none; stroke: #8000ff; stroke-width: 1.5; stroke-linecap: round"/>
    <path d="M 371.79024 150.471581 
L 373.79024 146.471581 
L 375.79024 150.471581 
" style="fill: none; stroke: #8000ff; stroke-width: 1.5; stroke-linecap: round"/>
   </g>
   <g id="patch_17">
    <path d="M 236.270458 176.239645 
Q 236.270458 218.78722 236.270458 259.098727 
" style="fill: none; stroke: #000000; stroke-width: 2; stroke-linecap: round"/>
    <path d="M 238.270458 255.098727 
L 236.270458 259.098727 
L 234.270458 255.098727 
" style="fill: none; stroke: #000000; stroke-width: 2; stroke-linecap: round"/>
   </g>
   <g id="PathCollection_2">
    <defs>
     <path id="C0_0_3199c9679a" d="M 0 3 
C 0.795609 3 1.55874 2.683901 2.12132 2.12132 
C 2.683901 1.55874 3 0.795609 3 -0 
C 3 -0.795609 2.683901 -1.55874 2.12132 -2.12132 
C 1.55874 -2.683901 0.795609 -3 0 -3 
C -0.795609 -3 -1.55874 -2.683901 -2.12132 -2.12132 
C -2.683901 -1.55874 -3 -0.795609 -3 0 
C -3 0.795609 -2.683901 1.55874 -2.12132 2.12132 
C -1.55874 2.683901 -0.795609 3 0 3 
z
"/>
    </defs>
    <g clip-path="url(#pb83415c915)">
     <use xlink:href="#C0_0_3199c9679a" x="79.336118" y="176.331354" style="fill: #ff0000; stroke: #ff0000"/>
    </g>
    <g clip-path="url(#pb83415c915)">
     <use xlink:href="#C0_0_3199c9679a" x="101.447141" y="179.188164" style="fill: #ff562c; stroke: #ff562c"/>
    </g>
    <g clip-path="url(#pb83415c915)">
     <use xlink:href="#C0_0_3199c9679a" x="121.940286" y="173.937889" style="fill: #ffa256; stroke: #ffa256"/>
    </g>
    <g clip-path="url(#pb83415c915)">
     <use xlink:href="#C0_0_3199c9679a" x="178.835725" y="175.37205" style="fill: #d5dd7f; stroke: #d5dd7f"/>
    </g>
    <g clip-path="url(#pb83415c915)">
     <use xlink:href="#C0_0_3199c9679a" x="217.125547" y="270.251093" style="fill: #9cfba4; stroke: #9cfba4"/>
    </g>
    <g clip-path="url(#pb83415c915)">
     <use xlink:href="#C0_0_3199c9679a" x="250.292083" y="149.096619" style="fill: #62fbc4; stroke: #62fbc4"/>
    </g>
    <g clip-path="url(#pb83415c915)">
     <use xlink:href="#C0_0_3199c9679a" x="274.560279" y="191.105689" style="fill: #2bdddd; stroke: #2bdddd"/>
    </g>
    <g clip-path="url(#pb83415c915)">
     <use xlink:href="#C0_0_3199c9679a" x="304.221409" y="177.484119" style="fill: #10a2f0; stroke: #10a2f0"/>
    </g>
    <g clip-path="url(#pb83415c915)">
     <use xlink:href="#C0_0_3199c9679a" x="358.690029" y="179.166384" style="fill: #4756fb; stroke: #4756fb"/>
    </g>
    <g clip-path="url(#pb83415c915)">
     <use xlink:href="#C0_0_3199c9679a" x="373.79024" y="175.558242" style="fill: #8000ff; stroke: #8000ff"/>
    </g>
   </g>
   <g id="legend_1">
    <g id="patch_18">
     <path d="M 258.343437 93.506375 
L 407.72 93.506375 
Q 409.72 93.506375 409.72 91.506375 
L 409.72 48.472 
Q 409.72 46.472 407.72 46.472 
L 258.343437 46.472 
Q 256.343437 46.472 256.343437 48.472 
L 256.343437 91.506375 
Q 256.343437 93.506375 258.343437 93.506375 
z
" style="fill: #ffffff; opacity: 0.8; stroke: #cccccc; stroke-linejoin: miter"/>
    </g>
    <g id="line2d_17">
     <path d="M 260.343437 54.570438 
L 270.343437 54.570438 
L 280.343437 54.570438 
" style="fill: none; stroke: #000000; stroke-width: 2; stroke-linecap: square"/>
    </g>
    <g id="text_8">
     <!-- Semantic Stimuli (step) -->
     <g transform="translate(288.343437 58.070438) scale(0.1 -0.1)">
      <defs>
       <path id="DejaVuSans-53" d="M 3425 4513 
L 3425 3897 
Q 3066 4069 2747 4153 
Q 2428 4238 2131 4238 
Q 1616 4238 1336 4038 
Q 1056 3838 1056 3469 
Q 1056 3159 1242 3001 
Q 1428 2844 1947 2747 
L 2328 2669 
Q 3034 2534 3370 2195 
Q 3706 1856 3706 1288 
Q 3706 609 3251 259 
Q 2797 -91 1919 -91 
Q 1588 -91 1214 -16 
Q 841 59 441 206 
L 441 856 
Q 825 641 1194 531 
Q 1563 422 1919 422 
Q 2459 422 2753 634 
Q 3047 847 3047 1241 
Q 3047 1584 2836 1778 
Q 2625 1972 2144 2069 
L 1759 2144 
Q 1053 2284 737 2584 
Q 422 2884 422 3419 
Q 422 4038 858 4394 
Q 1294 4750 2059 4750 
Q 2388 4750 2728 4690 
Q 3069 4631 3425 4513 
z
" transform="scale(0.015625)"/>
       <path id="DejaVuSans-65" d="M 3597 1894 
L 3597 1613 
L 953 1613 
Q 991 1019 1311 708 
Q 1631 397 2203 397 
Q 2534 397 2845 478 
Q 3156 559 3463 722 
L 3463 178 
Q 3153 47 2828 -22 
Q 2503 -91 2169 -91 
Q 1331 -91 842 396 
Q 353 884 353 1716 
Q 353 2575 817 3079 
Q 1281 3584 2069 3584 
Q 2775 3584 3186 3129 
Q 3597 2675 3597 1894 
z
M 3022 2063 
Q 3016 2534 2758 2815 
Q 2500 3097 2075 3097 
Q 1594 3097 1305 2825 
Q 1016 2553 972 2059 
L 3022 2063 
z
" transform="scale(0.015625)"/>
       <path id="DejaVuSans-6d" d="M 3328 2828 
Q 3544 3216 3844 3400 
Q 4144 3584 4550 3584 
Q 5097 3584 5394 3201 
Q 5691 2819 5691 2113 
L 5691 0 
L 5113 0 
L 5113 2094 
Q 5113 2597 4934 2840 
Q 4756 3084 4391 3084 
Q 3944 3084 3684 2787 
Q 3425 2491 3425 1978 
L 3425 0 
L 2847 0 
L 2847 2094 
Q 2847 2600 2669 2842 
Q 2491 3084 2119 3084 
Q 1678 3084 1418 2786 
Q 1159 2488 1159 1978 
L 1159 0 
L 581 0 
L 581 3500 
L 1159 3500 
L 1159 2956 
Q 1356 3278 1631 3431 
Q 1906 3584 2284 3584 
Q 2666 3584 2933 3390 
Q 3200 3197 3328 2828 
z
" transform="scale(0.015625)"/>
       <path id="DejaVuSans-61" d="M 2194 1759 
Q 1497 1759 1228 1600 
Q 959 1441 959 1056 
Q 959 750 1161 570 
Q 1363 391 1709 391 
Q 2188 391 2477 730 
Q 2766 1069 2766 1631 
L 2766 1759 
L 2194 1759 
z
M 3341 1997 
L 3341 0 
L 2766 0 
L 2766 531 
Q 2569 213 2275 61 
Q 1981 -91 1556 -91 
Q 1019 -91 701 211 
Q 384 513 384 1019 
Q 384 1609 779 1909 
Q 1175 2209 1959 2209 
L 2766 2209 
L 2766 2266 
Q 2766 2663 2505 2880 
Q 2244 3097 1772 3097 
Q 1472 3097 1187 3025 
Q 903 2953 641 2809 
L 641 3341 
Q 956 3463 1253 3523 
Q 1550 3584 1831 3584 
Q 2591 3584 2966 3190 
Q 3341 2797 3341 1997 
z
" transform="scale(0.015625)"/>
       <path id="DejaVuSans-6e" d="M 3513 2113 
L 3513 0 
L 2938 0 
L 2938 2094 
Q 2938 2591 2744 2837 
Q 2550 3084 2163 3084 
Q 1697 3084 1428 2787 
Q 1159 2491 1159 1978 
L 1159 0 
L 581 0 
L 581 3500 
L 1159 3500 
L 1159 2956 
Q 1366 3272 1645 3428 
Q 1925 3584 2291 3584 
Q 2894 3584 3203 3211 
Q 3513 2838 3513 2113 
z
" transform="scale(0.015625)"/>
       <path id="DejaVuSans-74" d="M 1172 4494 
L 1172 3500 
L 2356 3500 
L 2356 3053 
L 1172 3053 
L 1172 1153 
Q 1172 725 1289 603 
Q 1406 481 1766 481 
L 2356 481 
L 2356 0 
L 1766 0 
Q 1100 0 847 248 
Q 594 497 594 1153 
L 594 3053 
L 172 3053 
L 172 3500 
L 594 3500 
L 594 4494 
L 1172 4494 
z
" transform="scale(0.015625)"/>
       <path id="DejaVuSans-69" d="M 603 3500 
L 1178 3500 
L 1178 0 
L 603 0 
L 603 3500 
z
M 603 4863 
L 1178 4863 
L 1178 4134 
L 603 4134 
L 603 4863 
z
" transform="scale(0.015625)"/>
       <path id="DejaVuSans-63" d="M 3122 3366 
L 3122 2828 
Q 2878 2963 2633 3030 
Q 2388 3097 2138 3097 
Q 1578 3097 1268 2742 
Q 959 2388 959 1747 
Q 959 1106 1268 751 
Q 1578 397 2138 397 
Q 2388 397 2633 464 
Q 2878 531 3122 666 
L 3122 134 
Q 2881 22 2623 -34 
Q 2366 -91 2075 -91 
Q 1284 -91 818 406 
Q 353 903 353 1747 
Q 353 2603 823 3093 
Q 1294 3584 2113 3584 
Q 2378 3584 2631 3529 
Q 2884 3475 3122 3366 
z
" transform="scale(0.015625)"/>
       <path id="DejaVuSans-20" transform="scale(0.015625)"/>
       <path id="DejaVuSans-75" d="M 544 1381 
L 544 3500 
L 1119 3500 
L 1119 1403 
Q 1119 906 1312 657 
Q 1506 409 1894 409 
Q 2359 409 2629 706 
Q 2900 1003 2900 1516 
L 2900 3500 
L 3475 3500 
L 3475 0 
L 2900 0 
L 2900 538 
Q 2691 219 2414 64 
Q 2138 -91 1772 -91 
Q 1169 -91 856 284 
Q 544 659 544 1381 
z
M 1991 3584 
L 1991 3584 
z
" transform="scale(0.015625)"/>
       <path id="DejaVuSans-6c" d="M 603 4863 
L 1178 4863 
L 1178 0 
L 603 0 
L 603 4863 
z
" transform="scale(0.015625)"/>
       <path id="DejaVuSans-28" d="M 1984 4856 
Q 1566 4138 1362 3434 
Q 1159 2731 1159 2009 
Q 1159 1288 1364 580 
Q 1569 -128 1984 -844 
L 1484 -844 
Q 1016 -109 783 600 
Q 550 1309 550 2009 
Q 550 2706 781 3412 
Q 1013 4119 1484 4856 
L 1984 4856 
z
" transform="scale(0.015625)"/>
       <path id="DejaVuSans-73" d="M 2834 3397 
L 2834 2853 
Q 2591 2978 2328 3040 
Q 2066 3103 1784 3103 
Q 1356 3103 1142 2972 
Q 928 2841 928 2578 
Q 928 2378 1081 2264 
Q 1234 2150 1697 2047 
L 1894 2003 
Q 2506 1872 2764 1633 
Q 3022 1394 3022 966 
Q 3022 478 2636 193 
Q 2250 -91 1575 -91 
Q 1294 -91 989 -36 
Q 684 19 347 128 
L 347 722 
Q 666 556 975 473 
Q 1284 391 1588 391 
Q 1994 391 2212 530 
Q 2431 669 2431 922 
Q 2431 1156 2273 1281 
Q 2116 1406 1581 1522 
L 1381 1569 
Q 847 1681 609 1914 
Q 372 2147 372 2553 
Q 372 3047 722 3315 
Q 1072 3584 1716 3584 
Q 2034 3584 2315 3537 
Q 2597 3491 2834 3397 
z
" transform="scale(0.015625)"/>
       <path id="DejaVuSans-70" d="M 1159 525 
L 1159 -1331 
L 581 -1331 
L 581 3500 
L 1159 3500 
L 1159 2969 
Q 1341 3281 1617 3432 
Q 1894 3584 2278 3584 
Q 2916 3584 3314 3078 
Q 3713 2572 3713 1747 
Q 3713 922 3314 415 
Q 2916 -91 2278 -91 
Q 1894 -91 1617 61 
Q 1341 213 1159 525 
z
M 3116 1747 
Q 3116 2381 2855 2742 
Q 2594 3103 2138 3103 
Q 1681 3103 1420 2742 
Q 1159 2381 1159 1747 
Q 1159 1113 1420 752 
Q 1681 391 2138 391 
Q 2594 391 2855 752 
Q 3116 1113 3116 1747 
z
" transform="scale(0.015625)"/>
       <path id="DejaVuSans-29" d="M 513 4856 
L 1013 4856 
Q 1481 4119 1714 3412 
Q 1947 2706 1947 2009 
Q 1947 1309 1714 600 
Q 1481 -109 1013 -844 
L 513 -844 
Q 928 -128 1133 580 
Q 1338 1288 1338 2009 
Q 1338 2731 1133 3434 
Q 928 4138 513 4856 
z
" transform="scale(0.015625)"/>
      </defs>
      <use xlink:href="#DejaVuSans-53"/>
      <use xlink:href="#DejaVuSans-65" transform="translate(63.476562 0)"/>
      <use xlink:href="#DejaVuSans-6d" transform="translate(125 0)"/>
      <use xlink:href="#DejaVuSans-61" transform="translate(222.412109 0)"/>
      <use xlink:href="#DejaVuSans-6e" transform="translate(283.691406 0)"/>
      <use xlink:href="#DejaVuSans-74" transform="translate(347.070312 0)"/>
      <use xlink:href="#DejaVuSans-69" transform="translate(386.279297 0)"/>
      <use xlink:href="#DejaVuSans-63" transform="translate(414.0625 0)"/>
      <use xlink:href="#DejaVuSans-20" transform="translate(469.042969 0)"/>
      <use xlink:href="#DejaVuSans-53" transform="translate(500.830078 0)"/>
      <use xlink:href="#DejaVuSans-74" transform="translate(564.306641 0)"/>
      <use xlink:href="#DejaVuSans-69" transform="translate(603.515625 0)"/>
      <use xlink:href="#DejaVuSans-6d" transform="translate(631.298828 0)"/>
      <use xlink:href="#DejaVuSans-75" transform="translate(728.710938 0)"/>
      <use xlink:href="#DejaVuSans-6c" transform="translate(792.089844 0)"/>
      <use xlink:href="#DejaVuSans-69" transform="translate(819.873047 0)"/>
      <use xlink:href="#DejaVuSans-20" transform="translate(847.65625 0)"/>
      <use xlink:href="#DejaVuSans-28" transform="translate(879.443359 0)"/>
      <use xlink:href="#DejaVuSans-73" transform="translate(918.457031 0)"/>
      <use xlink:href="#DejaVuSans-74" transform="translate(970.556641 0)"/>
      <use xlink:href="#DejaVuSans-65" transform="translate(1009.765625 0)"/>
      <use xlink:href="#DejaVuSans-70" transform="translate(1071.289062 0)"/>
      <use xlink:href="#DejaVuSans-29" transform="translate(1134.765625 0)"/>
     </g>
    </g>
    <g id="line2d_18">
     <path d="M 260.343437 69.248563 
L 270.343437 69.248563 
L 280.343437 69.248563 
" style="fill: none; stroke: #000000; stroke-width: 2; stroke-linecap: square"/>
    </g>
    <g id="text_9">
     <!-- Lanczos kernel -->
     <g transform="translate(288.343437 72.748563) scale(0.1 -0.1)">
      <defs>
       <path id="DejaVuSans-4c" d="M 628 4666 
L 1259 4666 
L 1259 531 
L 3531 531 
L 3531 0 
L 628 0 
L 628 4666 
z
" transform="scale(0.015625)"/>
       <path id="DejaVuSans-7a" d="M 353 3500 
L 3084 3500 
L 3084 2975 
L 922 459 
L 3084 459 
L 3084 0 
L 275 0 
L 275 525 
L 2438 3041 
L 353 3041 
L 353 3500 
z
" transform="scale(0.015625)"/>
       <path id="DejaVuSans-6f" d="M 1959 3097 
Q 1497 3097 1228 2736 
Q 959 2375 959 1747 
Q 959 1119 1226 758 
Q 1494 397 1959 397 
Q 2419 397 2687 759 
Q 2956 1122 2956 1747 
Q 2956 2369 2687 2733 
Q 2419 3097 1959 3097 
z
M 1959 3584 
Q 2709 3584 3137 3096 
Q 3566 2609 3566 1747 
Q 3566 888 3137 398 
Q 2709 -91 1959 -91 
Q 1206 -91 779 398 
Q 353 888 353 1747 
Q 353 2609 779 3096 
Q 1206 3584 1959 3584 
z
" transform="scale(0.015625)"/>
       <path id="DejaVuSans-6b" d="M 581 4863 
L 1159 4863 
L 1159 1991 
L 2875 3500 
L 3609 3500 
L 1753 1863 
L 3688 0 
L 2938 0 
L 1159 1709 
L 1159 0 
L 581 0 
L 581 4863 
z
" transform="scale(0.015625)"/>
       <path id="DejaVuSans-72" d="M 2631 2963 
Q 2534 3019 2420 3045 
Q 2306 3072 2169 3072 
Q 1681 3072 1420 2755 
Q 1159 2438 1159 1844 
L 1159 0 
L 581 0 
L 581 3500 
L 1159 3500 
L 1159 2956 
Q 1341 3275 1631 3429 
Q 1922 3584 2338 3584 
Q 2397 3584 2469 3576 
Q 2541 3569 2628 3553 
L 2631 2963 
z
" transform="scale(0.015625)"/>
      </defs>
      <use xlink:href="#DejaVuSans-4c"/>
      <use xlink:href="#DejaVuSans-61" transform="translate(55.712891 0)"/>
      <use xlink:href="#DejaVuSans-6e" transform="translate(116.992188 0)"/>
      <use xlink:href="#DejaVuSans-63" transform="translate(180.371094 0)"/>
      <use xlink:href="#DejaVuSans-7a" transform="translate(235.351562 0)"/>
      <use xlink:href="#DejaVuSans-6f" transform="translate(287.841797 0)"/>
      <use xlink:href="#DejaVuSans-73" transform="translate(349.023438 0)"/>
      <use xlink:href="#DejaVuSans-20" transform="translate(401.123047 0)"/>
      <use xlink:href="#DejaVuSans-6b" transform="translate(432.910156 0)"/>
      <use xlink:href="#DejaVuSans-65" transform="translate(487.195312 0)"/>
      <use xlink:href="#DejaVuSans-72" transform="translate(548.71875 0)"/>
      <use xlink:href="#DejaVuSans-6e" transform="translate(588.082031 0)"/>
      <use xlink:href="#DejaVuSans-65" transform="translate(651.460938 0)"/>
      <use xlink:href="#DejaVuSans-6c" transform="translate(712.984375 0)"/>
     </g>
    </g>
    <g id="line2d_19">
     <defs>
      <path id="m2fe191fa39" d="M 0 4 
C 1.060812 4 2.078319 3.578535 2.828427 2.828427 
C 3.578535 2.078319 4 1.060812 4 0 
C 4 -1.060812 3.578535 -2.078319 2.828427 -2.828427 
C 2.078319 -3.578535 1.060812 -4 0 -4 
C -1.060812 -4 -2.078319 -3.578535 -2.828427 -2.828427 
C -3.578535 -2.078319 -4 -1.060812 -4 0 
C -4 1.060812 -3.578535 2.078319 -2.828427 2.828427 
C -2.078319 3.578535 -1.060812 4 0 4 
z
" style="stroke: #ffffff"/>
     </defs>
     <g>
      <use xlink:href="#m2fe191fa39" x="270.343437" y="83.926688" style="stroke: #ffffff"/>
     </g>
    </g>
    <g id="text_10">
     <!-- Contributions -->
     <g transform="translate(288.343437 87.426688) scale(0.1 -0.1)">
      <defs>
       <path id="DejaVuSans-43" d="M 4122 4306 
L 4122 3641 
Q 3803 3938 3442 4084 
Q 3081 4231 2675 4231 
Q 1875 4231 1450 3742 
Q 1025 3253 1025 2328 
Q 1025 1406 1450 917 
Q 1875 428 2675 428 
Q 3081 428 3442 575 
Q 3803 722 4122 1019 
L 4122 359 
Q 3791 134 3420 21 
Q 3050 -91 2638 -91 
Q 1578 -91 968 557 
Q 359 1206 359 2328 
Q 359 3453 968 4101 
Q 1578 4750 2638 4750 
Q 3056 4750 3426 4639 
Q 3797 4528 4122 4306 
z
" transform="scale(0.015625)"/>
       <path id="DejaVuSans-62" d="M 3116 1747 
Q 3116 2381 2855 2742 
Q 2594 3103 2138 3103 
Q 1681 3103 1420 2742 
Q 1159 2381 1159 1747 
Q 1159 1113 1420 752 
Q 1681 391 2138 391 
Q 2594 391 2855 752 
Q 3116 1113 3116 1747 
z
M 1159 2969 
Q 1341 3281 1617 3432 
Q 1894 3584 2278 3584 
Q 2916 3584 3314 3078 
Q 3713 2572 3713 1747 
Q 3713 922 3314 415 
Q 2916 -91 2278 -91 
Q 1894 -91 1617 61 
Q 1341 213 1159 525 
L 1159 0 
L 581 0 
L 581 4863 
L 1159 4863 
L 1159 2969 
z
" transform="scale(0.015625)"/>
      </defs>
      <use xlink:href="#DejaVuSans-43"/>
      <use xlink:href="#DejaVuSans-6f" transform="translate(69.824219 0)"/>
      <use xlink:href="#DejaVuSans-6e" transform="translate(131.005859 0)"/>
      <use xlink:href="#DejaVuSans-74" transform="translate(194.384766 0)"/>
      <use xlink:href="#DejaVuSans-72" transform="translate(233.59375 0)"/>
      <use xlink:href="#DejaVuSans-69" transform="translate(274.707031 0)"/>
      <use xlink:href="#DejaVuSans-62" transform="translate(302.490234 0)"/>
      <use xlink:href="#DejaVuSans-75" transform="translate(365.966797 0)"/>
      <use xlink:href="#DejaVuSans-74" transform="translate(429.345703 0)"/>
      <use xlink:href="#DejaVuSans-69" transform="translate(468.554688 0)"/>
      <use xlink:href="#DejaVuSans-6f" transform="translate(496.337891 0)"/>
      <use xlink:href="#DejaVuSans-6e" transform="translate(557.519531 0)"/>
      <use xlink:href="#DejaVuSans-73" transform="translate(620.898438 0)"/>
     </g>
    </g>
   </g>
  </g>
 </g>
 <defs>
  <clipPath id="pb83415c915">
   <rect x="57.6" y="41.472" width="357.12" height="266.112"/>
  </clipPath>
 </defs>
</svg>
