<?xml version="1.0" encoding="utf-8" standalone="no"?>
<!DOCTYPE svg PUBLIC "-//W3C//DTD SVG 1.1//EN"
  "http://www.w3.org/Graphics/SVG/1.1/DTD/svg11.dtd">
<svg xmlns:xlink="http://www.w3.org/1999/xlink" width="460.8pt" height="345.6pt" viewBox="0 0 460.8 345.6" xmlns="http://www.w3.org/2000/svg" version="1.1">
 <metadata>
  <rdf:RDF xmlns:dc="http://purl.org/dc/elements/1.1/" xmlns:cc="http://creativecommons.org/ns#" xmlns:rdf="http://www.w3.org/1999/02/22-rdf-syntax-ns#">
   <cc:Work>
    <dc:type rdf:resource="http://purl.org/dc/dcmitype/StillImage"/>
    <dc:date>2025-12-02T15:41:25.746885</dc:date>
    <dc:format>image/svg+xml</dc:format>
    <dc:creator>
     <cc:Agent>
      <dc:title>Matplotlib v3.10.7, https://matplotlib.org/</dc:title>
     </cc:Agent>
    </dc:creator>
   </cc:Work>
  </rdf:RDF>
 </metadata>
 <defs>
  <style type="text/css">*{stroke-linejoin: round; stroke-linecap: butt}</style>
 </defs>
 <g id="figure_1">
  <g id="patch_1">
   <path d="M 0 345.6 
L 460.8 345.6 
L 460.8 0 
L 0 0 
z
" style="fill: #ffffff"/>
  </g>
  <g id="axes_1">
   <g id="patch_2">
    <path d="M 57.6 307.584 
L 414.72 307.584 
L 414.72 41.472 
L 57.6 41.472 
z
" style="fill: #ffffff"/>
   </g>
   <g id="PathCollection_1">
    <defs>
     <path id="m53fe3053d6" d="M 0 3 
C 0.795609 3 1.55874 2.683901 2.12132 2.12132 
C 2.683901 1.55874 3 0.795609 3 0 
C 3 -0.795609 2.683901 -1.55874 2.12132 -2.12132 
C 1.55874 -2.683901 0.795609 -3 0 -3 
C -0.795609 -3 -1.55874 -2.683901 -2.12132 -2.12132 
C -2.683901 -1.55874 -3 -0.795609 -3 0 
C -3 0.795609 -2.683901 1.55874 -2.12132 2.12132 
C -1.55874 2.683901 -0.795609 3 0 3 
z
" style="stroke: #ffffff"/>
    </defs>
    <g clip-path="url(#pb5bd6a72ac)">
     <use xlink:href="#m53fe3053d6" x="79.336118" y="252.239305" style="fill: #ffffff; stroke: #ffffff"/>
     <use xlink:href="#m53fe3053d6" x="101.447141" y="294.446423" style="fill: #ffffff; stroke: #ffffff"/>
     <use xlink:href="#m53fe3053d6" x="121.940286" y="53.568" style="fill: #ffffff; stroke: #ffffff"/>
     <use xlink:href="#m53fe3053d6" x="178.835725" y="195.136635" style="fill: #ffffff; stroke: #ffffff"/>
     <use xlink:href="#m53fe3053d6" x="217.125547" y="295.488" style="fill: #ffffff; stroke: #ffffff"/>
     <use xlink:href="#m53fe3053d6" x="250.292083" y="145.478326" style="fill: #ffffff; stroke: #ffffff"/>
     <use xlink:href="#m53fe3053d6" x="274.560279" y="221.803306" style="fill: #ffffff; stroke: #ffffff"/>
     <use xlink:href="#m53fe3053d6" x="304.221409" y="166.955663" style="fill: #ffffff; stroke: #ffffff"/>
     <use xlink:href="#m53fe3053d6" x="358.690029" y="272.575329" style="fill: #ffffff; stroke: #ffffff"/>
     <use xlink:href="#m53fe3053d6" x="373.79024" y="144.79453" style="fill: #ffffff; stroke: #ffffff"/>
    </g>
   </g>
   <g id="FillBetweenPolyCollection_1">
    <defs>
     <path id="m0ee7418490" d="M 79.495307 -169.360355 
L 79.495307 -169.467378 
L 79.764953 -169.477987 
L 80.0346 -169.489104 
L 80.304246 -169.500726 
L 80.573893 -169.512853 
L 80.84354 -169.525484 
L 81.113186 -169.538616 
L 81.382833 -169.552249 
L 81.65248 -169.56638 
L 81.922126 -169.581006 
L 82.191773 -169.596124 
L 82.46142 -169.611732 
L 82.731066 -169.627827 
L 83.000713 -169.644404 
L 83.270359 -169.66146 
L 83.540006 -169.678991 
L 83.809653 -169.696992 
L 84.079299 -169.715458 
L 84.348946 -169.734385 
L 84.618593 -169.753767 
L 84.888239 -169.773598 
L 85.157886 -169.793874 
L 85.427532 -169.814587 
L 85.697179 -169.835731 
L 85.966826 -169.857299 
L 86.236472 -169.879284 
L 86.506119 -169.90168 
L 86.775766 -169.924478 
L 87.045412 -169.947671 
L 87.315059 -169.971249 
L 87.584706 -169.995206 
L 87.854352 -170.019532 
L 88.123999 -170.044218 
L 88.393645 -170.069255 
L 88.663292 -170.094633 
L 88.932939 -170.120343 
L 89.202585 -170.146374 
L 89.472232 -170.172715 
L 89.741879 -170.199358 
L 90.011525 -170.226289 
L 90.281172 -170.253498 
L 90.550818 -170.280974 
L 90.820465 -170.308705 
L 91.090112 -170.336679 
L 91.359758 -170.364883 
L 91.629405 -170.393305 
L 91.899052 -170.421933 
L 92.168698 -170.450753 
L 92.438345 -170.479752 
L 92.707992 -170.508917 
L 92.977638 -170.538233 
L 93.247285 -170.567687 
L 93.516931 -170.597265 
L 93.786578 -170.626952 
L 94.056225 -170.656734 
L 94.325871 -170.686595 
L 94.595518 -170.716521 
L 94.865165 -170.746495 
L 95.134811 -170.776504 
L 95.404458 -170.80653 
L 95.674105 -170.836558 
L 95.943751 -170.866572 
L 96.213398 -170.896556 
L 96.483044 -170.926493 
L 96.752691 -170.956366 
L 97.022338 -170.986158 
L 97.291984 -171.015853 
L 97.561631 -171.045433 
L 97.831278 -171.074881 
L 98.100924 -171.104179 
L 98.370571 -171.13331 
L 98.640217 -171.162256 
L 98.909864 -171.190998 
L 99.179511 -171.219519 
L 99.449157 -171.247801 
L 99.718804 -171.275825 
L 99.988451 -171.303573 
L 100.258097 -171.331027 
L 100.527744 -171.358166 
L 100.797391 -171.384974 
L 101.067037 -171.411431 
L 101.336684 -171.437517 
L 101.336684 -169.360355 
L 101.336684 -169.360355 
L 101.067037 -169.360355 
L 100.797391 -169.360355 
L 100.527744 -169.360355 
L 100.258097 -169.360355 
L 99.988451 -169.360355 
L 99.718804 -169.360355 
L 99.449157 -169.360355 
L 99.179511 -169.360355 
L 98.909864 -169.360355 
L 98.640217 -169.360355 
L 98.370571 -169.360355 
L 98.100924 -169.360355 
L 97.831278 -169.360355 
L 97.561631 -169.360355 
L 97.291984 -169.360355 
L 97.022338 -169.360355 
L 96.752691 -169.360355 
L 96.483044 -169.360355 
L 96.213398 -169.360355 
L 95.943751 -169.360355 
L 95.674105 -169.360355 
L 95.404458 -169.360355 
L 95.134811 -169.360355 
L 94.865165 -169.360355 
L 94.595518 -169.360355 
L 94.325871 -169.360355 
L 94.056225 -169.360355 
L 93.786578 -169.360355 
L 93.516931 -169.360355 
L 93.247285 -169.360355 
L 92.977638 -169.360355 
L 92.707992 -169.360355 
L 92.438345 -169.360355 
L 92.168698 -169.360355 
L 91.899052 -169.360355 
L 91.629405 -169.360355 
L 91.359758 -169.360355 
L 91.090112 -169.360355 
L 90.820465 -169.360355 
L 90.550818 -169.360355 
L 90.281172 -169.360355 
L 90.011525 -169.360355 
L 89.741879 -169.360355 
L 89.472232 -169.360355 
L 89.202585 -169.360355 
L 88.932939 -169.360355 
L 88.663292 -169.360355 
L 88.393645 -169.360355 
L 88.123999 -169.360355 
L 87.854352 -169.360355 
L 87.584706 -169.360355 
L 87.315059 -169.360355 
L 87.045412 -169.360355 
L 86.775766 -169.360355 
L 86.506119 -169.360355 
L 86.236472 -169.360355 
L 85.966826 -169.360355 
L 85.697179 -169.360355 
L 85.427532 -169.360355 
L 85.157886 -169.360355 
L 84.888239 -169.360355 
L 84.618593 -169.360355 
L 84.348946 -169.360355 
L 84.079299 -169.360355 
L 83.809653 -169.360355 
L 83.540006 -169.360355 
L 83.270359 -169.360355 
L 83.000713 -169.360355 
L 82.731066 -169.360355 
L 82.46142 -169.360355 
L 82.191773 -169.360355 
L 81.922126 -169.360355 
L 81.65248 -169.360355 
L 81.382833 -169.360355 
L 81.113186 -169.360355 
L 80.84354 -169.360355 
L 80.573893 -169.360355 
L 80.304246 -169.360355 
L 80.0346 -169.360355 
L 79.764953 -169.360355 
L 79.495307 -169.360355 
z
" style="stroke: #ff0000; stroke-opacity: 0.3"/>
    </defs>
    <g clip-path="url(#pb5bd6a72ac)">
     <use xlink:href="#m0ee7418490" x="0" y="345.6" style="fill: #ff0000; fill-opacity: 0.3; stroke: #ff0000; stroke-opacity: 0.3"/>
    </g>
   </g>
   <g id="FillBetweenPolyCollection_2">
    <defs>
     <path id="m55a487486b" d="M 101.60633 -169.360355 
L 101.60633 -171.463215 
L 101.875977 -171.488505 
L 102.145624 -171.513367 
L 102.41527 -171.537784 
L 102.684917 -171.561734 
L 102.954564 -171.5852 
L 103.22421 -171.608162 
L 103.493857 -171.630601 
L 103.763503 -171.652496 
L 104.03315 -171.67383 
L 104.302797 -171.694581 
L 104.572443 -171.714732 
L 104.84209 -171.734263 
L 105.111737 -171.753154 
L 105.381383 -171.771386 
L 105.65103 -171.78894 
L 105.920677 -171.805796 
L 106.190323 -171.821936 
L 106.45997 -171.83734 
L 106.729616 -171.851989 
L 106.999263 -171.865864 
L 107.26891 -171.878947 
L 107.538556 -171.891218 
L 107.808203 -171.902658 
L 108.07785 -171.91325 
L 108.347496 -171.922974 
L 108.617143 -171.931812 
L 108.886789 -171.939746 
L 109.156436 -171.946758 
L 109.426083 -171.95283 
L 109.695729 -171.957943 
L 109.965376 -171.962081 
L 110.235023 -171.965225 
L 110.504669 -171.967359 
L 110.774316 -171.968465 
L 111.043963 -171.968527 
L 111.313609 -171.967527 
L 111.583256 -171.965449 
L 111.852902 -171.962277 
L 112.122549 -171.957995 
L 112.392196 -171.952586 
L 112.661842 -171.946036 
L 112.931489 -171.938328 
L 113.201136 -171.929449 
L 113.470782 -171.919382 
L 113.740429 -171.908114 
L 114.010076 -171.89563 
L 114.279722 -171.881916 
L 114.549369 -171.866959 
L 114.819015 -171.850745 
L 115.088662 -171.833261 
L 115.358309 -171.814494 
L 115.627955 -171.794433 
L 115.897602 -171.773065 
L 116.167249 -171.750377 
L 116.436895 -171.72636 
L 116.706542 -171.701002 
L 116.976188 -171.674292 
L 117.245835 -171.646221 
L 117.515482 -171.616777 
L 117.785128 -171.585953 
L 118.054775 -171.553738 
L 118.324422 -171.520125 
L 118.594068 -171.485104 
L 118.863715 -171.448669 
L 119.133362 -171.410811 
L 119.403008 -171.371524 
L 119.672655 -171.330802 
L 119.942301 -171.288638 
L 120.211948 -171.245026 
L 120.481595 -171.199962 
L 120.751241 -171.153441 
L 121.020888 -171.105458 
L 121.290535 -171.056011 
L 121.560181 -171.005095 
L 121.829828 -170.952709 
L 121.829828 -169.360355 
L 121.829828 -169.360355 
L 121.560181 -169.360355 
L 121.290535 -169.360355 
L 121.020888 -169.360355 
L 120.751241 -169.360355 
L 120.481595 -169.360355 
L 120.211948 -169.360355 
L 119.942301 -169.360355 
L 119.672655 -169.360355 
L 119.403008 -169.360355 
L 119.133362 -169.360355 
L 118.863715 -169.360355 
L 118.594068 -169.360355 
L 118.324422 -169.360355 
L 118.054775 -169.360355 
L 117.785128 -169.360355 
L 117.515482 -169.360355 
L 117.245835 -169.360355 
L 116.976188 -169.360355 
L 116.706542 -169.360355 
L 116.436895 -169.360355 
L 116.167249 -169.360355 
L 115.897602 -169.360355 
L 115.627955 -169.360355 
L 115.358309 -169.360355 
L 115.088662 -169.360355 
L 114.819015 -169.360355 
L 114.549369 -169.360355 
L 114.279722 -169.360355 
L 114.010076 -169.360355 
L 113.740429 -169.360355 
L 113.470782 -169.360355 
L 113.201136 -169.360355 
L 112.931489 -169.360355 
L 112.661842 -169.360355 
L 112.392196 -169.360355 
L 112.122549 -169.360355 
L 111.852902 -169.360355 
L 111.583256 -169.360355 
L 111.313609 -169.360355 
L 111.043963 -169.360355 
L 110.774316 -169.360355 
L 110.504669 -169.360355 
L 110.235023 -169.360355 
L 109.965376 -169.360355 
L 109.695729 -169.360355 
L 109.426083 -169.360355 
L 109.156436 -169.360355 
L 108.886789 -169.360355 
L 108.617143 -169.360355 
L 108.347496 -169.360355 
L 108.07785 -169.360355 
L 107.808203 -169.360355 
L 107.538556 -169.360355 
L 107.26891 -169.360355 
L 106.999263 -169.360355 
L 106.729616 -169.360355 
L 106.45997 -169.360355 
L 106.190323 -169.360355 
L 105.920677 -169.360355 
L 105.65103 -169.360355 
L 105.381383 -169.360355 
L 105.111737 -169.360355 
L 104.84209 -169.360355 
L 104.572443 -169.360355 
L 104.302797 -169.360355 
L 104.03315 -169.360355 
L 103.763503 -169.360355 
L 103.493857 -169.360355 
L 103.22421 -169.360355 
L 102.954564 -169.360355 
L 102.684917 -169.360355 
L 102.41527 -169.360355 
L 102.145624 -169.360355 
L 101.875977 -169.360355 
L 101.60633 -169.360355 
z
" style="stroke: #ff562c; stroke-opacity: 0.3"/>
    </defs>
    <g clip-path="url(#pb5bd6a72ac)">
     <use xlink:href="#m55a487486b" x="0" y="345.6" style="fill: #ff562c; fill-opacity: 0.3; stroke: #ff562c; stroke-opacity: 0.3"/>
    </g>
   </g>
   <g id="FillBetweenPolyCollection_3">
    <defs>
     <path id="mee84376597" d="M 122.099474 -169.360355 
L 122.099474 -170.898849 
L 122.369121 -170.843514 
L 122.638768 -170.786703 
L 122.908414 -170.728415 
L 123.178061 -170.668651 
L 123.447708 -170.607409 
L 123.717354 -170.544692 
L 123.987001 -170.480501 
L 124.256648 -170.414837 
L 124.526294 -170.347703 
L 124.795941 -170.279103 
L 125.065587 -170.209039 
L 125.335234 -170.137516 
L 125.604881 -170.064539 
L 125.874527 -169.990113 
L 126.144174 -169.914244 
L 126.413821 -169.836939 
L 126.683467 -169.758203 
L 126.953114 -169.678046 
L 127.22276 -169.596475 
L 127.492407 -169.513499 
L 127.762054 -169.429127 
L 128.0317 -169.34337 
L 128.301347 -169.256237 
L 128.570994 -169.167741 
L 128.84064 -169.077893 
L 129.110287 -168.986705 
L 129.379934 -168.89419 
L 129.64958 -168.800362 
L 129.919227 -168.705234 
L 130.188873 -168.608823 
L 130.45852 -168.511143 
L 130.728167 -168.412211 
L 130.997813 -168.312042 
L 131.26746 -168.210654 
L 131.537107 -168.108066 
L 131.806753 -168.004295 
L 132.0764 -167.899361 
L 132.346047 -167.793283 
L 132.615693 -167.686082 
L 132.88534 -167.577778 
L 133.154986 -167.468394 
L 133.424633 -167.357951 
L 133.69428 -167.246473 
L 133.963926 -167.133981 
L 134.233573 -167.020502 
L 134.50322 -166.906059 
L 134.772866 -166.790677 
L 135.042513 -166.674382 
L 135.312159 -166.557201 
L 135.581806 -166.439161 
L 135.851453 -166.320289 
L 136.121099 -166.200613 
L 136.390746 -166.080162 
L 136.660393 -165.958967 
L 136.930039 -165.837056 
L 137.199686 -165.71446 
L 137.469333 -165.59121 
L 137.738979 -165.467338 
L 138.008626 -165.342876 
L 138.278272 -165.217858 
L 138.547919 -165.092316 
L 138.817566 -164.966284 
L 139.087212 -164.839797 
L 139.356859 -164.71289 
L 139.626506 -164.585598 
L 139.896152 -164.457958 
L 140.165799 -164.330005 
L 140.435445 -164.201779 
L 140.705092 -164.073315 
L 140.974739 -163.944652 
L 141.244385 -163.815828 
L 141.514032 -163.686884 
L 141.783679 -163.557858 
L 142.053325 -163.428791 
L 142.322972 -163.299723 
L 142.592619 -163.170696 
L 142.862265 -163.04175 
L 143.131912 -162.912928 
L 143.401558 -162.784272 
L 143.671205 -162.655825 
L 143.940852 -162.527631 
L 144.210498 -162.399732 
L 144.480145 -162.272174 
L 144.749792 -162.145 
L 145.019438 -162.018256 
L 145.289085 -161.891987 
L 145.558732 -161.766237 
L 145.828378 -161.641055 
L 146.098025 -161.516484 
L 146.367671 -161.392574 
L 146.637318 -161.269369 
L 146.906965 -161.146918 
L 147.176611 -161.025269 
L 147.446258 -160.904469 
L 147.715905 -160.784566 
L 147.985551 -160.66561 
L 148.255198 -160.547648 
L 148.524844 -160.43073 
L 148.794491 -160.314905 
L 149.064138 -160.200223 
L 149.333784 -160.086733 
L 149.603431 -159.974486 
L 149.873078 -159.86353 
L 150.142724 -159.753918 
L 150.412371 -159.645699 
L 150.682018 -159.538923 
L 150.951664 -159.433642 
L 151.221311 -159.329907 
L 151.490957 -159.227768 
L 151.760604 -159.127277 
L 152.030251 -159.028485 
L 152.299897 -158.931444 
L 152.569544 -158.836204 
L 152.839191 -158.742818 
L 153.108837 -158.651336 
L 153.378484 -158.561811 
L 153.64813 -158.474293 
L 153.917777 -158.388835 
L 154.187424 -158.305488 
L 154.45707 -158.224304 
L 154.726717 -158.145333 
L 154.996364 -158.068628 
L 155.26601 -157.99424 
L 155.535657 -157.92222 
L 155.805304 -157.852619 
L 156.07495 -157.785489 
L 156.344597 -157.720881 
L 156.614243 -157.658844 
L 156.88389 -157.599431 
L 157.153537 -157.542691 
L 157.423183 -157.488675 
L 157.69283 -157.437433 
L 157.962477 -157.389015 
L 158.232123 -157.34347 
L 158.50177 -157.300849 
L 158.771416 -157.2612 
L 159.041063 -157.224573 
L 159.31071 -157.191015 
L 159.580356 -157.160577 
L 159.850003 -157.133304 
L 160.11965 -157.109246 
L 160.389296 -157.08845 
L 160.658943 -157.070963 
L 160.92859 -157.056831 
L 161.198236 -157.046102 
L 161.467883 -157.03882 
L 161.737529 -157.035031 
L 162.007176 -157.034781 
L 162.276823 -157.038114 
L 162.546469 -157.045075 
L 162.816116 -157.055707 
L 163.085763 -157.070053 
L 163.355409 -157.088156 
L 163.625056 -157.110058 
L 163.894703 -157.135802 
L 164.164349 -157.165428 
L 164.433996 -157.198977 
L 164.703642 -157.236489 
L 164.973289 -157.278004 
L 165.242936 -157.32356 
L 165.512582 -157.373196 
L 165.782229 -157.42695 
L 166.051876 -157.484858 
L 166.321522 -157.546957 
L 166.591169 -157.613283 
L 166.860815 -157.683871 
L 167.130462 -157.758755 
L 167.400109 -157.837969 
L 167.669755 -157.921545 
L 167.939402 -158.009517 
L 168.209049 -158.101916 
L 168.478695 -158.198772 
L 168.748342 -158.300116 
L 169.017989 -158.405976 
L 169.287635 -158.516382 
L 169.557282 -158.63136 
L 169.826928 -158.750939 
L 170.096575 -158.875143 
L 170.366222 -159.003998 
L 170.635868 -159.137529 
L 170.905515 -159.275759 
L 171.175162 -159.41871 
L 171.444808 -159.566405 
L 171.714455 -159.718864 
L 171.984101 -159.876108 
L 172.253748 -160.038155 
L 172.523395 -160.205024 
L 172.793041 -160.376731 
L 173.062688 -160.553294 
L 173.332335 -160.734728 
L 173.601981 -160.921047 
L 173.871628 -161.112264 
L 174.141275 -161.308393 
L 174.410921 -161.509444 
L 174.680568 -161.715429 
L 174.950214 -161.926356 
L 175.219861 -162.142235 
L 175.489508 -162.363073 
L 175.759154 -162.588876 
L 176.028801 -162.819651 
L 176.298448 -163.055401 
L 176.568094 -163.29613 
L 176.837741 -163.54184 
L 177.107387 -163.792533 
L 177.377034 -164.048209 
L 177.646681 -164.308868 
L 177.916327 -164.574507 
L 178.185974 -164.845123 
L 178.455621 -165.120714 
L 178.725267 -165.401272 
L 178.725267 -169.360355 
L 178.725267 -169.360355 
L 178.455621 -169.360355 
L 178.185974 -169.360355 
L 177.916327 -169.360355 
L 177.646681 -169.360355 
L 177.377034 -169.360355 
L 177.107387 -169.360355 
L 176.837741 -169.360355 
L 176.568094 -169.360355 
L 176.298448 -169.360355 
L 176.028801 -169.360355 
L 175.759154 -169.360355 
L 175.489508 -169.360355 
L 175.219861 -169.360355 
L 174.950214 -169.360355 
L 174.680568 -169.360355 
L 174.410921 -169.360355 
L 174.141275 -169.360355 
L 173.871628 -169.360355 
L 173.601981 -169.360355 
L 173.332335 -169.360355 
L 173.062688 -169.360355 
L 172.793041 -169.360355 
L 172.523395 -169.360355 
L 172.253748 -169.360355 
L 171.984101 -169.360355 
L 171.714455 -169.360355 
L 171.444808 -169.360355 
L 171.175162 -169.360355 
L 170.905515 -169.360355 
L 170.635868 -169.360355 
L 170.366222 -169.360355 
L 170.096575 -169.360355 
L 169.826928 -169.360355 
L 169.557282 -169.360355 
L 169.287635 -169.360355 
L 169.017989 -169.360355 
L 168.748342 -169.360355 
L 168.478695 -169.360355 
L 168.209049 -169.360355 
L 167.939402 -169.360355 
L 167.669755 -169.360355 
L 167.400109 -169.360355 
L 167.130462 -169.360355 
L 166.860815 -169.360355 
L 166.591169 -169.360355 
L 166.321522 -169.360355 
L 166.051876 -169.360355 
L 165.782229 -169.360355 
L 165.512582 -169.360355 
L 165.242936 -169.360355 
L 164.973289 -169.360355 
L 164.703642 -169.360355 
L 164.433996 -169.360355 
L 164.164349 -169.360355 
L 163.894703 -169.360355 
L 163.625056 -169.360355 
L 163.355409 -169.360355 
L 163.085763 -169.360355 
L 162.816116 -169.360355 
L 162.546469 -169.360355 
L 162.276823 -169.360355 
L 162.007176 -169.360355 
L 161.737529 -169.360355 
L 161.467883 -169.360355 
L 161.198236 -169.360355 
L 160.92859 -169.360355 
L 160.658943 -169.360355 
L 160.389296 -169.360355 
L 160.11965 -169.360355 
L 159.850003 -169.360355 
L 159.580356 -169.360355 
L 159.31071 -169.360355 
L 159.041063 -169.360355 
L 158.771416 -169.360355 
L 158.50177 -169.360355 
L 158.232123 -169.360355 
L 157.962477 -169.360355 
L 157.69283 -169.360355 
L 157.423183 -169.360355 
L 157.153537 -169.360355 
L 156.88389 -169.360355 
L 156.614243 -169.360355 
L 156.344597 -169.360355 
L 156.07495 -169.360355 
L 155.805304 -169.360355 
L 155.535657 -169.360355 
L 155.26601 -169.360355 
L 154.996364 -169.360355 
L 154.726717 -169.360355 
L 154.45707 -169.360355 
L 154.187424 -169.360355 
L 153.917777 -169.360355 
L 153.64813 -169.360355 
L 153.378484 -169.360355 
L 153.108837 -169.360355 
L 152.839191 -169.360355 
L 152.569544 -169.360355 
L 152.299897 -169.360355 
L 152.030251 -169.360355 
L 151.760604 -169.360355 
L 151.490957 -169.360355 
L 151.221311 -169.360355 
L 150.951664 -169.360355 
L 150.682018 -169.360355 
L 150.412371 -169.360355 
L 150.142724 -169.360355 
L 149.873078 -169.360355 
L 149.603431 -169.360355 
L 149.333784 -169.360355 
L 149.064138 -169.360355 
L 148.794491 -169.360355 
L 148.524844 -169.360355 
L 148.255198 -169.360355 
L 147.985551 -169.360355 
L 147.715905 -169.360355 
L 147.446258 -169.360355 
L 147.176611 -169.360355 
L 146.906965 -169.360355 
L 146.637318 -169.360355 
L 146.367671 -169.360355 
L 146.098025 -169.360355 
L 145.828378 -169.360355 
L 145.558732 -169.360355 
L 145.289085 -169.360355 
L 145.019438 -169.360355 
L 144.749792 -169.360355 
L 144.480145 -169.360355 
L 144.210498 -169.360355 
L 143.940852 -169.360355 
L 143.671205 -169.360355 
L 143.401558 -169.360355 
L 143.131912 -169.360355 
L 142.862265 -169.360355 
L 142.592619 -169.360355 
L 142.322972 -169.360355 
L 142.053325 -169.360355 
L 141.783679 -169.360355 
L 141.514032 -169.360355 
L 141.244385 -169.360355 
L 140.974739 -169.360355 
L 140.705092 -169.360355 
L 140.435445 -169.360355 
L 140.165799 -169.360355 
L 139.896152 -169.360355 
L 139.626506 -169.360355 
L 139.356859 -169.360355 
L 139.087212 -169.360355 
L 138.817566 -169.360355 
L 138.547919 -169.360355 
L 138.278272 -169.360355 
L 138.008626 -169.360355 
L 137.738979 -169.360355 
L 137.469333 -169.360355 
L 137.199686 -169.360355 
L 136.930039 -169.360355 
L 136.660393 -169.360355 
L 136.390746 -169.360355 
L 136.121099 -169.360355 
L 135.851453 -169.360355 
L 135.581806 -169.360355 
L 135.312159 -169.360355 
L 135.042513 -169.360355 
L 134.772866 -169.360355 
L 134.50322 -169.360355 
L 134.233573 -169.360355 
L 133.963926 -169.360355 
L 133.69428 -169.360355 
L 133.424633 -169.360355 
L 133.154986 -169.360355 
L 132.88534 -169.360355 
L 132.615693 -169.360355 
L 132.346047 -169.360355 
L 132.0764 -169.360355 
L 131.806753 -169.360355 
L 131.537107 -169.360355 
L 131.26746 -169.360355 
L 130.997813 -169.360355 
L 130.728167 -169.360355 
L 130.45852 -169.360355 
L 130.188873 -169.360355 
L 129.919227 -169.360355 
L 129.64958 -169.360355 
L 129.379934 -169.360355 
L 129.110287 -169.360355 
L 128.84064 -169.360355 
L 128.570994 -169.360355 
L 128.301347 -169.360355 
L 128.0317 -169.360355 
L 127.762054 -169.360355 
L 127.492407 -169.360355 
L 127.22276 -169.360355 
L 126.953114 -169.360355 
L 126.683467 -169.360355 
L 126.413821 -169.360355 
L 126.144174 -169.360355 
L 125.874527 -169.360355 
L 125.604881 -169.360355 
L 125.335234 -169.360355 
L 125.065587 -169.360355 
L 124.795941 -169.360355 
L 124.526294 -169.360355 
L 124.256648 -169.360355 
L 123.987001 -169.360355 
L 123.717354 -169.360355 
L 123.447708 -169.360355 
L 123.178061 -169.360355 
L 122.908414 -169.360355 
L 122.638768 -169.360355 
L 122.369121 -169.360355 
L 122.099474 -169.360355 
z
" style="stroke: #ffa256; stroke-opacity: 0.3"/>
    </defs>
    <g clip-path="url(#pb5bd6a72ac)">
     <use xlink:href="#mee84376597" x="0" y="345.6" style="fill: #ffa256; fill-opacity: 0.3; stroke: #ffa256; stroke-opacity: 0.3"/>
    </g>
   </g>
   <g id="FillBetweenPolyCollection_4">
    <defs>
     <path id="mdee0dd8f28" d="M 178.994914 -169.360355 
L 178.994914 -165.686794 
L 179.264561 -165.97727 
L 179.534207 -166.272694 
L 179.803854 -166.573055 
L 180.0735 -166.878343 
L 180.343147 -167.188546 
L 180.612794 -167.503652 
L 180.88244 -167.823647 
L 181.152087 -168.148516 
L 181.421734 -168.478242 
L 181.69138 -168.81281 
L 181.961027 -169.152199 
L 182.230674 -169.496392 
L 182.50032 -169.845367 
L 182.769967 -170.199103 
L 183.039613 -170.557577 
L 183.30926 -170.920765 
L 183.578907 -171.288642 
L 183.848553 -171.661183 
L 184.1182 -172.038359 
L 184.387847 -172.420142 
L 184.657493 -172.806504 
L 184.92714 -173.197413 
L 185.196786 -173.592837 
L 185.466433 -173.992745 
L 185.73608 -174.397101 
L 186.005726 -174.805871 
L 186.275373 -175.219019 
L 186.54502 -175.636508 
L 186.814666 -176.058299 
L 187.084313 -176.484353 
L 187.35396 -176.914629 
L 187.623606 -177.349087 
L 187.893253 -177.787682 
L 188.162899 -178.230371 
L 188.432546 -178.677111 
L 188.702193 -179.127854 
L 188.971839 -179.582554 
L 189.241486 -180.041162 
L 189.511133 -180.503631 
L 189.780779 -180.96991 
L 190.050426 -181.439947 
L 190.320072 -181.913691 
L 190.589719 -182.391089 
L 190.859366 -182.872086 
L 191.129012 -183.356627 
L 191.398659 -183.844657 
L 191.668306 -184.336118 
L 191.937952 -184.830952 
L 192.207599 -185.3291 
L 192.477246 -185.830502 
L 192.746892 -186.335097 
L 193.016539 -186.842824 
L 193.286185 -187.35362 
L 193.555832 -187.86742 
L 193.825479 -188.384161 
L 194.095125 -188.903777 
L 194.364772 -189.426201 
L 194.634419 -189.951366 
L 194.904065 -190.479205 
L 195.173712 -191.009648 
L 195.443359 -191.542626 
L 195.713005 -192.078067 
L 195.982652 -192.615901 
L 196.252298 -193.156056 
L 196.521945 -193.698458 
L 196.791592 -194.243033 
L 197.061238 -194.789708 
L 197.330885 -195.338407 
L 197.600532 -195.889054 
L 197.870178 -196.441573 
L 198.139825 -196.995886 
L 198.409471 -197.551914 
L 198.679118 -198.109581 
L 198.948765 -198.668805 
L 199.218411 -199.229507 
L 199.488058 -199.791607 
L 199.757705 -200.355023 
L 200.027351 -200.919674 
L 200.296998 -201.485477 
L 200.566645 -202.052349 
L 200.836291 -202.620207 
L 201.105938 -203.188966 
L 201.375584 -203.758543 
L 201.645231 -204.328852 
L 201.914878 -204.899809 
L 202.184524 -205.471326 
L 202.454171 -206.043318 
L 202.723818 -206.615697 
L 202.993464 -207.188378 
L 203.263111 -207.761272 
L 203.532757 -208.334291 
L 203.802404 -208.907347 
L 204.072051 -209.480352 
L 204.341697 -210.053216 
L 204.611344 -210.625851 
L 204.880991 -211.198167 
L 205.150637 -211.770074 
L 205.420284 -212.341483 
L 205.689931 -212.912303 
L 205.959577 -213.482443 
L 206.229224 -214.051815 
L 206.49887 -214.620326 
L 206.768517 -215.187885 
L 207.038164 -215.754403 
L 207.30781 -216.319788 
L 207.577457 -216.883948 
L 207.847104 -217.446793 
L 208.11675 -218.008231 
L 208.386397 -218.568172 
L 208.656043 -219.126523 
L 208.92569 -219.683195 
L 209.195337 -220.238094 
L 209.464983 -220.791131 
L 209.73463 -221.342215 
L 210.004277 -221.891254 
L 210.273923 -222.438157 
L 210.54357 -222.982834 
L 210.813217 -223.525195 
L 211.082863 -224.065148 
L 211.35251 -224.602605 
L 211.622156 -225.137474 
L 211.891803 -225.669667 
L 212.16145 -226.199093 
L 212.431096 -226.725664 
L 212.700743 -227.249291 
L 212.97039 -227.769884 
L 213.240036 -228.287357 
L 213.509683 -228.801621 
L 213.77933 -229.312589 
L 214.048976 -229.820173 
L 214.318623 -230.324287 
L 214.588269 -230.824845 
L 214.857916 -231.321761 
L 215.127563 -231.814949 
L 215.397209 -232.304325 
L 215.666856 -232.789805 
L 215.936503 -233.271304 
L 216.206149 -233.74874 
L 216.475796 -234.22203 
L 216.745442 -234.691091 
L 217.015089 -235.155843 
L 217.015089 -169.360355 
L 217.015089 -169.360355 
L 216.745442 -169.360355 
L 216.475796 -169.360355 
L 216.206149 -169.360355 
L 215.936503 -169.360355 
L 215.666856 -169.360355 
L 215.397209 -169.360355 
L 215.127563 -169.360355 
L 214.857916 -169.360355 
L 214.588269 -169.360355 
L 214.318623 -169.360355 
L 214.048976 -169.360355 
L 213.77933 -169.360355 
L 213.509683 -169.360355 
L 213.240036 -169.360355 
L 212.97039 -169.360355 
L 212.700743 -169.360355 
L 212.431096 -169.360355 
L 212.16145 -169.360355 
L 211.891803 -169.360355 
L 211.622156 -169.360355 
L 211.35251 -169.360355 
L 211.082863 -169.360355 
L 210.813217 -169.360355 
L 210.54357 -169.360355 
L 210.273923 -169.360355 
L 210.004277 -169.360355 
L 209.73463 -169.360355 
L 209.464983 -169.360355 
L 209.195337 -169.360355 
L 208.92569 -169.360355 
L 208.656043 -169.360355 
L 208.386397 -169.360355 
L 208.11675 -169.360355 
L 207.847104 -169.360355 
L 207.577457 -169.360355 
L 207.30781 -169.360355 
L 207.038164 -169.360355 
L 206.768517 -169.360355 
L 206.49887 -169.360355 
L 206.229224 -169.360355 
L 205.959577 -169.360355 
L 205.689931 -169.360355 
L 205.420284 -169.360355 
L 205.150637 -169.360355 
L 204.880991 -169.360355 
L 204.611344 -169.360355 
L 204.341697 -169.360355 
L 204.072051 -169.360355 
L 203.802404 -169.360355 
L 203.532757 -169.360355 
L 203.263111 -169.360355 
L 202.993464 -169.360355 
L 202.723818 -169.360355 
L 202.454171 -169.360355 
L 202.184524 -169.360355 
L 201.914878 -169.360355 
L 201.645231 -169.360355 
L 201.375584 -169.360355 
L 201.105938 -169.360355 
L 200.836291 -169.360355 
L 200.566645 -169.360355 
L 200.296998 -169.360355 
L 200.027351 -169.360355 
L 199.757705 -169.360355 
L 199.488058 -169.360355 
L 199.218411 -169.360355 
L 198.948765 -169.360355 
L 198.679118 -169.360355 
L 198.409471 -169.360355 
L 198.139825 -169.360355 
L 197.870178 -169.360355 
L 197.600532 -169.360355 
L 197.330885 -169.360355 
L 197.061238 -169.360355 
L 196.791592 -169.360355 
L 196.521945 -169.360355 
L 196.252298 -169.360355 
L 195.982652 -169.360355 
L 195.713005 -169.360355 
L 195.443359 -169.360355 
L 195.173712 -169.360355 
L 194.904065 -169.360355 
L 194.634419 -169.360355 
L 194.364772 -169.360355 
L 194.095125 -169.360355 
L 193.825479 -169.360355 
L 193.555832 -169.360355 
L 193.286185 -169.360355 
L 193.016539 -169.360355 
L 192.746892 -169.360355 
L 192.477246 -169.360355 
L 192.207599 -169.360355 
L 191.937952 -169.360355 
L 191.668306 -169.360355 
L 191.398659 -169.360355 
L 191.129012 -169.360355 
L 190.859366 -169.360355 
L 190.589719 -169.360355 
L 190.320072 -169.360355 
L 190.050426 -169.360355 
L 189.780779 -169.360355 
L 189.511133 -169.360355 
L 189.241486 -169.360355 
L 188.971839 -169.360355 
L 188.702193 -169.360355 
L 188.432546 -169.360355 
L 188.162899 -169.360355 
L 187.893253 -169.360355 
L 187.623606 -169.360355 
L 187.35396 -169.360355 
L 187.084313 -169.360355 
L 186.814666 -169.360355 
L 186.54502 -169.360355 
L 186.275373 -169.360355 
L 186.005726 -169.360355 
L 185.73608 -169.360355 
L 185.466433 -169.360355 
L 185.196786 -169.360355 
L 184.92714 -169.360355 
L 184.657493 -169.360355 
L 184.387847 -169.360355 
L 184.1182 -169.360355 
L 183.848553 -169.360355 
L 183.578907 -169.360355 
L 183.30926 -169.360355 
L 183.039613 -169.360355 
L 182.769967 -169.360355 
L 182.50032 -169.360355 
L 182.230674 -169.360355 
L 181.961027 -169.360355 
L 181.69138 -169.360355 
L 181.421734 -169.360355 
L 181.152087 -169.360355 
L 180.88244 -169.360355 
L 180.612794 -169.360355 
L 180.343147 -169.360355 
L 180.0735 -169.360355 
L 179.803854 -169.360355 
L 179.534207 -169.360355 
L 179.264561 -169.360355 
L 178.994914 -169.360355 
z
" style="stroke: #d5dd7f; stroke-opacity: 0.3"/>
    </defs>
    <g clip-path="url(#pb5bd6a72ac)">
     <use xlink:href="#mdee0dd8f28" x="0" y="345.6" style="fill: #d5dd7f; fill-opacity: 0.3; stroke: #d5dd7f; stroke-opacity: 0.3"/>
    </g>
   </g>
   <g id="FillBetweenPolyCollection_5">
    <defs>
     <path id="m4def56bd12" d="M 217.284736 -169.360355 
L 217.284736 -235.616205 
L 217.554382 -236.072096 
L 217.824029 -236.523437 
L 218.093676 -236.970149 
L 218.363322 -237.412154 
L 218.632969 -237.849375 
L 218.902616 -238.281734 
L 219.172262 -238.709157 
L 219.441909 -239.131567 
L 219.711555 -239.548891 
L 219.981202 -239.961054 
L 220.250849 -240.367984 
L 220.520495 -240.76961 
L 220.790142 -241.16586 
L 221.059789 -241.556664 
L 221.329435 -241.941952 
L 221.599082 -242.321657 
L 221.868728 -242.69571 
L 222.138375 -243.064045 
L 222.408022 -243.426597 
L 222.677668 -243.783302 
L 222.947315 -244.134094 
L 223.216962 -244.478912 
L 223.486608 -244.817694 
L 223.756255 -245.15038 
L 224.025902 -245.476909 
L 224.295548 -245.797224 
L 224.565195 -246.111266 
L 224.834841 -246.41898 
L 225.104488 -246.72031 
L 225.374135 -247.015202 
L 225.643781 -247.303603 
L 225.913428 -247.58546 
L 226.183075 -247.860724 
L 226.452721 -248.129344 
L 226.722368 -248.391272 
L 226.992014 -248.64646 
L 227.261661 -248.894863 
L 227.531308 -249.136436 
L 227.800954 -249.371135 
L 228.070601 -249.598916 
L 228.340248 -249.81974 
L 228.609894 -250.033566 
L 228.879541 -250.240355 
L 229.149188 -250.44007 
L 229.418834 -250.632674 
L 229.688481 -250.818133 
L 229.958127 -250.996412 
L 230.227774 -251.16748 
L 230.497421 -251.331305 
L 230.767067 -251.487858 
L 231.036714 -251.637109 
L 231.306361 -251.779032 
L 231.576007 -251.913601 
L 231.845654 -252.040791 
L 232.115301 -252.160579 
L 232.384947 -252.272944 
L 232.654594 -252.377864 
L 232.92424 -252.475322 
L 233.193887 -252.565298 
L 233.463534 -252.647776 
L 233.73318 -252.722742 
L 234.002827 -252.790182 
L 234.272474 -252.850083 
L 234.54212 -252.902434 
L 234.811767 -252.947227 
L 235.081413 -252.984452 
L 235.35106 -253.014103 
L 235.620707 -253.036174 
L 235.890353 -253.050662 
L 236.16 -253.057564 
L 236.429647 -253.056879 
L 236.699293 -253.048606 
L 236.96894 -253.032747 
L 237.238587 -253.009305 
L 237.508233 -252.978285 
L 237.77788 -252.939692 
L 238.047526 -252.893533 
L 238.317173 -252.839816 
L 238.58682 -252.778552 
L 238.856466 -252.709751 
L 239.126113 -252.633426 
L 239.39576 -252.549591 
L 239.665406 -252.458262 
L 239.935053 -252.359455 
L 240.204699 -252.253188 
L 240.474346 -252.13948 
L 240.743993 -252.018352 
L 241.013639 -251.889827 
L 241.283286 -251.753927 
L 241.552933 -251.610677 
L 241.822579 -251.460105 
L 242.092226 -251.302236 
L 242.361873 -251.1371 
L 242.631519 -250.964726 
L 242.901166 -250.785147 
L 243.170812 -250.598394 
L 243.440459 -250.404502 
L 243.710106 -250.203506 
L 243.979752 -249.995443 
L 244.249399 -249.780349 
L 244.519046 -249.558265 
L 244.788692 -249.32923 
L 245.058339 -249.093286 
L 245.327986 -248.850476 
L 245.597632 -248.600843 
L 245.867279 -248.344433 
L 246.136925 -248.081292 
L 246.406572 -247.811468 
L 246.676219 -247.535009 
L 246.945865 -247.251965 
L 247.215512 -246.962387 
L 247.485159 -246.666328 
L 247.754805 -246.36384 
L 248.024452 -246.054978 
L 248.294098 -245.739798 
L 248.563745 -245.418356 
L 248.833392 -245.09071 
L 249.103038 -244.756918 
L 249.372685 -244.417041 
L 249.642332 -244.071138 
L 249.911978 -243.719273 
L 250.181625 -243.361507 
L 250.181625 -169.360355 
L 250.181625 -169.360355 
L 249.911978 -169.360355 
L 249.642332 -169.360355 
L 249.372685 -169.360355 
L 249.103038 -169.360355 
L 248.833392 -169.360355 
L 248.563745 -169.360355 
L 248.294098 -169.360355 
L 248.024452 -169.360355 
L 247.754805 -169.360355 
L 247.485159 -169.360355 
L 247.215512 -169.360355 
L 246.945865 -169.360355 
L 246.676219 -169.360355 
L 246.406572 -169.360355 
L 246.136925 -169.360355 
L 245.867279 -169.360355 
L 245.597632 -169.360355 
L 245.327986 -169.360355 
L 245.058339 -169.360355 
L 244.788692 -169.360355 
L 244.519046 -169.360355 
L 244.249399 -169.360355 
L 243.979752 -169.360355 
L 243.710106 -169.360355 
L 243.440459 -169.360355 
L 243.170812 -169.360355 
L 242.901166 -169.360355 
L 242.631519 -169.360355 
L 242.361873 -169.360355 
L 242.092226 -169.360355 
L 241.822579 -169.360355 
L 241.552933 -169.360355 
L 241.283286 -169.360355 
L 241.013639 -169.360355 
L 240.743993 -169.360355 
L 240.474346 -169.360355 
L 240.204699 -169.360355 
L 239.935053 -169.360355 
L 239.665406 -169.360355 
L 239.39576 -169.360355 
L 239.126113 -169.360355 
L 238.856466 -169.360355 
L 238.58682 -169.360355 
L 238.317173 -169.360355 
L 238.047526 -169.360355 
L 237.77788 -169.360355 
L 237.508233 -169.360355 
L 237.238587 -169.360355 
L 236.96894 -169.360355 
L 236.699293 -169.360355 
L 236.429647 -169.360355 
L 236.16 -169.360355 
L 235.890353 -169.360355 
L 235.620707 -169.360355 
L 235.35106 -169.360355 
L 235.081413 -169.360355 
L 234.811767 -169.360355 
L 234.54212 -169.360355 
L 234.272474 -169.360355 
L 234.002827 -169.360355 
L 233.73318 -169.360355 
L 233.463534 -169.360355 
L 233.193887 -169.360355 
L 232.92424 -169.360355 
L 232.654594 -169.360355 
L 232.384947 -169.360355 
L 232.115301 -169.360355 
L 231.845654 -169.360355 
L 231.576007 -169.360355 
L 231.306361 -169.360355 
L 231.036714 -169.360355 
L 230.767067 -169.360355 
L 230.497421 -169.360355 
L 230.227774 -169.360355 
L 229.958127 -169.360355 
L 229.688481 -169.360355 
L 229.418834 -169.360355 
L 229.149188 -169.360355 
L 228.879541 -169.360355 
L 228.609894 -169.360355 
L 228.340248 -169.360355 
L 228.070601 -169.360355 
L 227.800954 -169.360355 
L 227.531308 -169.360355 
L 227.261661 -169.360355 
L 226.992014 -169.360355 
L 226.722368 -169.360355 
L 226.452721 -169.360355 
L 226.183075 -169.360355 
L 225.913428 -169.360355 
L 225.643781 -169.360355 
L 225.374135 -169.360355 
L 225.104488 -169.360355 
L 224.834841 -169.360355 
L 224.565195 -169.360355 
L 224.295548 -169.360355 
L 224.025902 -169.360355 
L 223.756255 -169.360355 
L 223.486608 -169.360355 
L 223.216962 -169.360355 
L 222.947315 -169.360355 
L 222.677668 -169.360355 
L 222.408022 -169.360355 
L 222.138375 -169.360355 
L 221.868728 -169.360355 
L 221.599082 -169.360355 
L 221.329435 -169.360355 
L 221.059789 -169.360355 
L 220.790142 -169.360355 
L 220.520495 -169.360355 
L 220.250849 -169.360355 
L 219.981202 -169.360355 
L 219.711555 -169.360355 
L 219.441909 -169.360355 
L 219.172262 -169.360355 
L 218.902616 -169.360355 
L 218.632969 -169.360355 
L 218.363322 -169.360355 
L 218.093676 -169.360355 
L 217.824029 -169.360355 
L 217.554382 -169.360355 
L 217.284736 -169.360355 
z
" style="stroke: #9cfba4; stroke-opacity: 0.3"/>
    </defs>
    <g clip-path="url(#pb5bd6a72ac)">
     <use xlink:href="#m4def56bd12" x="0" y="345.6" style="fill: #9cfba4; fill-opacity: 0.3; stroke: #9cfba4; stroke-opacity: 0.3"/>
    </g>
   </g>
   <g id="FillBetweenPolyCollection_6">
    <defs>
     <path id="m608fce6eb3" d="M 250.451272 -169.360355 
L 250.451272 -242.997905 
L 250.720918 -242.628531 
L 250.990565 -242.253452 
L 251.260211 -241.872733 
L 251.529858 -241.486443 
L 251.799505 -241.09465 
L 252.069151 -240.697423 
L 252.338798 -240.294833 
L 252.608445 -239.886952 
L 252.878091 -239.473851 
L 253.147738 -239.055602 
L 253.417384 -238.632281 
L 253.687031 -238.203961 
L 253.956678 -237.770717 
L 254.226324 -237.332626 
L 254.495971 -236.889764 
L 254.765618 -236.44221 
L 255.035264 -235.990041 
L 255.304911 -235.533336 
L 255.574558 -235.072175 
L 255.844204 -234.606638 
L 256.113851 -234.136806 
L 256.383497 -233.662761 
L 256.653144 -233.184584 
L 256.922791 -232.702359 
L 257.192437 -232.216169 
L 257.462084 -231.726098 
L 257.731731 -231.23223 
L 258.001377 -230.73465 
L 258.271024 -230.233443 
L 258.54067 -229.728695 
L 258.810317 -229.220493 
L 259.079964 -228.708923 
L 259.34961 -228.194073 
L 259.619257 -227.67603 
L 259.888904 -227.154881 
L 260.15855 -226.630716 
L 260.428197 -226.103622 
L 260.697844 -225.57369 
L 260.96749 -225.041007 
L 261.237137 -224.505663 
L 261.506783 -223.967749 
L 261.77643 -223.427353 
L 262.046077 -222.884567 
L 262.315723 -222.339481 
L 262.58537 -221.792185 
L 262.855017 -221.24277 
L 263.124663 -220.691327 
L 263.39431 -220.137946 
L 263.663957 -219.58272 
L 263.933603 -219.025738 
L 264.20325 -218.467093 
L 264.472896 -217.906875 
L 264.742543 -217.345175 
L 265.01219 -216.782086 
L 265.281836 -216.217698 
L 265.551483 -215.652101 
L 265.82113 -215.085389 
L 266.090776 -214.51765 
L 266.360423 -213.948977 
L 266.630069 -213.37946 
L 266.899716 -212.80919 
L 267.169363 -212.238257 
L 267.439009 -211.666752 
L 267.708656 -211.094764 
L 267.978303 -210.522384 
L 268.247949 -209.949701 
L 268.517596 -209.376805 
L 268.787243 -208.803784 
L 269.056889 -208.230728 
L 269.326536 -207.657725 
L 269.596182 -207.084863 
L 269.865829 -206.51223 
L 270.135476 -205.939914 
L 270.405122 -205.368002 
L 270.674769 -204.79658 
L 270.944416 -204.225734 
L 271.214062 -203.655551 
L 271.483709 -203.086115 
L 271.753355 -202.517513 
L 272.023002 -201.949827 
L 272.292649 -201.383142 
L 272.562295 -200.817541 
L 272.831942 -200.253107 
L 273.101589 -199.689923 
L 273.371235 -199.12807 
L 273.640882 -198.567629 
L 273.910529 -198.00868 
L 274.180175 -197.451304 
L 274.449822 -196.895579 
L 274.449822 -169.360355 
L 274.449822 -169.360355 
L 274.180175 -169.360355 
L 273.910529 -169.360355 
L 273.640882 -169.360355 
L 273.371235 -169.360355 
L 273.101589 -169.360355 
L 272.831942 -169.360355 
L 272.562295 -169.360355 
L 272.292649 -169.360355 
L 272.023002 -169.360355 
L 271.753355 -169.360355 
L 271.483709 -169.360355 
L 271.214062 -169.360355 
L 270.944416 -169.360355 
L 270.674769 -169.360355 
L 270.405122 -169.360355 
L 270.135476 -169.360355 
L 269.865829 -169.360355 
L 269.596182 -169.360355 
L 269.326536 -169.360355 
L 269.056889 -169.360355 
L 268.787243 -169.360355 
L 268.517596 -169.360355 
L 268.247949 -169.360355 
L 267.978303 -169.360355 
L 267.708656 -169.360355 
L 267.439009 -169.360355 
L 267.169363 -169.360355 
L 266.899716 -169.360355 
L 266.630069 -169.360355 
L 266.360423 -169.360355 
L 266.090776 -169.360355 
L 265.82113 -169.360355 
L 265.551483 -169.360355 
L 265.281836 -169.360355 
L 265.01219 -169.360355 
L 264.742543 -169.360355 
L 264.472896 -169.360355 
L 264.20325 -169.360355 
L 263.933603 -169.360355 
L 263.663957 -169.360355 
L 263.39431 -169.360355 
L 263.124663 -169.360355 
L 262.855017 -169.360355 
L 262.58537 -169.360355 
L 262.315723 -169.360355 
L 262.046077 -169.360355 
L 261.77643 -169.360355 
L 261.506783 -169.360355 
L 261.237137 -169.360355 
L 260.96749 -169.360355 
L 260.697844 -169.360355 
L 260.428197 -169.360355 
L 260.15855 -169.360355 
L 259.888904 -169.360355 
L 259.619257 -169.360355 
L 259.34961 -169.360355 
L 259.079964 -169.360355 
L 258.810317 -169.360355 
L 258.54067 -169.360355 
L 258.271024 -169.360355 
L 258.001377 -169.360355 
L 257.731731 -169.360355 
L 257.462084 -169.360355 
L 257.192437 -169.360355 
L 256.922791 -169.360355 
L 256.653144 -169.360355 
L 256.383497 -169.360355 
L 256.113851 -169.360355 
L 255.844204 -169.360355 
L 255.574558 -169.360355 
L 255.304911 -169.360355 
L 255.035264 -169.360355 
L 254.765618 -169.360355 
L 254.495971 -169.360355 
L 254.226324 -169.360355 
L 253.956678 -169.360355 
L 253.687031 -169.360355 
L 253.417384 -169.360355 
L 253.147738 -169.360355 
L 252.878091 -169.360355 
L 252.608445 -169.360355 
L 252.338798 -169.360355 
L 252.069151 -169.360355 
L 251.799505 -169.360355 
L 251.529858 -169.360355 
L 251.260211 -169.360355 
L 250.990565 -169.360355 
L 250.720918 -169.360355 
L 250.451272 -169.360355 
z
" style="stroke: #62fbc4; stroke-opacity: 0.3"/>
    </defs>
    <g clip-path="url(#pb5bd6a72ac)">
     <use xlink:href="#m608fce6eb3" x="0" y="345.6" style="fill: #62fbc4; fill-opacity: 0.3; stroke: #62fbc4; stroke-opacity: 0.3"/>
    </g>
   </g>
   <g id="FillBetweenPolyCollection_7">
    <defs>
     <path id="m8776b41a82" d="M 274.719468 -169.360355 
L 274.719468 -196.341585 
L 274.989115 -195.789399 
L 275.258762 -195.239098 
L 275.528408 -194.690759 
L 275.798055 -194.144458 
L 276.067702 -193.60027 
L 276.337348 -193.058269 
L 276.606995 -192.518528 
L 276.876641 -191.981121 
L 277.146288 -191.44612 
L 277.415935 -190.913595 
L 277.685581 -190.383618 
L 277.955228 -189.856257 
L 278.224875 -189.331582 
L 278.494521 -188.80966 
L 278.764168 -188.290559 
L 279.033815 -187.774345 
L 279.303461 -187.261083 
L 279.573108 -186.750837 
L 279.842754 -186.243672 
L 280.112401 -185.739649 
L 280.382048 -185.23883 
L 280.651694 -184.741277 
L 280.921341 -184.247048 
L 281.190988 -183.756203 
L 281.460634 -183.268799 
L 281.730281 -182.784894 
L 281.999928 -182.304544 
L 282.269574 -181.827803 
L 282.539221 -181.354725 
L 282.808867 -180.885363 
L 283.078514 -180.419769 
L 283.348161 -179.957994 
L 283.617807 -179.500088 
L 283.887454 -179.0461 
L 284.157101 -178.596077 
L 284.426747 -178.150066 
L 284.696394 -177.708113 
L 284.96604 -177.270263 
L 285.235687 -176.836558 
L 285.505334 -176.407042 
L 285.77498 -175.981755 
L 286.044627 -175.560739 
L 286.314274 -175.144032 
L 286.58392 -174.731672 
L 286.853567 -174.323697 
L 287.123214 -173.920142 
L 287.39286 -173.521042 
L 287.662507 -173.126431 
L 287.932153 -172.736342 
L 288.2018 -172.350805 
L 288.471447 -171.969852 
L 288.741093 -171.593512 
L 289.01074 -171.221812 
L 289.280387 -170.854781 
L 289.550033 -170.492443 
L 289.81968 -170.134823 
L 290.089326 -169.781946 
L 290.358973 -169.433834 
L 290.62862 -169.090508 
L 290.898266 -168.751988 
L 291.167913 -168.418294 
L 291.43756 -168.089445 
L 291.707206 -167.765455 
L 291.976853 -167.446343 
L 292.2465 -167.132122 
L 292.516146 -166.822806 
L 292.785793 -166.518408 
L 293.055439 -166.218938 
L 293.325086 -165.924408 
L 293.594733 -165.634826 
L 293.864379 -165.350201 
L 294.134026 -165.07054 
L 294.403673 -164.795848 
L 294.673319 -164.526131 
L 294.942966 -164.261392 
L 295.212613 -164.001634 
L 295.482259 -163.746858 
L 295.751906 -163.497066 
L 296.021552 -163.252256 
L 296.291199 -163.012427 
L 296.560846 -162.777576 
L 296.830492 -162.5477 
L 297.100139 -162.322795 
L 297.369786 -162.102854 
L 297.639432 -161.88787 
L 297.909079 -161.677837 
L 298.178725 -161.472744 
L 298.448372 -161.272584 
L 298.718019 -161.077343 
L 298.987665 -160.887012 
L 299.257312 -160.701577 
L 299.526959 -160.521025 
L 299.796605 -160.345341 
L 300.066252 -160.174509 
L 300.335899 -160.008513 
L 300.605545 -159.847335 
L 300.875192 -159.690958 
L 301.144838 -159.539361 
L 301.414485 -159.392525 
L 301.684132 -159.250429 
L 301.953778 -159.11305 
L 302.223425 -158.980366 
L 302.493072 -158.852353 
L 302.762718 -158.728987 
L 303.032365 -158.610241 
L 303.302011 -158.496091 
L 303.571658 -158.386509 
L 303.841305 -158.281467 
L 304.110951 -158.180937 
L 304.110951 -169.360355 
L 304.110951 -169.360355 
L 303.841305 -169.360355 
L 303.571658 -169.360355 
L 303.302011 -169.360355 
L 303.032365 -169.360355 
L 302.762718 -169.360355 
L 302.493072 -169.360355 
L 302.223425 -169.360355 
L 301.953778 -169.360355 
L 301.684132 -169.360355 
L 301.414485 -169.360355 
L 301.144838 -169.360355 
L 300.875192 -169.360355 
L 300.605545 -169.360355 
L 300.335899 -169.360355 
L 300.066252 -169.360355 
L 299.796605 -169.360355 
L 299.526959 -169.360355 
L 299.257312 -169.360355 
L 298.987665 -169.360355 
L 298.718019 -169.360355 
L 298.448372 -169.360355 
L 298.178725 -169.360355 
L 297.909079 -169.360355 
L 297.639432 -169.360355 
L 297.369786 -169.360355 
L 297.100139 -169.360355 
L 296.830492 -169.360355 
L 296.560846 -169.360355 
L 296.291199 -169.360355 
L 296.021552 -169.360355 
L 295.751906 -169.360355 
L 295.482259 -169.360355 
L 295.212613 -169.360355 
L 294.942966 -169.360355 
L 294.673319 -169.360355 
L 294.403673 -169.360355 
L 294.134026 -169.360355 
L 293.864379 -169.360355 
L 293.594733 -169.360355 
L 293.325086 -169.360355 
L 293.055439 -169.360355 
L 292.785793 -169.360355 
L 292.516146 -169.360355 
L 292.2465 -169.360355 
L 291.976853 -169.360355 
L 291.707206 -169.360355 
L 291.43756 -169.360355 
L 291.167913 -169.360355 
L 290.898266 -169.360355 
L 290.62862 -169.360355 
L 290.358973 -169.360355 
L 290.089326 -169.360355 
L 289.81968 -169.360355 
L 289.550033 -169.360355 
L 289.280387 -169.360355 
L 289.01074 -169.360355 
L 288.741093 -169.360355 
L 288.471447 -169.360355 
L 288.2018 -169.360355 
L 287.932153 -169.360355 
L 287.662507 -169.360355 
L 287.39286 -169.360355 
L 287.123214 -169.360355 
L 286.853567 -169.360355 
L 286.58392 -169.360355 
L 286.314274 -169.360355 
L 286.044627 -169.360355 
L 285.77498 -169.360355 
L 285.505334 -169.360355 
L 285.235687 -169.360355 
L 284.96604 -169.360355 
L 284.696394 -169.360355 
L 284.426747 -169.360355 
L 284.157101 -169.360355 
L 283.887454 -169.360355 
L 283.617807 -169.360355 
L 283.348161 -169.360355 
L 283.078514 -169.360355 
L 282.808867 -169.360355 
L 282.539221 -169.360355 
L 282.269574 -169.360355 
L 281.999928 -169.360355 
L 281.730281 -169.360355 
L 281.460634 -169.360355 
L 281.190988 -169.360355 
L 280.921341 -169.360355 
L 280.651694 -169.360355 
L 280.382048 -169.360355 
L 280.112401 -169.360355 
L 279.842754 -169.360355 
L 279.573108 -169.360355 
L 279.303461 -169.360355 
L 279.033815 -169.360355 
L 278.764168 -169.360355 
L 278.494521 -169.360355 
L 278.224875 -169.360355 
L 277.955228 -169.360355 
L 277.685581 -169.360355 
L 277.415935 -169.360355 
L 277.146288 -169.360355 
L 276.876641 -169.360355 
L 276.606995 -169.360355 
L 276.337348 -169.360355 
L 276.067702 -169.360355 
L 275.798055 -169.360355 
L 275.528408 -169.360355 
L 275.258762 -169.360355 
L 274.989115 -169.360355 
L 274.719468 -169.360355 
z
" style="stroke: #2bdddd; stroke-opacity: 0.3"/>
    </defs>
    <g clip-path="url(#pb5bd6a72ac)">
     <use xlink:href="#m8776b41a82" x="0" y="345.6" style="fill: #2bdddd; fill-opacity: 0.3; stroke: #2bdddd; stroke-opacity: 0.3"/>
    </g>
   </g>
   <g id="FillBetweenPolyCollection_8">
    <defs>
     <path id="m7e10911c52" d="M 304.380598 -169.360355 
L 304.380598 -158.084888 
L 304.650245 -157.993292 
L 304.919891 -157.906117 
L 305.189538 -157.823331 
L 305.459185 -157.744902 
L 305.728831 -157.670797 
L 305.998478 -157.600982 
L 306.268124 -157.535423 
L 306.537771 -157.474084 
L 306.807418 -157.416929 
L 307.077064 -157.363922 
L 307.346711 -157.315026 
L 307.616358 -157.270203 
L 307.886004 -157.229415 
L 308.155651 -157.192622 
L 308.425297 -157.159785 
L 308.694944 -157.130863 
L 308.964591 -157.105817 
L 309.234237 -157.084604 
L 309.503884 -157.067183 
L 309.773531 -157.053511 
L 310.043177 -157.043547 
L 310.312824 -157.037245 
L 310.582471 -157.034563 
L 310.852117 -157.035455 
L 311.121764 -157.039879 
L 311.39141 -157.047787 
L 311.661057 -157.059135 
L 311.930704 -157.073876 
L 312.20035 -157.091965 
L 312.469997 -157.113354 
L 312.739644 -157.137996 
L 313.00929 -157.165845 
L 313.278937 -157.19685 
L 313.548584 -157.230966 
L 313.81823 -157.268143 
L 314.087877 -157.308333 
L 314.357523 -157.351486 
L 314.62717 -157.397554 
L 314.896817 -157.446486 
L 315.166463 -157.498233 
L 315.43611 -157.552745 
L 315.705757 -157.609972 
L 315.975403 -157.669863 
L 316.24505 -157.732368 
L 316.514696 -157.797436 
L 316.784343 -157.865016 
L 317.05399 -157.935058 
L 317.323636 -158.00751 
L 317.593283 -158.08232 
L 317.86293 -158.159439 
L 318.132576 -158.238813 
L 318.402223 -158.320392 
L 318.67187 -158.404125 
L 318.941516 -158.489959 
L 319.211163 -158.577843 
L 319.480809 -158.667726 
L 319.750456 -158.759555 
L 320.020103 -158.85328 
L 320.289749 -158.94885 
L 320.559396 -159.046211 
L 320.829043 -159.145314 
L 321.098689 -159.246106 
L 321.368336 -159.348538 
L 321.637982 -159.452556 
L 321.907629 -159.558111 
L 322.177276 -159.665151 
L 322.446922 -159.773626 
L 322.716569 -159.883485 
L 322.986216 -159.994677 
L 323.255862 -160.107153 
L 323.525509 -160.220862 
L 323.795156 -160.335754 
L 324.064802 -160.45178 
L 324.334449 -160.568891 
L 324.604095 -160.687036 
L 324.873742 -160.806167 
L 325.143389 -160.926235 
L 325.413035 -161.047192 
L 325.682682 -161.16899 
L 325.952329 -161.291581 
L 326.221975 -161.414916 
L 326.491622 -161.53895 
L 326.761268 -161.663634 
L 327.030915 -161.788923 
L 327.300562 -161.914769 
L 327.570208 -162.041128 
L 327.839855 -162.167953 
L 328.109502 -162.2952 
L 328.379148 -162.422823 
L 328.648795 -162.550778 
L 328.918442 -162.679021 
L 329.188088 -162.807509 
L 329.457735 -162.936198 
L 329.727381 -163.065045 
L 329.997028 -163.194009 
L 330.266675 -163.323047 
L 330.536321 -163.452118 
L 330.805968 -163.58118 
L 331.075615 -163.710194 
L 331.345261 -163.83912 
L 331.614908 -163.967917 
L 331.884555 -164.096547 
L 332.154201 -164.224971 
L 332.423848 -164.353151 
L 332.693494 -164.481049 
L 332.963141 -164.608629 
L 333.232788 -164.735854 
L 333.502434 -164.862688 
L 333.772081 -164.989095 
L 334.041728 -165.115041 
L 334.311374 -165.240491 
L 334.581021 -165.365412 
L 334.850667 -165.489769 
L 335.120314 -165.613531 
L 335.389961 -165.736665 
L 335.659607 -165.859139 
L 335.929254 -165.980923 
L 336.198901 -166.101987 
L 336.468547 -166.222299 
L 336.738194 -166.341832 
L 337.007841 -166.460556 
L 337.277487 -166.578443 
L 337.547134 -166.695466 
L 337.81678 -166.811597 
L 338.086427 -166.926811 
L 338.356074 -167.041082 
L 338.62572 -167.154385 
L 338.895367 -167.266695 
L 339.165014 -167.377988 
L 339.43466 -167.488241 
L 339.704307 -167.597432 
L 339.973953 -167.705538 
L 340.2436 -167.812537 
L 340.513247 -167.91841 
L 340.782893 -168.023135 
L 341.05254 -168.126694 
L 341.322187 -168.229067 
L 341.591833 -168.330235 
L 341.86148 -168.430182 
L 342.131127 -168.528889 
L 342.400773 -168.626341 
L 342.67042 -168.722522 
L 342.940066 -168.817415 
L 343.209713 -168.911007 
L 343.47936 -169.003283 
L 343.749006 -169.09423 
L 344.018653 -169.183835 
L 344.2883 -169.272086 
L 344.557946 -169.35897 
L 344.827593 -169.444478 
L 345.09724 -169.528598 
L 345.366886 -169.611321 
L 345.636533 -169.692637 
L 345.906179 -169.772538 
L 346.175826 -169.851016 
L 346.445473 -169.928062 
L 346.715119 -170.003671 
L 346.984766 -170.077835 
L 347.254413 -170.15055 
L 347.524059 -170.221809 
L 347.793706 -170.291609 
L 348.063352 -170.359944 
L 348.332999 -170.426813 
L 348.602646 -170.492211 
L 348.872292 -170.556136 
L 349.141939 -170.618586 
L 349.411586 -170.679561 
L 349.681232 -170.739059 
L 349.950879 -170.797079 
L 350.220526 -170.853623 
L 350.490172 -170.908692 
L 350.759819 -170.962285 
L 351.029465 -171.014406 
L 351.299112 -171.065056 
L 351.568759 -171.114238 
L 351.838405 -171.161956 
L 352.108052 -171.208214 
L 352.377699 -171.253015 
L 352.647345 -171.296365 
L 352.916992 -171.338268 
L 353.186638 -171.37873 
L 353.456285 -171.417758 
L 353.725932 -171.455359 
L 353.995578 -171.491538 
L 354.265225 -171.526303 
L 354.534872 -171.559663 
L 354.804518 -171.591626 
L 355.074165 -171.6222 
L 355.343812 -171.651395 
L 355.613458 -171.67922 
L 355.883105 -171.705685 
L 356.152751 -171.7308 
L 356.422398 -171.754576 
L 356.692045 -171.777024 
L 356.961691 -171.798155 
L 357.231338 -171.817981 
L 357.500985 -171.836515 
L 357.770631 -171.853769 
L 358.040278 -171.869755 
L 358.309924 -171.884486 
L 358.579571 -171.897977 
L 358.579571 -169.360355 
L 358.579571 -169.360355 
L 358.309924 -169.360355 
L 358.040278 -169.360355 
L 357.770631 -169.360355 
L 357.500985 -169.360355 
L 357.231338 -169.360355 
L 356.961691 -169.360355 
L 356.692045 -169.360355 
L 356.422398 -169.360355 
L 356.152751 -169.360355 
L 355.883105 -169.360355 
L 355.613458 -169.360355 
L 355.343812 -169.360355 
L 355.074165 -169.360355 
L 354.804518 -169.360355 
L 354.534872 -169.360355 
L 354.265225 -169.360355 
L 353.995578 -169.360355 
L 353.725932 -169.360355 
L 353.456285 -169.360355 
L 353.186638 -169.360355 
L 352.916992 -169.360355 
L 352.647345 -169.360355 
L 352.377699 -169.360355 
L 352.108052 -169.360355 
L 351.838405 -169.360355 
L 351.568759 -169.360355 
L 351.299112 -169.360355 
L 351.029465 -169.360355 
L 350.759819 -169.360355 
L 350.490172 -169.360355 
L 350.220526 -169.360355 
L 349.950879 -169.360355 
L 349.681232 -169.360355 
L 349.411586 -169.360355 
L 349.141939 -169.360355 
L 348.872292 -169.360355 
L 348.602646 -169.360355 
L 348.332999 -169.360355 
L 348.063352 -169.360355 
L 347.793706 -169.360355 
L 347.524059 -169.360355 
L 347.254413 -169.360355 
L 346.984766 -169.360355 
L 346.715119 -169.360355 
L 346.445473 -169.360355 
L 346.175826 -169.360355 
L 345.906179 -169.360355 
L 345.636533 -169.360355 
L 345.366886 -169.360355 
L 345.09724 -169.360355 
L 344.827593 -169.360355 
L 344.557946 -169.360355 
L 344.2883 -169.360355 
L 344.018653 -169.360355 
L 343.749006 -169.360355 
L 343.47936 -169.360355 
L 343.209713 -169.360355 
L 342.940066 -169.360355 
L 342.67042 -169.360355 
L 342.400773 -169.360355 
L 342.131127 -169.360355 
L 341.86148 -169.360355 
L 341.591833 -169.360355 
L 341.322187 -169.360355 
L 341.05254 -169.360355 
L 340.782893 -169.360355 
L 340.513247 -169.360355 
L 340.2436 -169.360355 
L 339.973953 -169.360355 
L 339.704307 -169.360355 
L 339.43466 -169.360355 
L 339.165014 -169.360355 
L 338.895367 -169.360355 
L 338.62572 -169.360355 
L 338.356074 -169.360355 
L 338.086427 -169.360355 
L 337.81678 -169.360355 
L 337.547134 -169.360355 
L 337.277487 -169.360355 
L 337.007841 -169.360355 
L 336.738194 -169.360355 
L 336.468547 -169.360355 
L 336.198901 -169.360355 
L 335.929254 -169.360355 
L 335.659607 -169.360355 
L 335.389961 -169.360355 
L 335.120314 -169.360355 
L 334.850667 -169.360355 
L 334.581021 -169.360355 
L 334.311374 -169.360355 
L 334.041728 -169.360355 
L 333.772081 -169.360355 
L 333.502434 -169.360355 
L 333.232788 -169.360355 
L 332.963141 -169.360355 
L 332.693494 -169.360355 
L 332.423848 -169.360355 
L 332.154201 -169.360355 
L 331.884555 -169.360355 
L 331.614908 -169.360355 
L 331.345261 -169.360355 
L 331.075615 -169.360355 
L 330.805968 -169.360355 
L 330.536321 -169.360355 
L 330.266675 -169.360355 
L 329.997028 -169.360355 
L 329.727381 -169.360355 
L 329.457735 -169.360355 
L 329.188088 -169.360355 
L 328.918442 -169.360355 
L 328.648795 -169.360355 
L 328.379148 -169.360355 
L 328.109502 -169.360355 
L 327.839855 -169.360355 
L 327.570208 -169.360355 
L 327.300562 -169.360355 
L 327.030915 -169.360355 
L 326.761268 -169.360355 
L 326.491622 -169.360355 
L 326.221975 -169.360355 
L 325.952329 -169.360355 
L 325.682682 -169.360355 
L 325.413035 -169.360355 
L 325.143389 -169.360355 
L 324.873742 -169.360355 
L 324.604095 -169.360355 
L 324.334449 -169.360355 
L 324.064802 -169.360355 
L 323.795156 -169.360355 
L 323.525509 -169.360355 
L 323.255862 -169.360355 
L 322.986216 -169.360355 
L 322.716569 -169.360355 
L 322.446922 -169.360355 
L 322.177276 -169.360355 
L 321.907629 -169.360355 
L 321.637982 -169.360355 
L 321.368336 -169.360355 
L 321.098689 -169.360355 
L 320.829043 -169.360355 
L 320.559396 -169.360355 
L 320.289749 -169.360355 
L 320.020103 -169.360355 
L 319.750456 -169.360355 
L 319.480809 -169.360355 
L 319.211163 -169.360355 
L 318.941516 -169.360355 
L 318.67187 -169.360355 
L 318.402223 -169.360355 
L 318.132576 -169.360355 
L 317.86293 -169.360355 
L 317.593283 -169.360355 
L 317.323636 -169.360355 
L 317.05399 -169.360355 
L 316.784343 -169.360355 
L 316.514696 -169.360355 
L 316.24505 -169.360355 
L 315.975403 -169.360355 
L 315.705757 -169.360355 
L 315.43611 -169.360355 
L 315.166463 -169.360355 
L 314.896817 -169.360355 
L 314.62717 -169.360355 
L 314.357523 -169.360355 
L 314.087877 -169.360355 
L 313.81823 -169.360355 
L 313.548584 -169.360355 
L 313.278937 -169.360355 
L 313.00929 -169.360355 
L 312.739644 -169.360355 
L 312.469997 -169.360355 
L 312.20035 -169.360355 
L 311.930704 -169.360355 
L 311.661057 -169.360355 
L 311.39141 -169.360355 
L 311.121764 -169.360355 
L 310.852117 -169.360355 
L 310.582471 -169.360355 
L 310.312824 -169.360355 
L 310.043177 -169.360355 
L 309.773531 -169.360355 
L 309.503884 -169.360355 
L 309.234237 -169.360355 
L 308.964591 -169.360355 
L 308.694944 -169.360355 
L 308.425297 -169.360355 
L 308.155651 -169.360355 
L 307.886004 -169.360355 
L 307.616358 -169.360355 
L 307.346711 -169.360355 
L 307.077064 -169.360355 
L 306.807418 -169.360355 
L 306.537771 -169.360355 
L 306.268124 -169.360355 
L 305.998478 -169.360355 
L 305.728831 -169.360355 
L 305.459185 -169.360355 
L 305.189538 -169.360355 
L 304.919891 -169.360355 
L 304.650245 -169.360355 
L 304.380598 -169.360355 
z
" style="stroke: #10a2f0; stroke-opacity: 0.3"/>
    </defs>
    <g clip-path="url(#pb5bd6a72ac)">
     <use xlink:href="#m7e10911c52" x="0" y="345.6" style="fill: #10a2f0; fill-opacity: 0.3; stroke: #10a2f0; stroke-opacity: 0.3"/>
    </g>
   </g>
   <g id="FillBetweenPolyCollection_9">
    <defs>
     <path id="m255e0ff9c6" d="M 358.849218 -169.360355 
L 358.849218 -171.91024 
L 359.118864 -171.92129 
L 359.388511 -171.931141 
L 359.658158 -171.939808 
L 359.927804 -171.947305 
L 360.197451 -171.953648 
L 360.467098 -171.958851 
L 360.736744 -171.962932 
L 361.006391 -171.965905 
L 361.276037 -171.967787 
L 361.545684 -171.968594 
L 361.815331 -171.968342 
L 362.084977 -171.967049 
L 362.354624 -171.964731 
L 362.624271 -171.961406 
L 362.893917 -171.957091 
L 363.163564 -171.951803 
L 363.433211 -171.94556 
L 363.702857 -171.93838 
L 363.972504 -171.930281 
L 364.24215 -171.921282 
L 364.511797 -171.9114 
L 364.781444 -171.900653 
L 365.05109 -171.889061 
L 365.320737 -171.876642 
L 365.590384 -171.863415 
L 365.86003 -171.849398 
L 366.129677 -171.834612 
L 366.399323 -171.819073 
L 366.66897 -171.802802 
L 366.938617 -171.785819 
L 367.208263 -171.768141 
L 367.47791 -171.749788 
L 367.747557 -171.73078 
L 368.017203 -171.711136 
L 368.28685 -171.690875 
L 368.556497 -171.670017 
L 368.826143 -171.64858 
L 369.09579 -171.626585 
L 369.365436 -171.604051 
L 369.635083 -171.580996 
L 369.90473 -171.557441 
L 370.174376 -171.533405 
L 370.444023 -171.508907 
L 370.71367 -171.483965 
L 370.983316 -171.4586 
L 371.252963 -171.432831 
L 371.522609 -171.406676 
L 371.792256 -171.380155 
L 372.061903 -171.353286 
L 372.331549 -171.326088 
L 372.601196 -171.29858 
L 372.870843 -171.270781 
L 373.140489 -171.242709 
L 373.410136 -171.214382 
L 373.679783 -171.185819 
L 373.679783 -169.360355 
L 373.679783 -169.360355 
L 373.410136 -169.360355 
L 373.140489 -169.360355 
L 372.870843 -169.360355 
L 372.601196 -169.360355 
L 372.331549 -169.360355 
L 372.061903 -169.360355 
L 371.792256 -169.360355 
L 371.522609 -169.360355 
L 371.252963 -169.360355 
L 370.983316 -169.360355 
L 370.71367 -169.360355 
L 370.444023 -169.360355 
L 370.174376 -169.360355 
L 369.90473 -169.360355 
L 369.635083 -169.360355 
L 369.365436 -169.360355 
L 369.09579 -169.360355 
L 368.826143 -169.360355 
L 368.556497 -169.360355 
L 368.28685 -169.360355 
L 368.017203 -169.360355 
L 367.747557 -169.360355 
L 367.47791 -169.360355 
L 367.208263 -169.360355 
L 366.938617 -169.360355 
L 366.66897 -169.360355 
L 366.399323 -169.360355 
L 366.129677 -169.360355 
L 365.86003 -169.360355 
L 365.590384 -169.360355 
L 365.320737 -169.360355 
L 365.05109 -169.360355 
L 364.781444 -169.360355 
L 364.511797 -169.360355 
L 364.24215 -169.360355 
L 363.972504 -169.360355 
L 363.702857 -169.360355 
L 363.433211 -169.360355 
L 363.163564 -169.360355 
L 362.893917 -169.360355 
L 362.624271 -169.360355 
L 362.354624 -169.360355 
L 362.084977 -169.360355 
L 361.815331 -169.360355 
L 361.545684 -169.360355 
L 361.276037 -169.360355 
L 361.006391 -169.360355 
L 360.736744 -169.360355 
L 360.467098 -169.360355 
L 360.197451 -169.360355 
L 359.927804 -169.360355 
L 359.658158 -169.360355 
L 359.388511 -169.360355 
L 359.118864 -169.360355 
L 358.849218 -169.360355 
z
" style="stroke: #4756fb; stroke-opacity: 0.3"/>
    </defs>
    <g clip-path="url(#pb5bd6a72ac)">
     <use xlink:href="#m255e0ff9c6" x="0" y="345.6" style="fill: #4756fb; fill-opacity: 0.3; stroke: #4756fb; stroke-opacity: 0.3"/>
    </g>
   </g>
   <g id="FillBetweenPolyCollection_10">
    <defs>
     <path id="m3acc8376cb" d="M 373.949429 -169.360355 
L 373.949429 -171.157039 
L 374.219076 -171.128058 
L 374.488722 -171.098896 
L 374.758369 -171.06957 
L 375.028016 -171.040097 
L 375.297662 -171.010494 
L 375.567309 -170.980781 
L 375.836956 -170.950973 
L 376.106602 -170.921087 
L 376.376249 -170.89114 
L 376.645895 -170.86115 
L 376.915542 -170.831132 
L 377.185189 -170.801103 
L 377.454835 -170.771079 
L 377.724482 -170.741075 
L 377.994129 -170.711108 
L 378.263775 -170.681193 
L 378.533422 -170.651345 
L 378.803069 -170.62158 
L 379.072715 -170.591911 
L 379.342362 -170.562355 
L 379.612008 -170.532924 
L 379.881655 -170.503634 
L 380.151302 -170.474499 
L 380.420948 -170.445531 
L 380.690595 -170.416745 
L 380.960242 -170.388153 
L 381.229888 -170.359769 
L 381.499535 -170.331606 
L 381.769182 -170.303675 
L 382.038828 -170.275989 
L 382.308475 -170.248561 
L 382.578121 -170.221401 
L 382.847768 -170.194521 
L 383.117415 -170.167932 
L 383.387061 -170.141646 
L 383.656708 -170.115672 
L 383.926355 -170.090022 
L 384.196001 -170.064705 
L 384.465648 -170.039731 
L 384.735294 -170.015109 
L 385.004941 -169.990849 
L 385.274588 -169.96696 
L 385.544234 -169.94345 
L 385.813881 -169.920328 
L 386.083528 -169.897603 
L 386.353174 -169.875281 
L 386.622821 -169.85337 
L 386.892468 -169.831878 
L 387.162114 -169.810811 
L 387.431761 -169.790177 
L 387.701407 -169.769981 
L 387.971054 -169.750231 
L 388.240701 -169.73093 
L 388.510347 -169.712086 
L 388.779994 -169.693704 
L 389.049641 -169.675787 
L 389.319287 -169.658342 
L 389.588934 -169.641373 
L 389.85858 -169.624882 
L 390.128227 -169.608876 
L 390.397874 -169.593356 
L 390.66752 -169.578326 
L 390.937167 -169.563789 
L 391.206814 -169.549749 
L 391.47646 -169.536206 
L 391.746107 -169.523164 
L 392.015754 -169.510624 
L 392.2854 -169.498588 
L 392.555047 -169.487057 
L 392.824693 -169.476033 
L 393.09434 -169.465515 
L 393.363987 -169.455505 
L 393.633633 -169.446002 
L 393.90328 -169.437007 
L 394.172927 -169.42852 
L 394.442573 -169.420539 
L 394.71222 -169.413064 
L 394.981867 -169.406095 
L 395.251513 -169.399628 
L 395.52116 -169.393664 
L 395.790806 -169.388201 
L 396.060453 -169.383235 
L 396.3301 -169.378766 
L 396.599746 -169.374789 
L 396.869393 -169.371304 
L 397.13904 -169.368306 
L 397.408686 -169.365792 
L 397.678333 -169.36376 
L 397.947979 -169.362205 
L 398.217626 -169.361123 
L 398.487273 -169.36051 
L 398.487273 -169.360355 
L 398.487273 -169.360355 
L 398.217626 -169.360355 
L 397.947979 -169.360355 
L 397.678333 -169.360355 
L 397.408686 -169.360355 
L 397.13904 -169.360355 
L 396.869393 -169.360355 
L 396.599746 -169.360355 
L 396.3301 -169.360355 
L 396.060453 -169.360355 
L 395.790806 -169.360355 
L 395.52116 -169.360355 
L 395.251513 -169.360355 
L 394.981867 -169.360355 
L 394.71222 -169.360355 
L 394.442573 -169.360355 
L 394.172927 -169.360355 
L 393.90328 -169.360355 
L 393.633633 -169.360355 
L 393.363987 -169.360355 
L 393.09434 -169.360355 
L 392.824693 -169.360355 
L 392.555047 -169.360355 
L 392.2854 -169.360355 
L 392.015754 -169.360355 
L 391.746107 -169.360355 
L 391.47646 -169.360355 
L 391.206814 -169.360355 
L 390.937167 -169.360355 
L 390.66752 -169.360355 
L 390.397874 -169.360355 
L 390.128227 -169.360355 
L 389.85858 -169.360355 
L 389.588934 -169.360355 
L 389.319287 -169.360355 
L 389.049641 -169.360355 
L 388.779994 -169.360355 
L 388.510347 -169.360355 
L 388.240701 -169.360355 
L 387.971054 -169.360355 
L 387.701407 -169.360355 
L 387.431761 -169.360355 
L 387.162114 -169.360355 
L 386.892468 -169.360355 
L 386.622821 -169.360355 
L 386.353174 -169.360355 
L 386.083528 -169.360355 
L 385.813881 -169.360355 
L 385.544234 -169.360355 
L 385.274588 -169.360355 
L 385.004941 -169.360355 
L 384.735294 -169.360355 
L 384.465648 -169.360355 
L 384.196001 -169.360355 
L 383.926355 -169.360355 
L 383.656708 -169.360355 
L 383.387061 -169.360355 
L 383.117415 -169.360355 
L 382.847768 -169.360355 
L 382.578121 -169.360355 
L 382.308475 -169.360355 
L 382.038828 -169.360355 
L 381.769182 -169.360355 
L 381.499535 -169.360355 
L 381.229888 -169.360355 
L 380.960242 -169.360355 
L 380.690595 -169.360355 
L 380.420948 -169.360355 
L 380.151302 -169.360355 
L 379.881655 -169.360355 
L 379.612008 -169.360355 
L 379.342362 -169.360355 
L 379.072715 -169.360355 
L 378.803069 -169.360355 
L 378.533422 -169.360355 
L 378.263775 -169.360355 
L 377.994129 -169.360355 
L 377.724482 -169.360355 
L 377.454835 -169.360355 
L 377.185189 -169.360355 
L 376.915542 -169.360355 
L 376.645895 -169.360355 
L 376.376249 -169.360355 
L 376.106602 -169.360355 
L 375.836956 -169.360355 
L 375.567309 -169.360355 
L 375.297662 -169.360355 
L 375.028016 -169.360355 
L 374.758369 -169.360355 
L 374.488722 -169.360355 
L 374.219076 -169.360355 
L 373.949429 -169.360355 
z
" style="stroke: #8000ff; stroke-opacity: 0.3"/>
    </defs>
    <g clip-path="url(#pb5bd6a72ac)">
     <use xlink:href="#m3acc8376cb" x="0" y="345.6" style="fill: #8000ff; fill-opacity: 0.3; stroke: #8000ff; stroke-opacity: 0.3"/>
    </g>
   </g>
   <g id="matplotlib.axis_1">
    <g id="xtick_1">
     <g id="line2d_1">
      <defs>
       <path id="m83d76cd66d" d="M 0 0 
L 0 3.5 
" style="stroke: #000000; stroke-width: 0.8"/>
      </defs>
      <g>
       <use xlink:href="#m83d76cd66d" x="74.482478" y="307.584" style="stroke: #000000; stroke-width: 0.8"/>
      </g>
     </g>
    </g>
    <g id="xtick_2">
     <g id="line2d_2">
      <g>
       <use xlink:href="#m83d76cd66d" x="128.411805" y="307.584" style="stroke: #000000; stroke-width: 0.8"/>
      </g>
     </g>
    </g>
    <g id="xtick_3">
     <g id="line2d_3">
      <g>
       <use xlink:href="#m83d76cd66d" x="182.341131" y="307.584" style="stroke: #000000; stroke-width: 0.8"/>
      </g>
     </g>
    </g>
    <g id="xtick_4">
     <g id="line2d_4">
      <g>
       <use xlink:href="#m83d76cd66d" x="236.270458" y="307.584" style="stroke: #000000; stroke-width: 0.8"/>
      </g>
     </g>
    </g>
    <g id="xtick_5">
     <g id="line2d_5">
      <g>
       <use xlink:href="#m83d76cd66d" x="290.199784" y="307.584" style="stroke: #000000; stroke-width: 0.8"/>
      </g>
     </g>
    </g>
    <g id="xtick_6">
     <g id="line2d_6">
      <g>
       <use xlink:href="#m83d76cd66d" x="344.129111" y="307.584" style="stroke: #000000; stroke-width: 0.8"/>
      </g>
     </g>
    </g>
    <g id="xtick_7">
     <g id="line2d_7">
      <g>
       <use xlink:href="#m83d76cd66d" x="398.058437" y="307.584" style="stroke: #000000; stroke-width: 0.8"/>
      </g>
     </g>
    </g>
   </g>
   <g id="matplotlib.axis_2">
    <g id="ytick_1">
     <g id="line2d_8">
      <defs>
       <path id="m642f6b30e7" d="M 0 0 
L -3.5 0 
" style="stroke: #000000; stroke-width: 0.8"/>
      </defs>
      <g>
       <use xlink:href="#m642f6b30e7" x="57.6" y="301.786414" style="stroke: #000000; stroke-width: 0.8"/>
      </g>
     </g>
     <g id="text_1">
      <!-- 1.5 -->
      <g transform="translate(26.317187 305.585633) scale(0.1 -0.1)">
       <defs>
        <path id="DejaVuSans-2212" d="M 678 2272 
L 4684 2272 
L 4684 1741 
L 678 1741 
L 678 2272 
z
" transform="scale(0.015625)"/>
        <path id="DejaVuSans-31" d="M 794 531 
L 1825 531 
L 1825 4091 
L 703 3866 
L 703 4441 
L 1819 4666 
L 2450 4666 
L 2450 531 
L 3481 531 
L 3481 0 
L 794 0 
L 794 531 
z
" transform="scale(0.015625)"/>
        <path id="DejaVuSans-2e" d="M 684 794 
L 1344 794 
L 1344 0 
L 684 0 
L 684 794 
z
" transform="scale(0.015625)"/>
        <path id="DejaVuSans-35" d="M 691 4666 
L 3169 4666 
L 3169 4134 
L 1269 4134 
L 1269 2991 
Q 1406 3038 1543 3061 
Q 1681 3084 1819 3084 
Q 2600 3084 3056 2656 
Q 3513 2228 3513 1497 
Q 3513 744 3044 326 
Q 2575 -91 1722 -91 
Q 1428 -91 1123 -41 
Q 819 9 494 109 
L 494 744 
Q 775 591 1075 516 
Q 1375 441 1709 441 
Q 2250 441 2565 725 
Q 2881 1009 2881 1497 
Q 2881 1984 2565 2268 
Q 2250 2553 1709 2553 
Q 1456 2553 1204 2497 
Q 953 2441 691 2322 
L 691 4666 
z
" transform="scale(0.015625)"/>
       </defs>
       <use xlink:href="#DejaVuSans-2212"/>
       <use xlink:href="#DejaVuSans-31" transform="translate(83.789062 0)"/>
       <use xlink:href="#DejaVuSans-2e" transform="translate(147.412109 0)"/>
       <use xlink:href="#DejaVuSans-35" transform="translate(179.199219 0)"/>
      </g>
     </g>
    </g>
    <g id="ytick_2">
     <g id="line2d_9">
      <g>
       <use xlink:href="#m642f6b30e7" x="57.6" y="259.937491" style="stroke: #000000; stroke-width: 0.8"/>
      </g>
     </g>
     <g id="text_2">
      <!-- 1.0 -->
      <g transform="translate(26.317187 263.73671) scale(0.1 -0.1)">
       <defs>
        <path id="DejaVuSans-30" d="M 2034 4250 
Q 1547 4250 1301 3770 
Q 1056 3291 1056 2328 
Q 1056 1369 1301 889 
Q 1547 409 2034 409 
Q 2525 409 2770 889 
Q 3016 1369 3016 2328 
Q 3016 3291 2770 3770 
Q 2525 4250 2034 4250 
z
M 2034 4750 
Q 2819 4750 3233 4129 
Q 3647 3509 3647 2328 
Q 3647 1150 3233 529 
Q 2819 -91 2034 -91 
Q 1250 -91 836 529 
Q 422 1150 422 2328 
Q 422 3509 836 4129 
Q 1250 4750 2034 4750 
z
" transform="scale(0.015625)"/>
       </defs>
       <use xlink:href="#DejaVuSans-2212"/>
       <use xlink:href="#DejaVuSans-31" transform="translate(83.789062 0)"/>
       <use xlink:href="#DejaVuSans-2e" transform="translate(147.412109 0)"/>
       <use xlink:href="#DejaVuSans-30" transform="translate(179.199219 0)"/>
      </g>
     </g>
    </g>
    <g id="ytick_3">
     <g id="line2d_10">
      <g>
       <use xlink:href="#m642f6b30e7" x="57.6" y="218.088568" style="stroke: #000000; stroke-width: 0.8"/>
      </g>
     </g>
     <g id="text_3">
      <!-- 0.5 -->
      <g transform="translate(26.317187 221.887787) scale(0.1 -0.1)">
       <use xlink:href="#DejaVuSans-2212"/>
       <use xlink:href="#DejaVuSans-30" transform="translate(83.789062 0)"/>
       <use xlink:href="#DejaVuSans-2e" transform="translate(147.412109 0)"/>
       <use xlink:href="#DejaVuSans-35" transform="translate(179.199219 0)"/>
      </g>
     </g>
    </g>
    <g id="ytick_4">
     <g id="line2d_11">
      <g>
       <use xlink:href="#m642f6b30e7" x="57.6" y="176.239645" style="stroke: #000000; stroke-width: 0.8"/>
      </g>
     </g>
     <g id="text_4">
      <!-- 0.0 -->
      <g transform="translate(34.696875 180.038864) scale(0.1 -0.1)">
       <use xlink:href="#DejaVuSans-30"/>
       <use xlink:href="#DejaVuSans-2e" transform="translate(63.623047 0)"/>
       <use xlink:href="#DejaVuSans-30" transform="translate(95.410156 0)"/>
      </g>
     </g>
    </g>
    <g id="ytick_5">
     <g id="line2d_12">
      <g>
       <use xlink:href="#m642f6b30e7" x="57.6" y="134.390722" style="stroke: #000000; stroke-width: 0.8"/>
      </g>
     </g>
     <g id="text_5">
      <!-- 0.5 -->
      <g transform="translate(34.696875 138.189941) scale(0.1 -0.1)">
       <use xlink:href="#DejaVuSans-30"/>
       <use xlink:href="#DejaVuSans-2e" transform="translate(63.623047 0)"/>
       <use xlink:href="#DejaVuSans-35" transform="translate(95.410156 0)"/>
      </g>
     </g>
    </g>
    <g id="ytick_6">
     <g id="line2d_13">
      <g>
       <use xlink:href="#m642f6b30e7" x="57.6" y="92.541799" style="stroke: #000000; stroke-width: 0.8"/>
      </g>
     </g>
     <g id="text_6">
      <!-- 1.0 -->
      <g transform="translate(34.696875 96.341018) scale(0.1 -0.1)">
       <use xlink:href="#DejaVuSans-31"/>
       <use xlink:href="#DejaVuSans-2e" transform="translate(63.623047 0)"/>
       <use xlink:href="#DejaVuSans-30" transform="translate(95.410156 0)"/>
      </g>
     </g>
    </g>
    <g id="ytick_7">
     <g id="line2d_14">
      <g>
       <use xlink:href="#m642f6b30e7" x="57.6" y="50.692876" style="stroke: #000000; stroke-width: 0.8"/>
      </g>
     </g>
     <g id="text_7">
      <!-- 1.5 -->
      <g transform="translate(34.696875 54.492095) scale(0.1 -0.1)">
       <use xlink:href="#DejaVuSans-31"/>
       <use xlink:href="#DejaVuSans-2e" transform="translate(63.623047 0)"/>
       <use xlink:href="#DejaVuSans-35" transform="translate(95.410156 0)"/>
      </g>
     </g>
    </g>
   </g>
   <g id="line2d_15">
    <path d="M 73.832727 176.239645 
L 79.495307 176.132622 
L 85.157886 175.806126 
L 91.899052 175.178067 
L 105.65103 173.81106 
L 110.235023 173.634775 
L 114.010076 173.70437 
L 117.515482 173.983223 
L 121.020888 174.494542 
L 124.256648 175.185163 
L 127.762054 176.170873 
L 131.26746 177.389346 
L 135.312159 179.042799 
L 140.435445 181.398221 
L 149.064138 185.399777 
L 152.569544 186.763796 
L 155.535657 187.67778 
L 157.962477 188.210985 
L 160.389296 188.51155 
L 162.546469 188.554925 
L 164.703642 188.363511 
L 166.591169 187.986717 
L 168.478695 187.401228 
L 170.366222 186.596002 
L 172.253748 185.561845 
L 174.141275 184.291607 
L 176.028801 182.780349 
L 178.185974 180.754877 
L 180.343147 178.411454 
L 182.50032 175.754633 
L 184.92714 172.402587 
L 187.35396 168.685371 
L 190.050426 164.160053 
L 193.016539 158.757176 
L 196.521945 151.901542 
L 201.105938 142.411034 
L 211.35251 120.997395 
L 214.857916 114.278239 
L 217.824029 109.076563 
L 220.250849 105.232016 
L 222.677668 101.816698 
L 224.834841 99.18102 
L 226.722368 97.208728 
L 228.609894 95.566434 
L 230.227774 94.43252 
L 231.845654 93.559209 
L 233.463534 92.952224 
L 235.081413 92.615548 
L 236.429647 92.543121 
L 237.77788 92.660308 
L 239.126113 92.966574 
L 240.743993 93.581648 
L 242.361873 94.4629 
L 243.979752 95.604557 
L 245.597632 96.999157 
L 247.485159 98.933672 
L 249.372685 101.182959 
L 251.529858 104.113557 
L 253.956678 107.829283 
L 256.653144 112.415416 
L 259.619257 117.92397 
L 263.124663 124.908673 
L 268.517596 136.223195 
L 275.798055 151.455542 
L 279.573108 158.849163 
L 282.808867 164.714637 
L 285.77498 169.618245 
L 288.471447 173.630148 
L 290.898266 176.848012 
L 293.325086 179.675592 
L 295.482259 181.853142 
L 297.639432 183.71213 
L 299.796605 185.254659 
L 301.684132 186.349571 
L 303.571658 187.213491 
L 305.459185 187.855098 
L 307.346711 188.284974 
L 309.503884 188.532817 
L 311.661057 188.540865 
L 313.81823 188.331857 
L 316.24505 187.867632 
L 318.941516 187.110041 
L 321.907629 186.041889 
L 325.682682 184.43101 
L 332.423848 181.246849 
L 338.086427 178.673189 
L 342.131127 177.071111 
L 345.636533 175.907363 
L 349.141939 174.981414 
L 352.377699 174.346985 
L 355.883105 173.894315 
L 359.388511 173.668859 
L 363.163564 173.648197 
L 367.47791 173.850212 
L 373.140489 174.357291 
L 389.049641 175.924213 
L 394.71222 176.186936 
L 398.487273 176.23949 
L 398.487273 176.23949 
" clip-path="url(#pb5bd6a72ac)" style="fill: none; stroke: #000000; stroke-width: 1.5; stroke-linecap: square"/>
   </g>
   <g id="line2d_16">
    <path d="M 79.336118 176.239645 
L 79.336118 252.239305 
" clip-path="url(#pb5bd6a72ac)" style="fill: none; stroke: #808080; stroke-opacity: 0.5; stroke-width: 1.5; stroke-linecap: square"/>
   </g>
   <g id="line2d_17">
    <path d="M 398.487273 176.239645 
L 398.487273 144.79453 
" clip-path="url(#pb5bd6a72ac)" style="fill: none; stroke: #808080; stroke-opacity: 0.5; stroke-width: 1.5; stroke-linecap: square"/>
   </g>
   <g id="line2d_18">
    <path d="M 101.447141 252.239305 
L 101.447141 294.446423 
" clip-path="url(#pb5bd6a72ac)" style="fill: none; stroke: #808080; stroke-opacity: 0.5; stroke-width: 1.5; stroke-linecap: square"/>
   </g>
   <g id="line2d_19">
    <path d="M 79.336118 252.239305 
L 101.447141 252.239305 
" clip-path="url(#pb5bd6a72ac)" style="fill: none; stroke: #ff0000; stroke-width: 2; stroke-linecap: square"/>
   </g>
   <g id="line2d_20">
    <path d="M 121.940286 294.446423 
L 121.940286 53.568 
" clip-path="url(#pb5bd6a72ac)" style="fill: none; stroke: #808080; stroke-opacity: 0.5; stroke-width: 1.5; stroke-linecap: square"/>
   </g>
   <g id="line2d_21">
    <path d="M 101.447141 294.446423 
L 121.940286 294.446423 
" clip-path="url(#pb5bd6a72ac)" style="fill: none; stroke: #ff562c; stroke-width: 2; stroke-linecap: square"/>
   </g>
   <g id="line2d_22">
    <path d="M 178.835725 53.568 
L 178.835725 195.136635 
" clip-path="url(#pb5bd6a72ac)" style="fill: none; stroke: #808080; stroke-opacity: 0.5; stroke-width: 1.5; stroke-linecap: square"/>
   </g>
   <g id="line2d_23">
    <path d="M 121.940286 53.568 
L 178.835725 53.568 
" clip-path="url(#pb5bd6a72ac)" style="fill: none; stroke: #ffa256; stroke-width: 2; stroke-linecap: square"/>
   </g>
   <g id="line2d_24">
    <path d="M 217.125547 195.136635 
L 217.125547 295.488 
" clip-path="url(#pb5bd6a72ac)" style="fill: none; stroke: #808080; stroke-opacity: 0.5; stroke-width: 1.5; stroke-linecap: square"/>
   </g>
   <g id="line2d_25">
    <path d="M 178.835725 195.136635 
L 217.125547 195.136635 
" clip-path="url(#pb5bd6a72ac)" style="fill: none; stroke: #d5dd7f; stroke-width: 2; stroke-linecap: square"/>
   </g>
   <g id="line2d_26">
    <path d="M 250.292083 295.488 
L 250.292083 145.478326 
" clip-path="url(#pb5bd6a72ac)" style="fill: none; stroke: #808080; stroke-opacity: 0.5; stroke-width: 1.5; stroke-linecap: square"/>
   </g>
   <g id="line2d_27">
    <path d="M 217.125547 295.488 
L 250.292083 295.488 
" clip-path="url(#pb5bd6a72ac)" style="fill: none; stroke: #9cfba4; stroke-width: 2; stroke-linecap: square"/>
   </g>
   <g id="line2d_28">
    <path d="M 274.560279 145.478326 
L 274.560279 221.803306 
" clip-path="url(#pb5bd6a72ac)" style="fill: none; stroke: #808080; stroke-opacity: 0.5; stroke-width: 1.5; stroke-linecap: square"/>
   </g>
   <g id="line2d_29">
    <path d="M 250.292083 145.478326 
L 274.560279 145.478326 
" clip-path="url(#pb5bd6a72ac)" style="fill: none; stroke: #62fbc4; stroke-width: 2; stroke-linecap: square"/>
   </g>
   <g id="line2d_30">
    <path d="M 304.221409 221.803306 
L 304.221409 166.955663 
" clip-path="url(#pb5bd6a72ac)" style="fill: none; stroke: #808080; stroke-opacity: 0.5; stroke-width: 1.5; stroke-linecap: square"/>
   </g>
   <g id="line2d_31">
    <path d="M 274.560279 221.803306 
L 304.221409 221.803306 
" clip-path="url(#pb5bd6a72ac)" style="fill: none; stroke: #2bdddd; stroke-width: 2; stroke-linecap: square"/>
   </g>
   <g id="line2d_32">
    <path d="M 358.690029 166.955663 
L 358.690029 272.575329 
" clip-path="url(#pb5bd6a72ac)" style="fill: none; stroke: #808080; stroke-opacity: 0.5; stroke-width: 1.5; stroke-linecap: square"/>
   </g>
   <g id="line2d_33">
    <path d="M 304.221409 166.955663 
L 358.690029 166.955663 
" clip-path="url(#pb5bd6a72ac)" style="fill: none; stroke: #10a2f0; stroke-width: 2; stroke-linecap: square"/>
   </g>
   <g id="line2d_34">
    <path d="M 373.79024 272.575329 
L 373.79024 144.79453 
" clip-path="url(#pb5bd6a72ac)" style="fill: none; stroke: #808080; stroke-opacity: 0.5; stroke-width: 1.5; stroke-linecap: square"/>
   </g>
   <g id="line2d_35">
    <path d="M 358.690029 272.575329 
L 373.79024 272.575329 
" clip-path="url(#pb5bd6a72ac)" style="fill: none; stroke: #4756fb; stroke-width: 2; stroke-linecap: square"/>
   </g>
   <g id="line2d_36">
    <path d="M 373.79024 144.79453 
L 398.487273 144.79453 
" clip-path="url(#pb5bd6a72ac)" style="fill: none; stroke: #8000ff; stroke-width: 2; stroke-linecap: square"/>
   </g>
   <g id="line2d_37">
    <path d="M 57.6 176.239645 
L 414.72 176.239645 
" clip-path="url(#pb5bd6a72ac)" style="fill: none; stroke: #000000; stroke-width: 0.5; stroke-linecap: square"/>
   </g>
   <g id="patch_3">
    <path d="M 57.6 307.584 
L 57.6 41.472 
" style="fill: none; stroke: #000000; stroke-width: 0.8; stroke-linejoin: miter; stroke-linecap: square"/>
   </g>
   <g id="patch_4">
    <path d="M 414.72 307.584 
L 414.72 41.472 
" style="fill: none; stroke: #000000; stroke-width: 0.8; stroke-linejoin: miter; stroke-linecap: square"/>
   </g>
   <g id="patch_5">
    <path d="M 57.6 307.584 
L 414.72 307.584 
" style="fill: none; stroke: #000000; stroke-width: 0.8; stroke-linejoin: miter; stroke-linecap: square"/>
   </g>
   <g id="patch_6">
    <path d="M 57.6 41.472 
L 414.72 41.472 
" style="fill: none; stroke: #000000; stroke-width: 0.8; stroke-linejoin: miter; stroke-linecap: square"/>
   </g>
   <g id="patch_7">
    <path d="M 236.270458 176.239645 
Q 236.270458 215.948012 236.270458 253.420311 
" style="fill: none; stroke: #000000; stroke-width: 2; stroke-linecap: round"/>
    <path d="M 238.270458 249.420311 
L 236.270458 253.420311 
L 234.270458 249.420311 
" style="fill: none; stroke: #000000; stroke-width: 2; stroke-linecap: round"/>
   </g>
   <g id="PathCollection_2">
    <defs>
     <path id="C0_0_8adc6449e7" d="M 0 3 
C 0.795609 3 1.55874 2.683901 2.12132 2.12132 
C 2.683901 1.55874 3 0.795609 3 -0 
C 3 -0.795609 2.683901 -1.55874 2.12132 -2.12132 
C 1.55874 -2.683901 0.795609 -3 0 -3 
C -0.795609 -3 -1.55874 -2.683901 -2.12132 -2.12132 
C -2.683901 -1.55874 -3 -0.795609 -3 0 
C -3 0.795609 -2.683901 1.55874 -2.12132 2.12132 
C -1.55874 2.683901 -0.795609 3 0 3 
z
"/>
    </defs>
    <g clip-path="url(#pb5bd6a72ac)">
     <use xlink:href="#C0_0_8adc6449e7" x="79.336118" y="176.582168" style="fill: #ff0000; stroke: #ff0000"/>
    </g>
    <g clip-path="url(#pb5bd6a72ac)">
     <use xlink:href="#C0_0_8adc6449e7" x="101.447141" y="177.501809" style="fill: #ff562c; stroke: #ff562c"/>
    </g>
    <g clip-path="url(#pb5bd6a72ac)">
     <use xlink:href="#C0_0_8adc6449e7" x="121.940286" y="186.839552" style="fill: #ffa256; stroke: #ffa256"/>
    </g>
    <g clip-path="url(#pb5bd6a72ac)">
     <use xlink:href="#C0_0_8adc6449e7" x="178.835725" y="180.789099" style="fill: #d5dd7f; stroke: #d5dd7f"/>
    </g>
    <g clip-path="url(#pb5bd6a72ac)">
     <use xlink:href="#C0_0_8adc6449e7" x="217.125547" y="245.228219" style="fill: #9cfba4; stroke: #9cfba4"/>
    </g>
    <g clip-path="url(#pb5bd6a72ac)">
     <use xlink:href="#C0_0_8adc6449e7" x="250.292083" y="167.669322" style="fill: #62fbc4; stroke: #62fbc4"/>
    </g>
    <g clip-path="url(#pb5bd6a72ac)">
     <use xlink:href="#C0_0_8adc6449e7" x="274.560279" y="177.250247" style="fill: #2bdddd; stroke: #2bdddd"/>
    </g>
    <g clip-path="url(#pb5bd6a72ac)">
     <use xlink:href="#C0_0_8adc6449e7" x="304.221409" y="176.825065" style="fill: #10a2f0; stroke: #10a2f0"/>
    </g>
    <g clip-path="url(#pb5bd6a72ac)">
     <use xlink:href="#C0_0_8adc6449e7" x="358.690029" y="176.995024" style="fill: #4756fb; stroke: #4756fb"/>
    </g>
    <g clip-path="url(#pb5bd6a72ac)">
     <use xlink:href="#C0_0_8adc6449e7" x="373.79024" y="176.132681" style="fill: #8000ff; stroke: #8000ff"/>
    </g>
   </g>
   <g id="legend_1">
    <g id="patch_8">
     <path d="M 258.343437 93.506375 
L 407.72 93.506375 
Q 409.72 93.506375 409.72 91.506375 
L 409.72 48.472 
Q 409.72 46.472 407.72 46.472 
L 258.343437 46.472 
Q 256.343437 46.472 256.343437 48.472 
L 256.343437 91.506375 
Q 256.343437 93.506375 258.343437 93.506375 
z
" style="fill: #ffffff; opacity: 0.8; stroke: #cccccc; stroke-linejoin: miter"/>
    </g>
    <g id="line2d_38">
     <path d="M 260.343437 54.570438 
L 270.343437 54.570438 
L 280.343437 54.570438 
" style="fill: none; stroke: #000000; stroke-width: 2; stroke-linecap: square"/>
    </g>
    <g id="text_8">
     <!-- Semantic Stimuli (step) -->
     <g transform="translate(288.343437 58.070438) scale(0.1 -0.1)">
      <defs>
       <path id="DejaVuSans-53" d="M 3425 4513 
L 3425 3897 
Q 3066 4069 2747 4153 
Q 2428 4238 2131 4238 
Q 1616 4238 1336 4038 
Q 1056 3838 1056 3469 
Q 1056 3159 1242 3001 
Q 1428 2844 1947 2747 
L 2328 2669 
Q 3034 2534 3370 2195 
Q 3706 1856 3706 1288 
Q 3706 609 3251 259 
Q 2797 -91 1919 -91 
Q 1588 -91 1214 -16 
Q 841 59 441 206 
L 441 856 
Q 825 641 1194 531 
Q 1563 422 1919 422 
Q 2459 422 2753 634 
Q 3047 847 3047 1241 
Q 3047 1584 2836 1778 
Q 2625 1972 2144 2069 
L 1759 2144 
Q 1053 2284 737 2584 
Q 422 2884 422 3419 
Q 422 4038 858 4394 
Q 1294 4750 2059 4750 
Q 2388 4750 2728 4690 
Q 3069 4631 3425 4513 
z
" transform="scale(0.015625)"/>
       <path id="DejaVuSans-65" d="M 3597 1894 
L 3597 1613 
L 953 1613 
Q 991 1019 1311 708 
Q 1631 397 2203 397 
Q 2534 397 2845 478 
Q 3156 559 3463 722 
L 3463 178 
Q 3153 47 2828 -22 
Q 2503 -91 2169 -91 
Q 1331 -91 842 396 
Q 353 884 353 1716 
Q 353 2575 817 3079 
Q 1281 3584 2069 3584 
Q 2775 3584 3186 3129 
Q 3597 2675 3597 1894 
z
M 3022 2063 
Q 3016 2534 2758 2815 
Q 2500 3097 2075 3097 
Q 1594 3097 1305 2825 
Q 1016 2553 972 2059 
L 3022 2063 
z
" transform="scale(0.015625)"/>
       <path id="DejaVuSans-6d" d="M 3328 2828 
Q 3544 3216 3844 3400 
Q 4144 3584 4550 3584 
Q 5097 3584 5394 3201 
Q 5691 2819 5691 2113 
L 5691 0 
L 5113 0 
L 5113 2094 
Q 5113 2597 4934 2840 
Q 4756 3084 4391 3084 
Q 3944 3084 3684 2787 
Q 3425 2491 3425 1978 
L 3425 0 
L 2847 0 
L 2847 2094 
Q 2847 2600 2669 2842 
Q 2491 3084 2119 3084 
Q 1678 3084 1418 2786 
Q 1159 2488 1159 1978 
L 1159 0 
L 581 0 
L 581 3500 
L 1159 3500 
L 1159 2956 
Q 1356 3278 1631 3431 
Q 1906 3584 2284 3584 
Q 2666 3584 2933 3390 
Q 3200 3197 3328 2828 
z
" transform="scale(0.015625)"/>
       <path id="DejaVuSans-61" d="M 2194 1759 
Q 1497 1759 1228 1600 
Q 959 1441 959 1056 
Q 959 750 1161 570 
Q 1363 391 1709 391 
Q 2188 391 2477 730 
Q 2766 1069 2766 1631 
L 2766 1759 
L 2194 1759 
z
M 3341 1997 
L 3341 0 
L 2766 0 
L 2766 531 
Q 2569 213 2275 61 
Q 1981 -91 1556 -91 
Q 1019 -91 701 211 
Q 384 513 384 1019 
Q 384 1609 779 1909 
Q 1175 2209 1959 2209 
L 2766 2209 
L 2766 2266 
Q 2766 2663 2505 2880 
Q 2244 3097 1772 3097 
Q 1472 3097 1187 3025 
Q 903 2953 641 2809 
L 641 3341 
Q 956 3463 1253 3523 
Q 1550 3584 1831 3584 
Q 2591 3584 2966 3190 
Q 3341 2797 3341 1997 
z
" transform="scale(0.015625)"/>
       <path id="DejaVuSans-6e" d="M 3513 2113 
L 3513 0 
L 2938 0 
L 2938 2094 
Q 2938 2591 2744 2837 
Q 2550 3084 2163 3084 
Q 1697 3084 1428 2787 
Q 1159 2491 1159 1978 
L 1159 0 
L 581 0 
L 581 3500 
L 1159 3500 
L 1159 2956 
Q 1366 3272 1645 3428 
Q 1925 3584 2291 3584 
Q 2894 3584 3203 3211 
Q 3513 2838 3513 2113 
z
" transform="scale(0.015625)"/>
       <path id="DejaVuSans-74" d="M 1172 4494 
L 1172 3500 
L 2356 3500 
L 2356 3053 
L 1172 3053 
L 1172 1153 
Q 1172 725 1289 603 
Q 1406 481 1766 481 
L 2356 481 
L 2356 0 
L 1766 0 
Q 1100 0 847 248 
Q 594 497 594 1153 
L 594 3053 
L 172 3053 
L 172 3500 
L 594 3500 
L 594 4494 
L 1172 4494 
z
" transform="scale(0.015625)"/>
       <path id="DejaVuSans-69" d="M 603 3500 
L 1178 3500 
L 1178 0 
L 603 0 
L 603 3500 
z
M 603 4863 
L 1178 4863 
L 1178 4134 
L 603 4134 
L 603 4863 
z
" transform="scale(0.015625)"/>
       <path id="DejaVuSans-63" d="M 3122 3366 
L 3122 2828 
Q 2878 2963 2633 3030 
Q 2388 3097 2138 3097 
Q 1578 3097 1268 2742 
Q 959 2388 959 1747 
Q 959 1106 1268 751 
Q 1578 397 2138 397 
Q 2388 397 2633 464 
Q 2878 531 3122 666 
L 3122 134 
Q 2881 22 2623 -34 
Q 2366 -91 2075 -91 
Q 1284 -91 818 406 
Q 353 903 353 1747 
Q 353 2603 823 3093 
Q 1294 3584 2113 3584 
Q 2378 3584 2631 3529 
Q 2884 3475 3122 3366 
z
" transform="scale(0.015625)"/>
       <path id="DejaVuSans-20" transform="scale(0.015625)"/>
       <path id="DejaVuSans-75" d="M 544 1381 
L 544 3500 
L 1119 3500 
L 1119 1403 
Q 1119 906 1312 657 
Q 1506 409 1894 409 
Q 2359 409 2629 706 
Q 2900 1003 2900 1516 
L 2900 3500 
L 3475 3500 
L 3475 0 
L 2900 0 
L 2900 538 
Q 2691 219 2414 64 
Q 2138 -91 1772 -91 
Q 1169 -91 856 284 
Q 544 659 544 1381 
z
M 1991 3584 
L 1991 3584 
z
" transform="scale(0.015625)"/>
       <path id="DejaVuSans-6c" d="M 603 4863 
L 1178 4863 
L 1178 0 
L 603 0 
L 603 4863 
z
" transform="scale(0.015625)"/>
       <path id="DejaVuSans-28" d="M 1984 4856 
Q 1566 4138 1362 3434 
Q 1159 2731 1159 2009 
Q 1159 1288 1364 580 
Q 1569 -128 1984 -844 
L 1484 -844 
Q 1016 -109 783 600 
Q 550 1309 550 2009 
Q 550 2706 781 3412 
Q 1013 4119 1484 4856 
L 1984 4856 
z
" transform="scale(0.015625)"/>
       <path id="DejaVuSans-73" d="M 2834 3397 
L 2834 2853 
Q 2591 2978 2328 3040 
Q 2066 3103 1784 3103 
Q 1356 3103 1142 2972 
Q 928 2841 928 2578 
Q 928 2378 1081 2264 
Q 1234 2150 1697 2047 
L 1894 2003 
Q 2506 1872 2764 1633 
Q 3022 1394 3022 966 
Q 3022 478 2636 193 
Q 2250 -91 1575 -91 
Q 1294 -91 989 -36 
Q 684 19 347 128 
L 347 722 
Q 666 556 975 473 
Q 1284 391 1588 391 
Q 1994 391 2212 530 
Q 2431 669 2431 922 
Q 2431 1156 2273 1281 
Q 2116 1406 1581 1522 
L 1381 1569 
Q 847 1681 609 1914 
Q 372 2147 372 2553 
Q 372 3047 722 3315 
Q 1072 3584 1716 3584 
Q 2034 3584 2315 3537 
Q 2597 3491 2834 3397 
z
" transform="scale(0.015625)"/>
       <path id="DejaVuSans-70" d="M 1159 525 
L 1159 -1331 
L 581 -1331 
L 581 3500 
L 1159 3500 
L 1159 2969 
Q 1341 3281 1617 3432 
Q 1894 3584 2278 3584 
Q 2916 3584 3314 3078 
Q 3713 2572 3713 1747 
Q 3713 922 3314 415 
Q 2916 -91 2278 -91 
Q 1894 -91 1617 61 
Q 1341 213 1159 525 
z
M 3116 1747 
Q 3116 2381 2855 2742 
Q 2594 3103 2138 3103 
Q 1681 3103 1420 2742 
Q 1159 2381 1159 1747 
Q 1159 1113 1420 752 
Q 1681 391 2138 391 
Q 2594 391 2855 752 
Q 3116 1113 3116 1747 
z
" transform="scale(0.015625)"/>
       <path id="DejaVuSans-29" d="M 513 4856 
L 1013 4856 
Q 1481 4119 1714 3412 
Q 1947 2706 1947 2009 
Q 1947 1309 1714 600 
Q 1481 -109 1013 -844 
L 513 -844 
Q 928 -128 1133 580 
Q 1338 1288 1338 2009 
Q 1338 2731 1133 3434 
Q 928 4138 513 4856 
z
" transform="scale(0.015625)"/>
      </defs>
      <use xlink:href="#DejaVuSans-53"/>
      <use xlink:href="#DejaVuSans-65" transform="translate(63.476562 0)"/>
      <use xlink:href="#DejaVuSans-6d" transform="translate(125 0)"/>
      <use xlink:href="#DejaVuSans-61" transform="translate(222.412109 0)"/>
      <use xlink:href="#DejaVuSans-6e" transform="translate(283.691406 0)"/>
      <use xlink:href="#DejaVuSans-74" transform="translate(347.070312 0)"/>
      <use xlink:href="#DejaVuSans-69" transform="translate(386.279297 0)"/>
      <use xlink:href="#DejaVuSans-63" transform="translate(414.0625 0)"/>
      <use xlink:href="#DejaVuSans-20" transform="translate(469.042969 0)"/>
      <use xlink:href="#DejaVuSans-53" transform="translate(500.830078 0)"/>
      <use xlink:href="#DejaVuSans-74" transform="translate(564.306641 0)"/>
      <use xlink:href="#DejaVuSans-69" transform="translate(603.515625 0)"/>
      <use xlink:href="#DejaVuSans-6d" transform="translate(631.298828 0)"/>
      <use xlink:href="#DejaVuSans-75" transform="translate(728.710938 0)"/>
      <use xlink:href="#DejaVuSans-6c" transform="translate(792.089844 0)"/>
      <use xlink:href="#DejaVuSans-69" transform="translate(819.873047 0)"/>
      <use xlink:href="#DejaVuSans-20" transform="translate(847.65625 0)"/>
      <use xlink:href="#DejaVuSans-28" transform="translate(879.443359 0)"/>
      <use xlink:href="#DejaVuSans-73" transform="translate(918.457031 0)"/>
      <use xlink:href="#DejaVuSans-74" transform="translate(970.556641 0)"/>
      <use xlink:href="#DejaVuSans-65" transform="translate(1009.765625 0)"/>
      <use xlink:href="#DejaVuSans-70" transform="translate(1071.289062 0)"/>
      <use xlink:href="#DejaVuSans-29" transform="translate(1134.765625 0)"/>
     </g>
    </g>
    <g id="line2d_39">
     <path d="M 260.343437 69.248563 
L 270.343437 69.248563 
L 280.343437 69.248563 
" style="fill: none; stroke: #000000; stroke-width: 2; stroke-linecap: square"/>
    </g>
    <g id="text_9">
     <!-- Lanczos kernel -->
     <g transform="translate(288.343437 72.748563) scale(0.1 -0.1)">
      <defs>
       <path id="DejaVuSans-4c" d="M 628 4666 
L 1259 4666 
L 1259 531 
L 3531 531 
L 3531 0 
L 628 0 
L 628 4666 
z
" transform="scale(0.015625)"/>
       <path id="DejaVuSans-7a" d="M 353 3500 
L 3084 3500 
L 3084 2975 
L 922 459 
L 3084 459 
L 3084 0 
L 275 0 
L 275 525 
L 2438 3041 
L 353 3041 
L 353 3500 
z
" transform="scale(0.015625)"/>
       <path id="DejaVuSans-6f" d="M 1959 3097 
Q 1497 3097 1228 2736 
Q 959 2375 959 1747 
Q 959 1119 1226 758 
Q 1494 397 1959 397 
Q 2419 397 2687 759 
Q 2956 1122 2956 1747 
Q 2956 2369 2687 2733 
Q 2419 3097 1959 3097 
z
M 1959 3584 
Q 2709 3584 3137 3096 
Q 3566 2609 3566 1747 
Q 3566 888 3137 398 
Q 2709 -91 1959 -91 
Q 1206 -91 779 398 
Q 353 888 353 1747 
Q 353 2609 779 3096 
Q 1206 3584 1959 3584 
z
" transform="scale(0.015625)"/>
       <path id="DejaVuSans-6b" d="M 581 4863 
L 1159 4863 
L 1159 1991 
L 2875 3500 
L 3609 3500 
L 1753 1863 
L 3688 0 
L 2938 0 
L 1159 1709 
L 1159 0 
L 581 0 
L 581 4863 
z
" transform="scale(0.015625)"/>
       <path id="DejaVuSans-72" d="M 2631 2963 
Q 2534 3019 2420 3045 
Q 2306 3072 2169 3072 
Q 1681 3072 1420 2755 
Q 1159 2438 1159 1844 
L 1159 0 
L 581 0 
L 581 3500 
L 1159 3500 
L 1159 2956 
Q 1341 3275 1631 3429 
Q 1922 3584 2338 3584 
Q 2397 3584 2469 3576 
Q 2541 3569 2628 3553 
L 2631 2963 
z
" transform="scale(0.015625)"/>
      </defs>
      <use xlink:href="#DejaVuSans-4c"/>
      <use xlink:href="#DejaVuSans-61" transform="translate(55.712891 0)"/>
      <use xlink:href="#DejaVuSans-6e" transform="translate(116.992188 0)"/>
      <use xlink:href="#DejaVuSans-63" transform="translate(180.371094 0)"/>
      <use xlink:href="#DejaVuSans-7a" transform="translate(235.351562 0)"/>
      <use xlink:href="#DejaVuSans-6f" transform="translate(287.841797 0)"/>
      <use xlink:href="#DejaVuSans-73" transform="translate(349.023438 0)"/>
      <use xlink:href="#DejaVuSans-20" transform="translate(401.123047 0)"/>
      <use xlink:href="#DejaVuSans-6b" transform="translate(432.910156 0)"/>
      <use xlink:href="#DejaVuSans-65" transform="translate(487.195312 0)"/>
      <use xlink:href="#DejaVuSans-72" transform="translate(548.71875 0)"/>
      <use xlink:href="#DejaVuSans-6e" transform="translate(588.082031 0)"/>
      <use xlink:href="#DejaVuSans-65" transform="translate(651.460938 0)"/>
      <use xlink:href="#DejaVuSans-6c" transform="translate(712.984375 0)"/>
     </g>
    </g>
    <g id="line2d_40">
     <defs>
      <path id="m1487914121" d="M 0 4 
C 1.060812 4 2.078319 3.578535 2.828427 2.828427 
C 3.578535 2.078319 4 1.060812 4 0 
C 4 -1.060812 3.578535 -2.078319 2.828427 -2.828427 
C 2.078319 -3.578535 1.060812 -4 0 -4 
C -1.060812 -4 -2.078319 -3.578535 -2.828427 -2.828427 
C -3.578535 -2.078319 -4 -1.060812 -4 0 
C -4 1.060812 -3.578535 2.078319 -2.828427 2.828427 
C -2.078319 3.578535 -1.060812 4 0 4 
z
" style="stroke: #ffffff"/>
     </defs>
     <g>
      <use xlink:href="#m1487914121" x="270.343437" y="83.926688" style="stroke: #ffffff"/>
     </g>
    </g>
    <g id="text_10">
     <!-- Contributions -->
     <g transform="translate(288.343437 87.426688) scale(0.1 -0.1)">
      <defs>
       <path id="DejaVuSans-43" d="M 4122 4306 
L 4122 3641 
Q 3803 3938 3442 4084 
Q 3081 4231 2675 4231 
Q 1875 4231 1450 3742 
Q 1025 3253 1025 2328 
Q 1025 1406 1450 917 
Q 1875 428 2675 428 
Q 3081 428 3442 575 
Q 3803 722 4122 1019 
L 4122 359 
Q 3791 134 3420 21 
Q 3050 -91 2638 -91 
Q 1578 -91 968 557 
Q 359 1206 359 2328 
Q 359 3453 968 4101 
Q 1578 4750 2638 4750 
Q 3056 4750 3426 4639 
Q 3797 4528 4122 4306 
z
" transform="scale(0.015625)"/>
       <path id="DejaVuSans-62" d="M 3116 1747 
Q 3116 2381 2855 2742 
Q 2594 3103 2138 3103 
Q 1681 3103 1420 2742 
Q 1159 2381 1159 1747 
Q 1159 1113 1420 752 
Q 1681 391 2138 391 
Q 2594 391 2855 752 
Q 3116 1113 3116 1747 
z
M 1159 2969 
Q 1341 3281 1617 3432 
Q 1894 3584 2278 3584 
Q 2916 3584 3314 3078 
Q 3713 2572 3713 1747 
Q 3713 922 3314 415 
Q 2916 -91 2278 -91 
Q 1894 -91 1617 61 
Q 1341 213 1159 525 
L 1159 0 
L 581 0 
L 581 4863 
L 1159 4863 
L 1159 2969 
z
" transform="scale(0.015625)"/>
      </defs>
      <use xlink:href="#DejaVuSans-43"/>
      <use xlink:href="#DejaVuSans-6f" transform="translate(69.824219 0)"/>
      <use xlink:href="#DejaVuSans-6e" transform="translate(131.005859 0)"/>
      <use xlink:href="#DejaVuSans-74" transform="translate(194.384766 0)"/>
      <use xlink:href="#DejaVuSans-72" transform="translate(233.59375 0)"/>
      <use xlink:href="#DejaVuSans-69" transform="translate(274.707031 0)"/>
      <use xlink:href="#DejaVuSans-62" transform="translate(302.490234 0)"/>
      <use xlink:href="#DejaVuSans-75" transform="translate(365.966797 0)"/>
      <use xlink:href="#DejaVuSans-74" transform="translate(429.345703 0)"/>
      <use xlink:href="#DejaVuSans-69" transform="translate(468.554688 0)"/>
      <use xlink:href="#DejaVuSans-6f" transform="translate(496.337891 0)"/>
      <use xlink:href="#DejaVuSans-6e" transform="translate(557.519531 0)"/>
      <use xlink:href="#DejaVuSans-73" transform="translate(620.898438 0)"/>
     </g>
    </g>
   </g>
  </g>
 </g>
 <defs>
  <clipPath id="pb5bd6a72ac">
   <rect x="57.6" y="41.472" width="357.12" height="266.112"/>
  </clipPath>
 </defs>
</svg>
