<?xml version="1.0" encoding="UTF-8"?>
<svg id="Layer_1" data-name="Layer 1" xmlns="http://www.w3.org/2000/svg" xmlns:xlink="http://www.w3.org/1999/xlink" viewBox="0 0 460.8 345.6">
  <defs>
    <style>
      .cls-1, .cls-2, .cls-3, .cls-4, .cls-5, .cls-6, .cls-7, .cls-8, .cls-9, .cls-10, .cls-11, .cls-12, .cls-13, .cls-14, .cls-15, .cls-16, .cls-17, .cls-18, .cls-19, .cls-20, .cls-21, .cls-22 {
        fill: none;
      }

      .cls-23 {
        fill: #10a2f0;
      }

      .cls-23, .cls-24, .cls-3, .cls-5, .cls-25, .cls-26, .cls-6, .cls-27, .cls-28, .cls-29, .cls-7, .cls-8, .cls-9, .cls-30, .cls-31, .cls-32, .cls-11, .cls-33, .cls-34, .cls-35, .cls-36, .cls-12, .cls-37, .cls-13, .cls-14, .cls-15, .cls-16, .cls-17, .cls-38, .cls-39, .cls-18, .cls-40, .cls-41, .cls-42, .cls-43, .cls-44, .cls-45, .cls-22 {
        stroke-linejoin: round;
      }

      .cls-23, .cls-14 {
        stroke: #10a2f0;
      }

      .cls-24 {
        fill: #d5dd7f;
      }

      .cls-24, .cls-6 {
        stroke: #d5dd7f;
      }

      .cls-2 {
        stroke: #9dfba4;
      }

      .cls-2, .cls-4, .cls-10, .cls-19, .cls-21 {
        stroke-miterlimit: 10;
        stroke-width: 2.2px;
      }

      .cls-46, .cls-28 {
        fill: #8000ff;
      }

      .cls-3, .cls-5, .cls-6, .cls-7, .cls-8, .cls-9, .cls-11, .cls-12, .cls-13, .cls-14, .cls-15, .cls-22 {
        stroke-width: 2px;
      }

      .cls-3, .cls-5, .cls-6, .cls-7, .cls-9, .cls-11, .cls-12, .cls-13, .cls-14, .cls-15, .cls-16, .cls-17, .cls-18, .cls-20, .cls-22 {
        stroke-linecap: square;
      }

      .cls-3, .cls-36 {
        stroke: #9cfba4;
      }

      .cls-47 {
        isolation: isolate;
        opacity: .8;
        stroke: #ccc;
      }

      .cls-47, .cls-48, .cls-39 {
        fill: #fff;
      }

      .cls-4, .cls-9, .cls-34 {
        stroke: red;
      }

      .cls-5, .cls-10, .cls-40 {
        stroke: #2bdddd;
      }

      .cls-25 {
        fill: #ff562c;
      }

      .cls-25, .cls-22 {
        stroke: #ff562c;
      }

      .cls-26 {
        fill: rgba(156, 251, 164, .3);
        stroke: rgba(156, 251, 164, .3);
      }

      .cls-27, .cls-49 {
        fill: #ffa256;
      }

      .cls-27, .cls-13, .cls-21 {
        stroke: #ffa256;
      }

      .cls-28, .cls-7, .cls-19 {
        stroke: #8000ff;
      }

      .cls-29 {
        fill: rgba(16, 162, 240, .3);
        stroke: rgba(16, 162, 240, .3);
      }

      .cls-8 {
        stroke-linecap: round;
      }

      .cls-8, .cls-12, .cls-16, .cls-18, .cls-42, .cls-20 {
        stroke: #000;
      }

      .cls-30 {
        fill: rgba(255, 162, 86, .3);
        stroke: rgba(255, 162, 86, .3);
      }

      .cls-31, .cls-39 {
        stroke: #fff;
      }

      .cls-50 {
        clip-path: url(#clippath-17);
      }

      .cls-51 {
        clip-path: url(#clippath-19);
      }

      .cls-52 {
        clip-path: url(#clippath-11);
      }

      .cls-53 {
        clip-path: url(#clippath-16);
      }

      .cls-54 {
        clip-path: url(#clippath-18);
      }

      .cls-55 {
        clip-path: url(#clippath-10);
      }

      .cls-56 {
        clip-path: url(#clippath-15);
      }

      .cls-57 {
        clip-path: url(#clippath-13);
      }

      .cls-58 {
        clip-path: url(#clippath-14);
      }

      .cls-59 {
        clip-path: url(#clippath-12);
      }

      .cls-60 {
        clip-path: url(#clippath-31);
      }

      .cls-61 {
        clip-path: url(#clippath-32);
      }

      .cls-62 {
        clip-path: url(#clippath-33);
      }

      .cls-63 {
        clip-path: url(#clippath-34);
      }

      .cls-64 {
        clip-path: url(#clippath-35);
      }

      .cls-65 {
        clip-path: url(#clippath-39);
      }

      .cls-66 {
        clip-path: url(#clippath-30);
      }

      .cls-67 {
        clip-path: url(#clippath-36);
      }

      .cls-68 {
        clip-path: url(#clippath-37);
      }

      .cls-69 {
        clip-path: url(#clippath-38);
      }

      .cls-70 {
        clip-path: url(#clippath-27);
      }

      .cls-71 {
        clip-path: url(#clippath-29);
      }

      .cls-72 {
        clip-path: url(#clippath-26);
      }

      .cls-73 {
        clip-path: url(#clippath-28);
      }

      .cls-74 {
        clip-path: url(#clippath-20);
      }

      .cls-75 {
        clip-path: url(#clippath-21);
      }

      .cls-76 {
        clip-path: url(#clippath-22);
      }

      .cls-77 {
        clip-path: url(#clippath-23);
      }

      .cls-78 {
        clip-path: url(#clippath-24);
      }

      .cls-79 {
        clip-path: url(#clippath-25);
      }

      .cls-80 {
        clip-path: url(#clippath-41);
      }

      .cls-81 {
        clip-path: url(#clippath-42);
      }

      .cls-82 {
        clip-path: url(#clippath-43);
      }

      .cls-83 {
        clip-path: url(#clippath-40);
      }

      .cls-84 {
        clip-path: url(#clippath-1);
      }

      .cls-85 {
        clip-path: url(#clippath-3);
      }

      .cls-86 {
        clip-path: url(#clippath-4);
      }

      .cls-87 {
        clip-path: url(#clippath-2);
      }

      .cls-88 {
        clip-path: url(#clippath-7);
      }

      .cls-89 {
        clip-path: url(#clippath-6);
      }

      .cls-90 {
        clip-path: url(#clippath-9);
      }

      .cls-91 {
        clip-path: url(#clippath-8);
      }

      .cls-92 {
        clip-path: url(#clippath-5);
      }

      .cls-32 {
        fill: rgba(43, 221, 221, .3);
        stroke: rgba(43, 221, 221, .3);
      }

      .cls-11, .cls-41 {
        stroke: #4756fb;
      }

      .cls-33 {
        fill: rgba(128, 0, 255, .3);
        stroke: rgba(128, 0, 255, .3);
      }

      .cls-34, .cls-93 {
        fill: red;
      }

      .cls-35 {
        fill: rgba(255, 0, 0, .3);
        stroke: rgba(255, 0, 0, .3);
      }

      .cls-36 {
        fill: #9cfba4;
      }

      .cls-37 {
        fill: #62fbc4;
      }

      .cls-37, .cls-15 {
        stroke: #62fbc4;
      }

      .cls-16, .cls-17 {
        stroke-width: 1.5px;
      }

      .cls-17 {
        stroke: rgba(128, 128, 128, .5);
      }

      .cls-94, .cls-40 {
        fill: #2bdddd;
      }

      .cls-38 {
        fill: rgba(71, 86, 251, .3);
        stroke: rgba(71, 86, 251, .3);
      }

      .cls-18 {
        stroke-width: .5px;
      }

      .cls-95 {
        fill: #9dfba4;
      }

      .cls-41 {
        fill: #4756fb;
      }

      .cls-42, .cls-20 {
        stroke-width: .8px;
      }

      .cls-96 {
        clip-path: url(#clippath);
      }

      .cls-43 {
        fill: rgba(255, 86, 44, .3);
        stroke: rgba(255, 86, 44, .3);
      }

      .cls-44 {
        fill: rgba(213, 221, 127, .3);
        stroke: rgba(213, 221, 127, .3);
      }

      .cls-45 {
        fill: rgba(98, 251, 196, .3);
        stroke: rgba(98, 251, 196, .3);
      }
    </style>
    <clipPath id="clippath">
      <rect class="cls-1" x="57.6" y="41.11" width="357.12" height="266.11"/>
    </clipPath>
    <clipPath id="clippath-1">
      <rect class="cls-1" x="57.6" y="41.11" width="357.12" height="266.11"/>
    </clipPath>
    <clipPath id="clippath-2">
      <rect class="cls-1" x="57.6" y="41.11" width="357.12" height="266.11"/>
    </clipPath>
    <clipPath id="clippath-3">
      <rect class="cls-1" x="57.6" y="41.11" width="357.12" height="266.11"/>
    </clipPath>
    <clipPath id="clippath-4">
      <rect class="cls-1" x="57.6" y="41.11" width="357.12" height="266.11"/>
    </clipPath>
    <clipPath id="clippath-5">
      <rect class="cls-1" x="57.6" y="41.11" width="357.12" height="266.11"/>
    </clipPath>
    <clipPath id="clippath-6">
      <rect class="cls-1" x="57.6" y="41.11" width="357.12" height="266.11"/>
    </clipPath>
    <clipPath id="clippath-7">
      <rect class="cls-1" x="57.6" y="41.11" width="357.12" height="266.11"/>
    </clipPath>
    <clipPath id="clippath-8">
      <rect class="cls-1" x="57.6" y="41.11" width="357.12" height="266.11"/>
    </clipPath>
    <clipPath id="clippath-9">
      <rect class="cls-1" x="57.6" y="41.11" width="357.12" height="266.11"/>
    </clipPath>
    <clipPath id="clippath-10">
      <rect class="cls-1" x="57.6" y="41.11" width="357.12" height="266.11"/>
    </clipPath>
    <clipPath id="clippath-11">
      <rect class="cls-1" x="57.6" y="41.11" width="357.12" height="266.11"/>
    </clipPath>
    <clipPath id="clippath-12">
      <rect class="cls-1" x="57.6" y="41.11" width="357.12" height="266.11"/>
    </clipPath>
    <clipPath id="clippath-13">
      <rect class="cls-1" x="57.6" y="41.11" width="357.12" height="266.11"/>
    </clipPath>
    <clipPath id="clippath-14">
      <rect class="cls-1" x="57.6" y="41.11" width="357.12" height="266.11"/>
    </clipPath>
    <clipPath id="clippath-15">
      <rect class="cls-1" x="57.6" y="41.11" width="357.12" height="266.11"/>
    </clipPath>
    <clipPath id="clippath-16">
      <rect class="cls-1" x="57.6" y="41.11" width="357.12" height="266.11"/>
    </clipPath>
    <clipPath id="clippath-17">
      <rect class="cls-1" x="57.6" y="41.11" width="357.12" height="266.11"/>
    </clipPath>
    <clipPath id="clippath-18">
      <rect class="cls-1" x="57.6" y="41.11" width="357.12" height="266.11"/>
    </clipPath>
    <clipPath id="clippath-19">
      <rect class="cls-1" x="57.6" y="41.11" width="357.12" height="266.11"/>
    </clipPath>
    <clipPath id="clippath-20">
      <rect class="cls-1" x="57.6" y="41.11" width="357.12" height="266.11"/>
    </clipPath>
    <clipPath id="clippath-21">
      <rect class="cls-1" x="57.6" y="41.11" width="357.12" height="266.11"/>
    </clipPath>
    <clipPath id="clippath-22">
      <rect class="cls-1" x="57.6" y="41.11" width="357.12" height="266.11"/>
    </clipPath>
    <clipPath id="clippath-23">
      <rect class="cls-1" x="57.6" y="41.11" width="357.12" height="266.11"/>
    </clipPath>
    <clipPath id="clippath-24">
      <rect class="cls-1" x="57.6" y="41.11" width="357.12" height="266.11"/>
    </clipPath>
    <clipPath id="clippath-25">
      <rect class="cls-1" x="57.6" y="41.11" width="357.12" height="266.11"/>
    </clipPath>
    <clipPath id="clippath-26">
      <rect class="cls-1" x="57.6" y="41.11" width="357.12" height="266.11"/>
    </clipPath>
    <clipPath id="clippath-27">
      <rect class="cls-1" x="57.6" y="41.11" width="357.12" height="266.11"/>
    </clipPath>
    <clipPath id="clippath-28">
      <rect class="cls-1" x="57.6" y="41.11" width="357.12" height="266.11"/>
    </clipPath>
    <clipPath id="clippath-29">
      <rect class="cls-1" x="57.6" y="41.11" width="357.12" height="266.11"/>
    </clipPath>
    <clipPath id="clippath-30">
      <rect class="cls-1" x="57.6" y="41.11" width="357.12" height="266.11"/>
    </clipPath>
    <clipPath id="clippath-31">
      <rect class="cls-1" x="57.6" y="41.11" width="357.12" height="266.11"/>
    </clipPath>
    <clipPath id="clippath-32">
      <rect class="cls-1" x="57.6" y="41.11" width="357.12" height="266.11"/>
    </clipPath>
    <clipPath id="clippath-33">
      <rect class="cls-1" x="57.6" y="41.11" width="357.12" height="266.11"/>
    </clipPath>
    <clipPath id="clippath-34">
      <rect class="cls-1" x="57.6" y="41.11" width="357.12" height="266.11"/>
    </clipPath>
    <clipPath id="clippath-35">
      <rect class="cls-1" x="57.6" y="41.11" width="357.12" height="266.11"/>
    </clipPath>
    <clipPath id="clippath-36">
      <rect class="cls-1" x="57.6" y="41.11" width="357.12" height="266.11"/>
    </clipPath>
    <clipPath id="clippath-37">
      <rect class="cls-1" x="57.6" y="41.11" width="357.12" height="266.11"/>
    </clipPath>
    <clipPath id="clippath-38">
      <rect class="cls-1" x="57.6" y="41.11" width="357.12" height="266.11"/>
    </clipPath>
    <clipPath id="clippath-39">
      <rect class="cls-1" x="57.6" y="41.11" width="357.12" height="266.11"/>
    </clipPath>
    <clipPath id="clippath-40">
      <rect class="cls-1" x="57.6" y="41.11" width="357.12" height="266.11"/>
    </clipPath>
    <clipPath id="clippath-41">
      <rect class="cls-1" x="57.6" y="41.11" width="357.12" height="266.11"/>
    </clipPath>
    <clipPath id="clippath-42">
      <rect class="cls-1" x="57.6" y="41.11" width="357.12" height="266.11"/>
    </clipPath>
    <clipPath id="clippath-43">
      <rect class="cls-1" x="57.6" y="41.11" width="357.12" height="266.11"/>
    </clipPath>
  </defs>
  <g id="cts">
    <g id="patch_1" data-name="patch 1">
      <path class="cls-48" d="M0,345.24h460.8V-.36H0v345.6Z"/>
    </g>
    <g id="axes_1" data-name="axes 1">
      <g id="patch_2" data-name="patch 2">
        <path class="cls-48" d="M57.6,307.22h357.12V41.11H57.6v266.11Z"/>
      </g>
      <g id="PathCollection_1" data-name="PathCollection 1">
        <g class="cls-96">
          <g>
            <path id="m53fe3053d6" class="cls-39" d="M79.34,254.88c.8,0,1.56-.32,2.12-.88.56-.56.88-1.33.88-2.12s-.32-1.56-.88-2.12c-.56-.56-1.33-.88-2.12-.88s-1.56.32-2.12.88c-.56.56-.88,1.33-.88,2.12s.32,1.56.88,2.12c.56.56,1.33.88,2.12.88Z"/>
            <path id="m53fe3053d6-2" data-name="m53fe3053d6" class="cls-39" d="M101.45,297.08c.8,0,1.56-.32,2.12-.88.56-.56.88-1.33.88-2.12s-.32-1.56-.88-2.12c-.56-.56-1.33-.88-2.12-.88s-1.56.32-2.12.88c-.56.56-.88,1.33-.88,2.12s.32,1.56.88,2.12c.56.56,1.33.88,2.12.88Z"/>
            <path id="m53fe3053d6-3" data-name="m53fe3053d6" class="cls-39" d="M121.94,56.2c.8,0,1.56-.32,2.12-.88.56-.56.88-1.33.88-2.12s-.32-1.56-.88-2.12c-.56-.56-1.33-.88-2.12-.88s-1.56.32-2.12.88c-.56.56-.88,1.33-.88,2.12s.32,1.56.88,2.12c.56.56,1.33.88,2.12.88Z"/>
            <path id="m53fe3053d6-4" data-name="m53fe3053d6" class="cls-39" d="M178.84,197.77c.8,0,1.56-.32,2.12-.88.56-.56.88-1.33.88-2.12s-.32-1.56-.88-2.12c-.56-.56-1.33-.88-2.12-.88s-1.56.32-2.12.88c-.56.56-.88,1.33-.88,2.12s.32,1.56.88,2.12c.56.56,1.33.88,2.12.88Z"/>
            <path id="m53fe3053d6-5" data-name="m53fe3053d6" class="cls-39" d="M217.13,298.12c.8,0,1.56-.32,2.12-.88.56-.56.88-1.33.88-2.12s-.32-1.56-.88-2.12c-.56-.56-1.33-.88-2.12-.88s-1.56.32-2.12.88c-.56.56-.88,1.33-.88,2.12s.32,1.56.88,2.12c.56.56,1.33.88,2.12.88Z"/>
            <path id="m53fe3053d6-6" data-name="m53fe3053d6" class="cls-39" d="M250.29,148.11c.8,0,1.56-.32,2.12-.88.56-.56.88-1.33.88-2.12s-.32-1.56-.88-2.12c-.56-.56-1.33-.88-2.12-.88s-1.56.32-2.12.88c-.56.56-.88,1.33-.88,2.12s.32,1.56.88,2.12c.56.56,1.33.88,2.12.88Z"/>
            <path id="m53fe3053d6-7" data-name="m53fe3053d6" class="cls-39" d="M274.56,224.44c.8,0,1.56-.32,2.12-.88.56-.56.88-1.33.88-2.12s-.32-1.56-.88-2.12c-.56-.56-1.33-.88-2.12-.88s-1.56.32-2.12.88c-.56.56-.88,1.33-.88,2.12s.32,1.56.88,2.12c.56.56,1.33.88,2.12.88Z"/>
            <path id="m53fe3053d6-8" data-name="m53fe3053d6" class="cls-39" d="M304.22,169.59c.8,0,1.56-.32,2.12-.88.56-.56.88-1.33.88-2.12s-.32-1.56-.88-2.12c-.56-.56-1.33-.88-2.12-.88s-1.56.32-2.12.88c-.56.56-.88,1.33-.88,2.12s.32,1.56.88,2.12c.56.56,1.33.88,2.12.88Z"/>
            <path id="m53fe3053d6-9" data-name="m53fe3053d6" class="cls-39" d="M358.69,275.21c.8,0,1.56-.32,2.12-.88.56-.56.88-1.33.88-2.12s-.32-1.56-.88-2.12c-.56-.56-1.33-.88-2.12-.88s-1.56.32-2.12.88c-.56.56-.88,1.33-.88,2.12s.32,1.56.88,2.12c.56.56,1.33.88,2.12.88Z"/>
            <path id="m53fe3053d6-10" data-name="m53fe3053d6" class="cls-39" d="M373.79,147.43c.8,0,1.56-.32,2.12-.88.56-.56.88-1.33.88-2.12s-.32-1.56-.88-2.12c-.56-.56-1.33-.88-2.12-.88s-1.56.32-2.12.88c-.56.56-.88,1.33-.88,2.12s.32,1.56.88,2.12c.56.56,1.33.88,2.12.88Z"/>
          </g>
        </g>
      </g>
      <g id="FillBetweenPolyCollection_1" data-name="FillBetweenPolyCollection 1">
        <g class="cls-84">
          <path id="m0ee7418490" class="cls-35" d="M79.5,175.88v-.11h.27s.27-.02.27-.02h.27s.27-.02.27-.02h.27s.27-.03.27-.03h.27s.27-.03.27-.03h.27s.27-.03.27-.03l.27-.02.27-.02.27-.02.27-.02.27-.02.27-.02.27-.02.27-.02.27-.02.27-.02.27-.02.27-.02.27-.02.27-.02.27-.02.27-.02.27-.02.27-.02.27-.02.27-.02.27-.02.27-.02.27-.03.27-.03.27-.03.27-.03.27-.03.27-.03.27-.03.27-.03.27-.03.27-.03.27-.03.27-.03.27-.03.27-.03.27-.03.27-.03.27-.03.27-.03.27-.03.27-.03.27-.03.27-.03.27-.03.27-.03.27-.03.27-.03.27-.03.27-.03.27-.03.27-.03.27-.03.27-.03.27-.03.27-.03.27-.03.27-.03.27-.03.27-.03.27-.03.27-.03.27-.03.27-.03.27-.03.27-.03.27-.03.27-.03.27-.03.27-.03.27-.03v2.08h-21.84Z"/>
        </g>
      </g>
      <g id="FillBetweenPolyCollection_2" data-name="FillBetweenPolyCollection 2">
        <g class="cls-87">
          <path id="m55a487486b" class="cls-43" d="M101.61,175.88v-2.1l.27-.03.27-.02.27-.02.27-.02.27-.02.27-.02.27-.02.27-.02.27-.02.27-.02.27-.02.27-.02.27-.02.27-.02.27-.02.27-.02.27-.02.27-.02h.27s.27-.03.27-.03h.27s.27-.03.27-.03h.27s.27-.02.27-.02h.27s.27-.02.27-.02h.27s.27-.01.27-.01h.27s.27-.01.27-.01h.27s.27,0,.27,0h.27s.27,0,.27,0h.27s.27,0,.27,0h.27s.27,0,.27,0h.27s.27,0,.27,0h.27s.27.01.27.01h.27s.27.02.27.02h.27s.27.02.27.02h.27s.27.03.27.03l.27.02.27.02.27.02.27.02.27.02.27.02.27.02.27.03.27.03.27.03.27.03.27.03.27.03.27.03.27.04.27.04.27.04.27.04.27.04.27.04.27.04.27.05.27.05.27.05.27.05.27.05.27.05v1.59h-20.22Z"/>
        </g>
      </g>
      <g id="FillBetweenPolyCollection_3" data-name="FillBetweenPolyCollection 3">
        <g class="cls-85">
          <path id="mee84376597" class="cls-30" d="M122.1,175.88v-1.54l.27.06.27.06.27.06.27.06.27.06.27.06.27.06.27.07.27.07.27.07.27.07.27.07.27.07.27.07.27.08.27.08.27.08.27.08.27.08.27.08.27.08.27.09.27.09.27.09.27.09.27.09.27.09.27.09.27.1.27.1.27.1.27.1.27.1.27.1.27.1.27.1.27.1.27.11.27.11.27.11.27.11.27.11.27.11.27.11.27.11.27.11.27.12.27.12.27.12.27.12.27.12.27.12.27.12.27.12.27.12.27.12.27.12.27.12.27.12.27.13.27.13.27.13.27.13.27.13.27.13.27.13.27.13.27.13.27.13.27.13.27.13.27.13.27.13.27.13.27.13.27.13.27.13.27.13.27.13.27.13.27.13.27.13.27.13.27.13.27.13.27.13.27.13.27.13.27.12.27.12.27.12.27.12.27.12.27.12.27.12.27.12.27.12.27.12.27.12.27.11.27.11.27.11.27.11.27.11.27.11.27.11.27.11.27.1.27.1.27.1.27.1.27.1.27.1.27.09.27.09.27.09.27.09.27.09.27.08.27.08.27.08.27.08.27.07.27.07.27.07.27.07.27.06.27.06.27.06.27.06.27.05.27.05.27.05.27.05.27.04.27.04.27.04.27.03.27.03.27.03.27.02.27.02.27.02h.27s.27.02.27.02h.27s.27.01.27.01h.27s.27,0,.27,0h.27s.27-.02.27-.02h.27s.27-.03.27-.03l.27-.02.27-.03.27-.03.27-.03.27-.04.27-.04.27-.05.27-.05.27-.05.27-.06.27-.06.27-.07.27-.07.27-.07.27-.08.27-.08.27-.09.27-.09.27-.1.27-.1.27-.11.27-.11.27-.11.27-.12.27-.12.27-.13.27-.13.27-.14.27-.14.27-.15.27-.15.27-.16.27-.16.27-.17.27-.17.27-.18.27-.18.27-.19.27-.19.27-.2.27-.2.27-.21.27-.21.27-.22.27-.22.27-.23.27-.23.27-.24.27-.24.27-.25.27-.25.27-.26.27-.26.27-.27.27-.27.27-.28.27-.28v-3.96h-56.63Z"/>
        </g>
      </g>
      <g id="FillBetweenPolyCollection_4" data-name="FillBetweenPolyCollection 4">
        <g class="cls-86">
          <path id="mdee0dd8f28" class="cls-44" d="M178.99,175.88v3.67l.27-.29.27-.3.27-.3.27-.31.27-.31.27-.32.27-.32.27-.32.27-.33.27-.33.27-.34.27-.34.27-.35.27-.35.27-.36.27-.36.27-.37.27-.37.27-.38.27-.38.27-.39.27-.39.27-.4.27-.4.27-.4.27-.41.27-.41.27-.42.27-.42.27-.43.27-.43.27-.43.27-.44.27-.44.27-.45.27-.45.27-.45.27-.46.27-.46.27-.47.27-.47.27-.47.27-.48.27-.48.27-.48.27-.49.27-.49.27-.49.27-.5.27-.5.27-.5.27-.51.27-.51.27-.51.27-.52.27-.52.27-.52.27-.53.27-.53.27-.53.27-.53.27-.54.27-.54.27-.54.27-.54.27-.54.27-.55.27-.55.27-.55.27-.55.27-.55.27-.56.27-.56.27-.56.27-.56.27-.56.27-.56.27-.56.27-.57.27-.57.27-.57.27-.57.27-.57.27-.57.27-.57.27-.57.27-.57.27-.57.27-.57.27-.57.27-.57.27-.57.27-.57.27-.57.27-.57.27-.57.27-.57.27-.57.27-.57.27-.57.27-.57.27-.57.27-.57.27-.57.27-.57.27-.56.27-.56.27-.56.27-.56.27-.56.27-.56.27-.55.27-.55.27-.55.27-.55.27-.55.27-.54.27-.54.27-.54.27-.54.27-.53.27-.53.27-.53.27-.53.27-.52.27-.52.27-.52.27-.51.27-.51.27-.51.27-.5.27-.5.27-.5.27-.49.27-.49.27-.49.27-.48.27-.48.27-.47.27-.47.27-.46v65.8h-38.02Z"/>
        </g>
      </g>
      <g id="FillBetweenPolyCollection_5" data-name="FillBetweenPolyCollection 5">
        <g class="cls-92">
          <path id="m4def56bd12" class="cls-26" d="M217.28,175.88v-66.26l.27-.46.27-.45.27-.45.27-.44.27-.44.27-.43.27-.43.27-.42.27-.42.27-.41.27-.41.27-.4.27-.4.27-.39.27-.39.27-.38.27-.37.27-.37.27-.36.27-.36.27-.35.27-.34.27-.34.27-.33.27-.33.27-.32.27-.31.27-.31.27-.3.27-.29.27-.29.27-.28.27-.28.27-.27.27-.26.27-.26.27-.25.27-.24.27-.23.27-.23.27-.22.27-.21.27-.21.27-.2.27-.19.27-.19.27-.18.27-.17.27-.16.27-.16.27-.15.27-.14.27-.13.27-.13.27-.12.27-.11.27-.1.27-.1.27-.09.27-.08.27-.07.27-.07.27-.06.27-.05.27-.04.27-.04.27-.03.27-.02h.27s.27-.02.27-.02h.27s.27,0,.27,0l.27.02.27.02.27.03.27.04.27.05.27.05.27.06.27.07.27.08.27.08.27.09.27.1.27.11.27.11.27.12.27.13.27.14.27.14.27.15.27.16.27.17.27.17.27.18.27.19.27.19.27.2.27.21.27.22.27.22.27.23.27.24.27.24.27.25.27.26.27.26.27.27.27.28.27.28.27.29.27.3.27.3.27.31.27.32.27.32.27.33.27.33.27.34.27.35.27.35.27.36v74h-32.9Z"/>
        </g>
      </g>
      <g id="FillBetweenPolyCollection_6" data-name="FillBetweenPolyCollection 6">
        <g class="cls-89">
          <path id="m608fce6eb3" class="cls-45" d="M250.45,175.88v-73.64l.27.37.27.38.27.38.27.39.27.39.27.4.27.4.27.41.27.41.27.42.27.42.27.43.27.43.27.44.27.44.27.45.27.45.27.46.27.46.27.47.27.47.27.47.27.48.27.48.27.49.27.49.27.49.27.5.27.5.27.5.27.51.27.51.27.51.27.52.27.52.27.52.27.53.27.53.27.53.27.54.27.54.27.54.27.54.27.55.27.55.27.55.27.55.27.55.27.56.27.56.27.56.27.56.27.56.27.56.27.56.27.57.27.57.27.57.27.57.27.57.27.57.27.57.27.57.27.57.27.57.27.57.27.57.27.57.27.57.27.57.27.57.27.57.27.57.27.57.27.57.27.57.27.57.27.57.27.57.27.57.27.57.27.57.27.56.27.56.27.56.27.56.27.56.27.56.27.56v27.54h-24Z"/>
        </g>
      </g>
      <g id="FillBetweenPolyCollection_7" data-name="FillBetweenPolyCollection 7">
        <g class="cls-88">
          <path id="m8776b41a82" class="cls-32" d="M274.72,175.88v-26.98l.27.55.27.55.27.55.27.55.27.54.27.54.27.54.27.54.27.54.27.53.27.53.27.53.27.52.27.52.27.52.27.52.27.51.27.51.27.51.27.5.27.5.27.5.27.49.27.49.27.49.27.48.27.48.27.48.27.47.27.47.27.47.27.46.27.46.27.45.27.45.27.45.27.44.27.44.27.43.27.43.27.43.27.42.27.42.27.41.27.41.27.4.27.4.27.39.27.39.27.39.27.38.27.38.27.37.27.37.27.36.27.36.27.35.27.35.27.34.27.34.27.33.27.33.27.32.27.32.27.31.27.31.27.3.27.3.27.29.27.29.27.28.27.28.27.27.27.27.27.26.27.26.27.25.27.25.27.24.27.24.27.23.27.23.27.22.27.22.27.21.27.21.27.21.27.2.27.2.27.19.27.19.27.18.27.18.27.17.27.17.27.16.27.16.27.15.27.15.27.14.27.14.27.13.27.13.27.12.27.12.27.11.27.11.27.11.27.1v-11.18h-29.39Z"/>
        </g>
      </g>
      <g id="FillBetweenPolyCollection_8" data-name="FillBetweenPolyCollection 8">
        <g class="cls-91">
          <path id="m7e10911c52" class="cls-29" d="M304.38,175.88v11.28l.27.09.27.09.27.08.27.08.27.07.27.07.27.07.27.06.27.06.27.05.27.05.27.04.27.04.27.04.27.03.27.03.27.03.27.02.27.02h.27s.27.02.27.02h.27s.27,0,.27,0h.27s.27,0,.27,0h.27s.27-.02.27-.02h.27s.27-.03.27-.03l.27-.02.27-.02.27-.03.27-.03.27-.03.27-.04.27-.04.27-.04.27-.05.27-.05.27-.05.27-.05.27-.06.27-.06.27-.06.27-.07.27-.07.27-.07.27-.07.27-.07.27-.08.27-.08.27-.08.27-.08.27-.09.27-.09.27-.09.27-.09.27-.09.27-.1.27-.1.27-.1.27-.1.27-.1.27-.1.27-.11.27-.11.27-.11.27-.11.27-.11.27-.11.27-.11.27-.11.27-.12.27-.12.27-.12.27-.12.27-.12.27-.12.27-.12.27-.12.27-.12.27-.12.27-.12.27-.13.27-.13.27-.13.27-.13.27-.13.27-.13.27-.13.27-.13.27-.13.27-.13.27-.13.27-.13.27-.13.27-.13.27-.13.27-.13.27-.13.27-.13.27-.13.27-.13.27-.13.27-.13.27-.13.27-.13.27-.13.27-.13.27-.13.27-.13.27-.12.27-.12.27-.12.27-.12.27-.12.27-.12.27-.12.27-.12.27-.12.27-.12.27-.12.27-.12.27-.12.27-.12.27-.11.27-.11.27-.11.27-.11.27-.11.27-.11.27-.11.27-.11.27-.11.27-.1.27-.1.27-.1.27-.1.27-.1.27-.1.27-.1.27-.1.27-.09.27-.09.27-.09.27-.09.27-.09.27-.09.27-.09.27-.09.27-.08.27-.08.27-.08.27-.08.27-.08.27-.08.27-.08.27-.07.27-.07.27-.07.27-.07.27-.07.27-.07.27-.07.27-.06.27-.06.27-.06.27-.06.27-.06.27-.06.27-.06.27-.05.27-.05.27-.05.27-.05.27-.05.27-.05.27-.04.27-.04.27-.04.27-.04.27-.04.27-.04.27-.04.27-.03.27-.03.27-.03.27-.03.27-.03.27-.03.27-.03.27-.03.27-.02.27-.02.27-.02.27-.02.27-.02.27-.02.27-.02h.27s.27-.03.27-.03v2.54h-54.2Z"/>
        </g>
      </g>
      <g id="FillBetweenPolyCollection_9" data-name="FillBetweenPolyCollection 9">
        <g class="cls-90">
          <path id="m255e0ff9c6" class="cls-38" d="M358.85,175.88v-2.55h.27s.27-.02.27-.02h.27s.27-.02.27-.02h.27s.27-.01.27-.01h.27s.27,0,.27,0h.27s.27,0,.27,0h.27s.27,0,.27,0h.27s.27,0,.27,0h.27s.27,0,.27,0h.27s.27.01.27.01h.27s.27.02.27.02h.27s.27.02.27.02h.27s.27.02.27.02h.27s.27.03.27.03h.27s.27.03.27.03l.27.02.27.02.27.02.27.02.27.02.27.02.27.02.27.02.27.02.27.02.27.02.27.02.27.02.27.02.27.02.27.02.27.03.27.03.27.03.27.03.27.03.27.03.27.03.27.03.27.03.27.03.27.03v1.83h-14.83Z"/>
        </g>
      </g>
      <g id="FillBetweenPolyCollection_10" data-name="FillBetweenPolyCollection 10">
        <g class="cls-55">
          <path id="m3acc8376cb" class="cls-33" d="M373.95,175.88v-1.8l.27.03.27.03.27.03.27.03.27.03.27.03.27.03.27.03.27.03.27.03.27.03.27.03.27.03.27.03.27.03.27.03.27.03.27.03.27.03.27.03.27.03.27.03.27.03.27.03.27.03.27.03.27.03.27.03.27.03.27.03.27.03.27.03.27.03.27.03.27.03.27.03.27.03.27.03.27.02.27.02.27.02.27.02.27.02.27.02.27.02.27.02.27.02.27.02.27.02.27.02.27.02.27.02.27.02.27.02.27.02.27.02.27.02.27.02.27.02.27.02.27.02.27.02h.27s.27.03.27.03h.27s.27.03.27.03h.27s.27.02.27.02h.27s.27.02.27.02h.27s.27.02.27.02h.27s.27.02.27.02h.27s.27.02.27.02h.27s.27.01.27.01h.27s.27.01.27.01h.27s.27.01.27.01h.27s.27,0,.27,0h.27s.27,0,.27,0h.27s.27,0,.27,0h.27s.27,0,.27,0h.27s-.27,0-.27,0h-24.27Z"/>
        </g>
      </g>
      <g id="matplotlib.axis_1" data-name="matplotlib.axis 1">
        <g id="xtick_1" data-name="xtick 1">
          <g id="line2d_1" data-name="line2d 1">
            <path id="m83d76cd66d" class="cls-42" d="M74.48,307.22v3.5"/>
          </g>
        </g>
        <g id="xtick_2" data-name="xtick 2">
          <g id="line2d_2" data-name="line2d 2">
            <path id="m83d76cd66d-2" data-name="m83d76cd66d" class="cls-42" d="M128.41,307.22v3.5"/>
          </g>
        </g>
        <g id="xtick_3" data-name="xtick 3">
          <g id="line2d_3" data-name="line2d 3">
            <path id="m83d76cd66d-3" data-name="m83d76cd66d" class="cls-42" d="M182.34,307.22v3.5"/>
          </g>
        </g>
        <g id="xtick_4" data-name="xtick 4">
          <g id="line2d_4" data-name="line2d 4">
            <path id="m83d76cd66d-4" data-name="m83d76cd66d" class="cls-42" d="M236.27,307.22v3.5"/>
          </g>
        </g>
        <g id="xtick_5" data-name="xtick 5">
          <g id="line2d_5" data-name="line2d 5">
            <path id="m83d76cd66d-5" data-name="m83d76cd66d" class="cls-42" d="M290.2,307.22v3.5"/>
          </g>
        </g>
        <g id="xtick_6" data-name="xtick 6">
          <g id="line2d_6" data-name="line2d 6">
            <path id="m83d76cd66d-6" data-name="m83d76cd66d" class="cls-42" d="M344.13,307.22v3.5"/>
          </g>
        </g>
        <g id="xtick_7" data-name="xtick 7">
          <g id="line2d_7" data-name="line2d 7">
            <path id="m83d76cd66d-7" data-name="m83d76cd66d" class="cls-42" d="M398.06,307.22v3.5"/>
          </g>
        </g>
      </g>
      <g id="matplotlib.axis_2" data-name="matplotlib.axis 2">
        <g id="ytick_1" data-name="ytick 1">
          <g id="line2d_8" data-name="line2d 8">
            <path id="m642f6b30e7" class="cls-42" d="M57.6,301.42h-3.5"/>
          </g>
          <g id="text_1" data-name="text 1">
            <g>
              <path id="DejaVuSans-2212" d="M27.38,301.67h6.26v.83h-6.26v-.83Z"/>
              <path id="DejaVuSans-31" d="M35.94,304.39h1.61v-5.56l-1.75.35v-.9l1.74-.35h.99v6.46h1.61v.83h-4.2v-.83Z"/>
              <path id="DejaVuSans-2e" d="M42.13,303.98h1.03v1.24h-1.03v-1.24Z"/>
              <path id="DejaVuSans-35" d="M45.32,297.93h3.87v.83h-2.97v1.79c.14-.05.29-.09.43-.11.14-.02.29-.04.43-.04.81,0,1.46.22,1.93.67.48.45.71,1.05.71,1.81s-.24,1.39-.73,1.83c-.49.43-1.18.65-2.07.65-.31,0-.62-.03-.94-.08-.32-.05-.64-.13-.98-.23v-.99c.29.16.6.28.91.36s.64.12.99.12c.56,0,1.01-.15,1.34-.44.33-.3.49-.7.49-1.21s-.16-.91-.49-1.2c-.33-.3-.77-.45-1.34-.45-.26,0-.53.03-.79.09-.26.06-.53.15-.8.27v-3.66Z"/>
            </g>
          </g>
        </g>
        <g id="ytick_2" data-name="ytick 2">
          <g id="line2d_9" data-name="line2d 9">
            <path id="m642f6b30e7-2" data-name="m642f6b30e7" class="cls-42" d="M57.6,259.57h-3.5"/>
          </g>
          <g id="text_2" data-name="text 2">
            <g>
              <path id="DejaVuSans-2212-2" data-name="DejaVuSans-2212" d="M27.38,259.82h6.26v.83h-6.26v-.83Z"/>
              <path id="DejaVuSans-31-2" data-name="DejaVuSans-31" d="M35.94,262.54h1.61v-5.56l-1.75.35v-.9l1.74-.35h.99v6.46h1.61v.83h-4.2v-.83Z"/>
              <path id="DejaVuSans-2e-2" data-name="DejaVuSans-2e" d="M42.13,262.13h1.03v1.24h-1.03v-1.24Z"/>
              <path id="DejaVuSans-30" d="M47.42,256.73c-.51,0-.89.25-1.15.75-.26.5-.38,1.25-.38,2.25s.13,1.75.38,2.25c.26.5.64.75,1.15.75s.89-.25,1.15-.75c.26-.5.38-1.25.38-2.25s-.13-1.75-.38-2.25c-.26-.5-.64-.75-1.15-.75ZM47.42,255.95c.82,0,1.44.32,1.87.97.43.65.65,1.58.65,2.81s-.22,2.16-.65,2.81c-.43.65-1.06.97-1.87.97s-1.44-.32-1.87-.97c-.43-.65-.65-1.58-.65-2.81s.22-2.17.65-2.81c.43-.65,1.06-.97,1.87-.97Z"/>
            </g>
          </g>
        </g>
        <g id="ytick_3" data-name="ytick 3">
          <g id="line2d_10" data-name="line2d 10">
            <path id="m642f6b30e7-3" data-name="m642f6b30e7" class="cls-42" d="M57.6,217.72h-3.5"/>
          </g>
          <g id="text_3" data-name="text 3">
            <g>
              <path id="DejaVuSans-2212-3" data-name="DejaVuSans-2212" d="M27.38,217.97h6.26v.83h-6.26v-.83Z"/>
              <path id="DejaVuSans-30-2" data-name="DejaVuSans-30" d="M37.87,214.88c-.51,0-.89.25-1.15.75-.26.5-.38,1.25-.38,2.25s.13,1.75.38,2.25c.26.5.64.75,1.15.75s.89-.25,1.15-.75c.26-.5.38-1.25.38-2.25s-.13-1.75-.38-2.25c-.26-.5-.64-.75-1.15-.75ZM37.87,214.1c.82,0,1.44.32,1.87.97.43.65.65,1.58.65,2.81s-.22,2.16-.65,2.81c-.43.65-1.06.97-1.87.97s-1.44-.32-1.87-.97c-.43-.65-.65-1.58-.65-2.81s.22-2.17.65-2.81c.43-.65,1.06-.97,1.87-.97Z"/>
              <path id="DejaVuSans-2e-3" data-name="DejaVuSans-2e" d="M42.13,220.28h1.03v1.24h-1.03v-1.24Z"/>
              <path id="DejaVuSans-35-2" data-name="DejaVuSans-35" d="M45.32,214.23h3.87v.83h-2.97v1.79c.14-.05.29-.09.43-.11.14-.02.29-.04.43-.04.81,0,1.46.22,1.93.67.48.45.71,1.05.71,1.81s-.24,1.39-.73,1.83c-.49.43-1.18.65-2.07.65-.31,0-.62-.03-.94-.08-.32-.05-.64-.13-.98-.23v-.99c.29.16.6.28.91.36s.64.12.99.12c.56,0,1.01-.15,1.34-.44.33-.3.49-.7.49-1.21s-.16-.91-.49-1.2c-.33-.3-.77-.45-1.34-.45-.26,0-.53.03-.79.09-.26.06-.53.15-.8.27v-3.66Z"/>
            </g>
          </g>
        </g>
        <g id="ytick_4" data-name="ytick 4">
          <g id="line2d_11" data-name="line2d 11">
            <path id="m642f6b30e7-4" data-name="m642f6b30e7" class="cls-42" d="M57.6,175.88h-3.5"/>
          </g>
          <g id="text_4" data-name="text 4">
            <g>
              <path id="DejaVuSans-30-3" data-name="DejaVuSans-30" d="M37.88,173.03c-.51,0-.89.25-1.15.75-.26.5-.38,1.25-.38,2.25s.13,1.75.38,2.25c.26.5.64.75,1.15.75s.89-.25,1.15-.75c.26-.5.38-1.25.38-2.25s-.13-1.75-.38-2.25c-.26-.5-.64-.75-1.15-.75ZM37.88,172.25c.82,0,1.44.32,1.87.97.43.65.65,1.58.65,2.81s-.22,2.16-.65,2.81c-.43.65-1.06.97-1.87.97s-1.44-.32-1.87-.97c-.43-.65-.65-1.58-.65-2.81s.22-2.17.65-2.81c.43-.65,1.06-.97,1.87-.97Z"/>
              <path id="DejaVuSans-2e-4" data-name="DejaVuSans-2e" d="M42.13,178.43h1.03v1.24h-1.03v-1.24Z"/>
              <path id="DejaVuSans-30-4" data-name="DejaVuSans-30" d="M47.42,173.03c-.51,0-.89.25-1.15.75-.26.5-.38,1.25-.38,2.25s.13,1.75.38,2.25c.26.5.64.75,1.15.75s.89-.25,1.15-.75c.26-.5.38-1.25.38-2.25s-.13-1.75-.38-2.25c-.26-.5-.64-.75-1.15-.75ZM47.42,172.25c.82,0,1.44.32,1.87.97.43.65.65,1.58.65,2.81s-.22,2.16-.65,2.81c-.43.65-1.06.97-1.87.97s-1.44-.32-1.87-.97c-.43-.65-.65-1.58-.65-2.81s.22-2.17.65-2.81c.43-.65,1.06-.97,1.87-.97Z"/>
            </g>
          </g>
        </g>
        <g id="ytick_5" data-name="ytick 5">
          <g id="line2d_12" data-name="line2d 12">
            <path id="m642f6b30e7-5" data-name="m642f6b30e7" class="cls-42" d="M57.6,134.03h-3.5"/>
          </g>
          <g id="text_5" data-name="text 5">
            <g>
              <path id="DejaVuSans-30-5" data-name="DejaVuSans-30" d="M37.88,131.19c-.51,0-.89.25-1.15.75-.26.5-.38,1.25-.38,2.25s.13,1.75.38,2.25c.26.5.64.75,1.15.75s.89-.25,1.15-.75c.26-.5.38-1.25.38-2.25s-.13-1.75-.38-2.25c-.26-.5-.64-.75-1.15-.75ZM37.88,130.4c.82,0,1.44.32,1.87.97.43.65.65,1.58.65,2.81s-.22,2.16-.65,2.81c-.43.65-1.06.97-1.87.97s-1.44-.32-1.87-.97c-.43-.65-.65-1.58-.65-2.81s.22-2.17.65-2.81c.43-.65,1.06-.97,1.87-.97Z"/>
              <path id="DejaVuSans-2e-5" data-name="DejaVuSans-2e" d="M42.13,136.59h1.03v1.24h-1.03v-1.24Z"/>
              <path id="DejaVuSans-35-3" data-name="DejaVuSans-35" d="M45.32,130.54h3.87v.83h-2.97v1.79c.14-.05.29-.09.43-.11.14-.02.29-.04.43-.04.81,0,1.46.22,1.93.67.48.45.71,1.05.71,1.81s-.24,1.39-.73,1.83c-.49.43-1.18.65-2.07.65-.31,0-.62-.03-.94-.08-.32-.05-.64-.13-.98-.23v-.99c.29.16.6.28.91.36s.64.12.99.12c.56,0,1.01-.15,1.34-.44.33-.3.49-.7.49-1.21s-.16-.91-.49-1.2c-.33-.3-.77-.45-1.34-.45-.26,0-.53.03-.79.09-.26.06-.53.15-.8.27v-3.66Z"/>
            </g>
          </g>
        </g>
        <g id="ytick_6" data-name="ytick 6">
          <g id="line2d_13" data-name="line2d 13">
            <path id="m642f6b30e7-6" data-name="m642f6b30e7" class="cls-42" d="M57.6,92.18h-3.5"/>
          </g>
          <g id="text_6" data-name="text 6">
            <g>
              <path id="DejaVuSans-31-3" data-name="DejaVuSans-31" d="M35.94,95.15h1.61v-5.56l-1.75.35v-.9l1.74-.35h.99v6.46h1.61v.83h-4.2v-.83Z"/>
              <path id="DejaVuSans-2e-6" data-name="DejaVuSans-2e" d="M42.13,94.74h1.03v1.24h-1.03v-1.24Z"/>
              <path id="DejaVuSans-30-6" data-name="DejaVuSans-30" d="M47.42,89.34c-.51,0-.89.25-1.15.75-.26.5-.38,1.25-.38,2.25s.13,1.75.38,2.25c.26.5.64.75,1.15.75s.89-.25,1.15-.75c.26-.5.38-1.25.38-2.25s-.13-1.75-.38-2.25c-.26-.5-.64-.75-1.15-.75ZM47.42,88.56c.82,0,1.44.32,1.87.97.43.65.65,1.58.65,2.81s-.22,2.16-.65,2.81c-.43.65-1.06.97-1.87.97s-1.44-.32-1.87-.97c-.43-.65-.65-1.58-.65-2.81s.22-2.17.65-2.81c.43-.65,1.06-.97,1.87-.97Z"/>
            </g>
          </g>
        </g>
        <g id="ytick_7" data-name="ytick 7">
          <g id="line2d_14" data-name="line2d 14">
            <path id="m642f6b30e7-7" data-name="m642f6b30e7" class="cls-42" d="M57.6,50.33h-3.5"/>
          </g>
          <g id="text_7" data-name="text 7">
            <g>
              <path id="DejaVuSans-31-4" data-name="DejaVuSans-31" d="M35.94,53.3h1.61v-5.56l-1.75.35v-.9l1.74-.35h.99v6.46h1.61v.83h-4.2v-.83Z"/>
              <path id="DejaVuSans-2e-7" data-name="DejaVuSans-2e" d="M42.13,52.89h1.03v1.24h-1.03v-1.24Z"/>
              <path id="DejaVuSans-35-4" data-name="DejaVuSans-35" d="M45.32,46.84h3.87v.83h-2.97v1.79c.14-.05.29-.09.43-.11.14-.02.29-.04.43-.04.81,0,1.46.22,1.93.67.48.45.71,1.05.71,1.81s-.24,1.39-.73,1.83c-.49.43-1.18.65-2.07.65-.31,0-.62-.03-.94-.08-.32-.05-.64-.13-.98-.23v-.99c.29.16.6.28.91.36s.64.12.99.12c.56,0,1.01-.15,1.34-.44.33-.3.49-.7.49-1.21s-.16-.91-.49-1.2c-.33-.3-.77-.45-1.34-.45-.26,0-.53.03-.79.09-.26.06-.53.15-.8.27v-3.66Z"/>
            </g>
          </g>
        </g>
      </g>
      <g id="line2d_15" data-name="line2d 15">
        <g class="cls-52">
          <path class="cls-16" d="M73.83,175.88l5.66-.11,5.66-.33,6.74-.63,13.75-1.37,4.58-.18,3.78.07,3.51.28,3.51.51,3.24.69,3.51.99,3.51,1.22,4.04,1.65,5.12,2.36,8.63,4,3.51,1.36,2.97.91,2.43.53,2.43.3,2.16.04,2.16-.19,1.89-.38,1.89-.59,1.89-.81,1.89-1.03,1.89-1.27,1.89-1.51,2.16-2.03,2.16-2.34,2.16-2.66,2.43-3.35,2.43-3.72,2.7-4.53,2.97-5.4,3.51-6.86,4.58-9.49,10.25-21.41,3.51-6.72,2.97-5.2,2.43-3.84,2.43-3.42,2.16-2.64,1.89-1.97,1.89-1.64,1.62-1.13,1.62-.87,1.62-.61,1.62-.34,1.35-.07,1.35.12,1.35.31,1.62.62,1.62.88,1.62,1.14,1.62,1.39,1.89,1.93,1.89,2.25,2.16,2.93,2.43,3.72,2.7,4.59,2.97,5.51,3.51,6.98,5.39,11.31,7.28,15.23,3.78,7.39,3.24,5.87,2.97,4.9,2.7,4.01,2.43,3.22,2.43,2.83,2.16,2.18,2.16,1.86,2.16,1.54,1.89,1.09,1.89.86,1.89.64,1.89.43,2.16.25h2.16s2.16-.2,2.16-.2l2.43-.46,2.7-.76,2.97-1.07,3.78-1.61,6.74-3.18,5.66-2.57,4.04-1.6,3.51-1.16,3.51-.93,3.24-.63,3.51-.45,3.51-.23,3.78-.02,4.31.2,5.66.51,15.91,1.57,5.66.26,3.78.05h0"/>
        </g>
      </g>
      <g id="line2d_16" data-name="line2d 16">
        <g class="cls-59">
          <path class="cls-17" d="M79.34,175.88v76"/>
        </g>
      </g>
      <g id="line2d_17" data-name="line2d 17">
        <g class="cls-57">
          <path class="cls-17" d="M398.49,175.88v-31.45"/>
        </g>
      </g>
      <g id="line2d_18" data-name="line2d 18">
        <g class="cls-58">
          <path class="cls-17" d="M101.45,251.88v42.21"/>
        </g>
      </g>
      <g id="line2d_19" data-name="line2d 19">
        <g class="cls-56">
          <path class="cls-9" d="M79.34,251.88h22.11"/>
        </g>
      </g>
      <g id="line2d_20" data-name="line2d 20">
        <g class="cls-53">
          <path class="cls-17" d="M121.94,294.08V53.2"/>
        </g>
      </g>
      <g id="line2d_21" data-name="line2d 21">
        <g class="cls-50">
          <path class="cls-22" d="M101.45,294.08h20.49"/>
        </g>
      </g>
      <g id="line2d_22" data-name="line2d 22">
        <g class="cls-54">
          <path class="cls-17" d="M178.84,53.2v141.57"/>
        </g>
      </g>
      <g id="line2d_23" data-name="line2d 23">
        <g class="cls-51">
          <path class="cls-13" d="M121.94,53.2h56.9"/>
        </g>
      </g>
      <g id="line2d_24" data-name="line2d 24">
        <g class="cls-74">
          <path class="cls-17" d="M217.13,194.77v100.35"/>
        </g>
      </g>
      <g id="line2d_25" data-name="line2d 25">
        <g class="cls-75">
          <path class="cls-6" d="M178.84,194.77h38.29"/>
        </g>
      </g>
      <g id="line2d_26" data-name="line2d 26">
        <g class="cls-76">
          <path class="cls-17" d="M250.29,295.12v-150.01"/>
        </g>
      </g>
      <g id="line2d_27" data-name="line2d 27">
        <g class="cls-77">
          <path class="cls-3" d="M217.13,295.12h33.17"/>
        </g>
      </g>
      <g id="line2d_28" data-name="line2d 28">
        <g class="cls-78">
          <path class="cls-17" d="M274.56,145.11v76.32"/>
        </g>
      </g>
      <g id="line2d_29" data-name="line2d 29">
        <g class="cls-79">
          <path class="cls-15" d="M250.29,145.11h24.27"/>
        </g>
      </g>
      <g id="line2d_30" data-name="line2d 30">
        <g class="cls-72">
          <path class="cls-17" d="M304.22,221.44v-54.85"/>
        </g>
      </g>
      <g id="line2d_31" data-name="line2d 31">
        <g class="cls-70">
          <path class="cls-5" d="M274.56,221.44h29.66"/>
        </g>
      </g>
      <g id="line2d_32" data-name="line2d 32">
        <g class="cls-73">
          <path class="cls-17" d="M358.69,166.59v105.62"/>
        </g>
      </g>
      <g id="line2d_33" data-name="line2d 33">
        <g class="cls-71">
          <path class="cls-14" d="M304.22,166.59h54.47"/>
        </g>
      </g>
      <g id="line2d_34" data-name="line2d 34">
        <g class="cls-66">
          <path class="cls-17" d="M373.79,272.21v-127.78"/>
        </g>
      </g>
      <g id="line2d_35" data-name="line2d 35">
        <g class="cls-60">
          <path class="cls-11" d="M358.69,272.21h15.1"/>
        </g>
      </g>
      <g id="line2d_36" data-name="line2d 36">
        <g class="cls-61">
          <path class="cls-7" d="M373.79,144.43h24.7"/>
        </g>
      </g>
      <g id="line2d_37" data-name="line2d 37">
        <g class="cls-62">
          <path class="cls-18" d="M57.6,175.88h357.12"/>
        </g>
      </g>
      <g id="patch_3" data-name="patch 3">
        <path class="cls-20" d="M57.6,307.22V41.11"/>
      </g>
      <g id="patch_4" data-name="patch 4">
        <path class="cls-20" d="M414.72,307.22V41.11"/>
      </g>
      <g id="patch_5" data-name="patch 5">
        <path class="cls-20" d="M57.6,307.22h357.12"/>
      </g>
      <g id="patch_6" data-name="patch 6">
        <path class="cls-20" d="M57.6,41.11h357.12"/>
      </g>
      <g id="patch_7" data-name="patch 7">
        <path class="cls-8" d="M236.27,175.88v77.18"/>
        <path class="cls-8" d="M238.27,249.06l-2,4-2-4"/>
      </g>
      <g id="PathCollection_2" data-name="PathCollection 2">
        <g class="cls-63">
          <path id="C0_0_8adc6449e7" data-name="C0 0 8adc6449e7" class="cls-34" d="M79.34,179.22c.8,0,1.56-.32,2.12-.88.56-.56.88-1.33.88-2.12s-.32-1.56-.88-2.12c-.56-.56-1.33-.88-2.12-.88s-1.56.32-2.12.88c-.56.56-.88,1.33-.88,2.12s.32,1.56.88,2.12c.56.56,1.33.88,2.12.88Z"/>
        </g>
        <g class="cls-64">
          <path id="C0_0_8adc6449e7-2" data-name="C0 0 8adc6449e7" class="cls-25" d="M101.45,180.14c.8,0,1.56-.32,2.12-.88.56-.56.88-1.33.88-2.12s-.32-1.56-.88-2.12c-.56-.56-1.33-.88-2.12-.88s-1.56.32-2.12.88c-.56.56-.88,1.33-.88,2.12s.32,1.56.88,2.12c.56.56,1.33.88,2.12.88Z"/>
        </g>
        <g class="cls-67">
          <path id="C0_0_8adc6449e7-3" data-name="C0 0 8adc6449e7" class="cls-27" d="M121.94,189.48c.8,0,1.56-.32,2.12-.88.56-.56.88-1.33.88-2.12s-.32-1.56-.88-2.12c-.56-.56-1.33-.88-2.12-.88s-1.56.32-2.12.88c-.56.56-.88,1.33-.88,2.12s.32,1.56.88,2.12c.56.56,1.33.88,2.12.88Z"/>
        </g>
        <g class="cls-68">
          <path id="C0_0_8adc6449e7-4" data-name="C0 0 8adc6449e7" class="cls-24" d="M178.84,183.43c.8,0,1.56-.32,2.12-.88.56-.56.88-1.33.88-2.12s-.32-1.56-.88-2.12c-.56-.56-1.33-.88-2.12-.88s-1.56.32-2.12.88c-.56.56-.88,1.33-.88,2.12s.32,1.56.88,2.12c.56.56,1.33.88,2.12.88Z"/>
        </g>
        <g class="cls-69">
          <path id="C0_0_8adc6449e7-5" data-name="C0 0 8adc6449e7" class="cls-36" d="M217.13,247.86c.8,0,1.56-.32,2.12-.88.56-.56.88-1.33.88-2.12s-.32-1.56-.88-2.12c-.56-.56-1.33-.88-2.12-.88s-1.56.32-2.12.88c-.56.56-.88,1.33-.88,2.12s.32,1.56.88,2.12c.56.56,1.33.88,2.12.88Z"/>
        </g>
        <g class="cls-65">
          <path id="C0_0_8adc6449e7-6" data-name="C0 0 8adc6449e7" class="cls-37" d="M250.29,170.31c.8,0,1.56-.32,2.12-.88.56-.56.88-1.33.88-2.12s-.32-1.56-.88-2.12c-.56-.56-1.33-.88-2.12-.88s-1.56.32-2.12.88c-.56.56-.88,1.33-.88,2.12s.32,1.56.88,2.12c.56.56,1.33.88,2.12.88Z"/>
        </g>
        <g class="cls-83">
          <path id="C0_0_8adc6449e7-7" data-name="C0 0 8adc6449e7" class="cls-40" d="M274.56,179.89c.8,0,1.56-.32,2.12-.88.56-.56.88-1.33.88-2.12s-.32-1.56-.88-2.12c-.56-.56-1.33-.88-2.12-.88s-1.56.32-2.12.88c-.56.56-.88,1.33-.88,2.12s.32,1.56.88,2.12c.56.56,1.33.88,2.12.88Z"/>
        </g>
        <g class="cls-80">
          <path id="C0_0_8adc6449e7-8" data-name="C0 0 8adc6449e7" class="cls-23" d="M304.22,179.46c.8,0,1.56-.32,2.12-.88.56-.56.88-1.33.88-2.12s-.32-1.56-.88-2.12c-.56-.56-1.33-.88-2.12-.88s-1.56.32-2.12.88c-.56.56-.88,1.33-.88,2.12s.32,1.56.88,2.12c.56.56,1.33.88,2.12.88Z"/>
        </g>
        <g class="cls-81">
          <path id="C0_0_8adc6449e7-9" data-name="C0 0 8adc6449e7" class="cls-41" d="M358.69,179.63c.8,0,1.56-.32,2.12-.88.56-.56.88-1.33.88-2.12s-.32-1.56-.88-2.12c-.56-.56-1.33-.88-2.12-.88s-1.56.32-2.12.88c-.56.56-.88,1.33-.88,2.12s.32,1.56.88,2.12c.56.56,1.33.88,2.12.88Z"/>
        </g>
        <g class="cls-82">
          <path id="C0_0_8adc6449e7-10" data-name="C0 0 8adc6449e7" class="cls-28" d="M373.79,178.77c.8,0,1.56-.32,2.12-.88.56-.56.88-1.33.88-2.12s-.32-1.56-.88-2.12c-.56-.56-1.33-.88-2.12-.88s-1.56.32-2.12.88c-.56.56-.88,1.33-.88,2.12s.32,1.56.88,2.12c.56.56,1.33.88,2.12.88Z"/>
        </g>
      </g>
      <g id="legend_1" data-name="legend 1">
        <g id="patch_8" data-name="patch 8">
          <path class="cls-47" d="M258.34,93.14h149.38c1.33,0,2-.67,2-2v-43.03c0-1.33-.67-2-2-2h-149.38c-1.33,0-2,.67-2,2v43.03c0,1.33.67,2,2,2Z"/>
        </g>
        <g id="line2d_38" data-name="line2d 38">
          <path class="cls-12" d="M260.34,54.21h20"/>
        </g>
        <g id="text_8" data-name="text 8">
          <g>
            <path id="DejaVuSans-53" d="M293.7,50.66v.96c-.37-.18-.73-.31-1.06-.4-.33-.09-.65-.13-.96-.13-.54,0-.95.1-1.24.31-.29.21-.44.5-.44.89,0,.32.1.57.29.73.19.16.56.3,1.1.4l.6.12c.74.14,1.28.39,1.63.74s.53.83.53,1.42c0,.71-.24,1.24-.71,1.61-.47.36-1.17.55-2.08.55-.34,0-.71-.04-1.1-.12-.39-.08-.79-.19-1.21-.35v-1.02c.4.22.79.39,1.18.51.38.11.76.17,1.13.17.56,0,1-.11,1.3-.33.31-.22.46-.54.46-.95,0-.36-.11-.64-.33-.84s-.58-.35-1.08-.45l-.6-.12c-.74-.15-1.27-.38-1.6-.69-.33-.31-.49-.75-.49-1.3,0-.64.23-1.15.68-1.52.45-.37,1.08-.56,1.88-.56.34,0,.69.03,1.05.09.36.06.72.15,1.09.28Z"/>
            <path id="DejaVuSans-65" d="M300.31,54.75v.44h-4.13c.04.62.23,1.09.56,1.41.33.32.8.49,1.39.49.34,0,.68-.04,1-.13s.65-.21.97-.38v.85c-.32.14-.65.24-.99.31s-.68.11-1.03.11c-.87,0-1.56-.25-2.07-.76-.51-.51-.76-1.2-.76-2.06s.24-1.6.73-2.13c.48-.53,1.14-.79,1.96-.79.74,0,1.32.24,1.75.71.43.47.64,1.12.64,1.93ZM299.41,54.48c0-.49-.14-.88-.41-1.18-.27-.29-.62-.44-1.07-.44-.5,0-.9.14-1.2.43s-.47.68-.52,1.2h3.2Z"/>
            <path id="DejaVuSans-6d" d="M306.04,53.29c.23-.4.49-.7.81-.89s.68-.29,1.1-.29c.57,0,1.01.2,1.32.6.31.4.46.96.46,1.7v3.3h-.9v-3.27c0-.52-.09-.91-.28-1.17-.19-.25-.47-.38-.85-.38-.47,0-.83.15-1.1.46-.27.31-.4.73-.4,1.26v3.09h-.9v-3.27c0-.53-.09-.92-.28-1.17s-.47-.38-.86-.38c-.46,0-.82.16-1.1.47-.27.31-.4.73-.4,1.26v3.09h-.9v-5.47h.9v.85c.21-.34.45-.58.74-.74s.63-.24,1.02-.24.74.1,1.01.3c.28.2.48.49.62.88Z"/>
            <path id="DejaVuSans-61" d="M314.01,54.96c-.73,0-1.23.08-1.51.25s-.42.45-.42.85c0,.32.11.57.32.76.21.19.5.28.86.28.5,0,.9-.18,1.2-.53s.45-.82.45-1.41v-.2h-.89ZM315.8,54.59v3.12h-.9v-.83c-.21.33-.46.58-.77.73-.31.16-.68.24-1.12.24-.56,0-1-.16-1.34-.47-.33-.31-.5-.74-.5-1.26,0-.61.21-1.08.62-1.39.41-.31,1.03-.47,1.84-.47h1.26v-.09c0-.41-.14-.73-.41-.96s-.65-.34-1.15-.34c-.31,0-.62.04-.91.11-.3.08-.58.19-.85.34v-.83c.33-.13.65-.22.96-.28.31-.06.61-.1.9-.1.79,0,1.38.21,1.77.62.39.41.59,1.03.59,1.86Z"/>
            <path id="DejaVuSans-6e" d="M322.2,54.41v3.3h-.9v-3.27c0-.52-.1-.9-.3-1.16-.2-.26-.5-.39-.91-.39-.49,0-.87.15-1.15.46-.28.31-.42.73-.42,1.26v3.09h-.9v-5.47h.9v.85c.22-.33.47-.58.76-.74.29-.16.63-.24,1.01-.24.63,0,1.1.19,1.43.58.32.39.48.96.48,1.72Z"/>
            <path id="DejaVuSans-74" d="M324.88,50.68v1.55h1.85v.7h-1.85v2.97c0,.45.06.73.18.86s.37.19.75.19h.92v.75h-.92c-.69,0-1.17-.13-1.44-.39-.26-.26-.4-.73-.4-1.41v-2.97h-.66v-.7h.66v-1.55h.9Z"/>
            <path id="DejaVuSans-69" d="M327.91,52.24h.9v5.47h-.9v-5.47ZM327.91,50.11h.9v1.14h-.9v-1.14Z"/>
            <path id="DejaVuSans-63" d="M334.63,52.45v.84c-.25-.14-.51-.25-.76-.32s-.51-.1-.77-.1c-.58,0-1.04.18-1.36.55-.32.37-.48.89-.48,1.55s.16,1.19.48,1.56c.32.37.78.55,1.36.55.26,0,.52-.03.77-.1s.51-.18.76-.32v.83c-.25.12-.51.2-.78.26-.27.06-.55.09-.86.09-.82,0-1.48-.26-1.96-.78-.48-.52-.73-1.22-.73-2.1s.24-1.59.73-2.1c.49-.51,1.16-.77,2.02-.77.28,0,.55.03.81.09.26.06.52.14.77.25Z"/>
            <path id="DejaVuSans-53-2" data-name="DejaVuSans-53" d="M343.78,50.66v.96c-.37-.18-.73-.31-1.06-.4-.33-.09-.65-.13-.96-.13-.54,0-.95.1-1.24.31-.29.21-.44.5-.44.89,0,.32.1.57.29.73.19.16.56.3,1.1.4l.6.12c.74.14,1.28.39,1.63.74s.53.83.53,1.42c0,.71-.24,1.24-.71,1.61-.47.36-1.17.55-2.08.55-.34,0-.71-.04-1.1-.12-.39-.08-.79-.19-1.21-.35v-1.02c.4.22.79.39,1.18.51.38.11.76.17,1.13.17.56,0,1-.11,1.3-.33.31-.22.46-.54.46-.95,0-.36-.11-.64-.33-.84s-.58-.35-1.08-.45l-.6-.12c-.74-.15-1.27-.38-1.6-.69-.33-.31-.49-.75-.49-1.3,0-.64.23-1.15.68-1.52.45-.37,1.08-.56,1.88-.56.34,0,.69.03,1.05.09.36.06.72.15,1.09.28Z"/>
            <path id="DejaVuSans-74-2" data-name="DejaVuSans-74" d="M346.61,50.68v1.55h1.85v.7h-1.85v2.97c0,.45.06.73.18.86s.37.19.75.19h.92v.75h-.92c-.69,0-1.17-.13-1.44-.39-.26-.26-.4-.73-.4-1.41v-2.97h-.66v-.7h.66v-1.55h.9Z"/>
            <path id="DejaVuSans-69-2" data-name="DejaVuSans-69" d="M349.64,52.24h.9v5.47h-.9v-5.47ZM349.64,50.11h.9v1.14h-.9v-1.14Z"/>
            <path id="DejaVuSans-6d-2" data-name="DejaVuSans-6d" d="M356.67,53.29c.23-.4.49-.7.81-.89s.68-.29,1.1-.29c.57,0,1.01.2,1.32.6.31.4.46.96.46,1.7v3.3h-.9v-3.27c0-.52-.09-.91-.28-1.17-.19-.25-.47-.38-.85-.38-.47,0-.83.15-1.1.46-.27.31-.4.73-.4,1.26v3.09h-.9v-3.27c0-.53-.09-.92-.28-1.17s-.47-.38-.86-.38c-.46,0-.82.16-1.1.47-.27.31-.4.73-.4,1.26v3.09h-.9v-5.47h.9v.85c.21-.34.45-.58.74-.74s.63-.24,1.02-.24.74.1,1.01.3c.28.2.48.49.62.88Z"/>
            <path id="DejaVuSans-75" d="M362.06,55.55v-3.31h.9v3.28c0,.52.1.91.3,1.17.2.26.51.39.91.39.48,0,.87-.15,1.15-.46.28-.31.42-.73.42-1.27v-3.1h.9v5.47h-.9v-.84c-.22.33-.47.58-.76.74-.29.16-.62.24-1,.24-.63,0-1.11-.2-1.43-.59-.33-.39-.49-.96-.49-1.71ZM364.33,52.11h0Z"/>
            <path id="DejaVuSans-6c" d="M368.49,50.11h.9v7.6h-.9v-7.6Z"/>
            <path id="DejaVuSans-69-3" data-name="DejaVuSans-69" d="M371.27,52.24h.9v5.47h-.9v-5.47ZM371.27,50.11h.9v1.14h-.9v-1.14Z"/>
            <path id="DejaVuSans-28" d="M379.39,50.12c-.44.75-.76,1.49-.97,2.22-.21.73-.32,1.47-.32,2.23s.11,1.5.32,2.23.54,1.48.97,2.23h-.78c-.49-.77-.85-1.52-1.1-2.26-.24-.74-.36-1.47-.36-2.2s.12-1.46.36-2.19c.24-.74.61-1.49,1.1-2.26h.78Z"/>
            <path id="DejaVuSans-73" d="M384.62,52.4v.85c-.25-.13-.52-.23-.79-.29-.27-.07-.56-.1-.85-.1-.45,0-.78.07-1,.2-.22.14-.33.34-.33.62,0,.21.08.37.24.49s.48.23.96.34l.31.07c.64.14,1.09.33,1.36.58s.4.6.4,1.04c0,.51-.2.91-.6,1.21-.4.3-.95.44-1.66.44-.29,0-.6-.03-.92-.09-.32-.06-.65-.14-1-.26v-.93c.33.17.66.3.98.39.32.09.64.13.96.13.42,0,.75-.07.98-.22.23-.14.34-.35.34-.61,0-.24-.08-.43-.25-.56-.16-.13-.52-.26-1.08-.38l-.31-.07c-.56-.12-.96-.3-1.21-.54-.25-.24-.37-.58-.37-1,0-.51.18-.91.55-1.19.36-.28.88-.42,1.55-.42.33,0,.64.02.94.07.29.05.56.12.81.22Z"/>
            <path id="DejaVuSans-74-3" data-name="DejaVuSans-74" d="M387.23,50.68v1.55h1.85v.7h-1.85v2.97c0,.45.06.73.18.86s.37.19.75.19h.92v.75h-.92c-.69,0-1.17-.13-1.44-.39-.26-.26-.4-.73-.4-1.41v-2.97h-.66v-.7h.66v-1.55h.9Z"/>
            <path id="DejaVuSans-65-2" data-name="DejaVuSans-65" d="M394.94,54.75v.44h-4.13c.04.62.23,1.09.56,1.41.33.32.8.49,1.39.49.34,0,.68-.04,1-.13s.65-.21.97-.38v.85c-.32.14-.65.24-.99.31s-.68.11-1.03.11c-.87,0-1.56-.25-2.07-.76-.51-.51-.76-1.2-.76-2.06s.24-1.6.73-2.13c.48-.53,1.14-.79,1.96-.79.74,0,1.32.24,1.75.71.43.47.64,1.12.64,1.93ZM394.04,54.48c0-.49-.14-.88-.41-1.18-.27-.29-.62-.44-1.07-.44-.5,0-.9.14-1.2.43s-.47.68-.52,1.2h3.2Z"/>
            <path id="DejaVuSans-70" d="M397.28,56.89v2.9h-.9v-7.55h.9v.83c.19-.33.43-.57.72-.72.29-.16.63-.24,1.03-.24.66,0,1.2.26,1.62.79.42.53.62,1.22.62,2.08s-.21,1.55-.62,2.08c-.41.53-.95.79-1.62.79-.4,0-.74-.08-1.03-.24-.29-.16-.53-.4-.72-.73ZM400.34,54.98c0-.66-.14-1.18-.41-1.55s-.65-.56-1.12-.56-.85.19-1.12.56-.41.89-.41,1.55.14,1.18.41,1.55c.27.38.65.56,1.12.56s.85-.19,1.12-.56c.27-.38.41-.89.41-1.55Z"/>
            <path id="DejaVuSans-29" d="M402.62,50.12h.78c.49.77.85,1.52,1.1,2.26.24.74.36,1.47.36,2.19s-.12,1.46-.36,2.2c-.24.74-.61,1.49-1.1,2.26h-.78c.43-.75.76-1.49.97-2.23.21-.74.32-1.48.32-2.23s-.11-1.49-.32-2.23c-.21-.73-.54-1.47-.97-2.22Z"/>
          </g>
        </g>
        <g id="line2d_39" data-name="line2d 39">
          <path class="cls-12" d="M260.34,68.88h20"/>
        </g>
        <g id="text_9" data-name="text 9">
          <g>
            <path id="DejaVuSans-4c" d="M289.32,65.09h.99v6.46h3.55v.83h-4.54v-7.29Z"/>
            <path id="DejaVuSans-61-2" data-name="DejaVuSans-61" d="M297.34,69.64c-.73,0-1.23.08-1.51.25s-.42.45-.42.85c0,.32.11.57.32.76.21.19.5.28.86.28.5,0,.9-.18,1.2-.53s.45-.82.45-1.41v-.2h-.89ZM299.14,69.26v3.12h-.9v-.83c-.21.33-.46.58-.77.73-.31.16-.68.24-1.12.24-.56,0-1-.16-1.34-.47-.33-.31-.5-.74-.5-1.26,0-.61.21-1.08.62-1.39.41-.31,1.03-.47,1.84-.47h1.26v-.09c0-.41-.14-.73-.41-.96s-.65-.34-1.15-.34c-.31,0-.62.04-.91.11-.3.08-.58.19-.85.34v-.83c.33-.13.65-.22.96-.28.31-.06.61-.1.9-.1.79,0,1.38.21,1.77.62.39.41.59,1.03.59,1.86Z"/>
            <path id="DejaVuSans-6e-2" data-name="DejaVuSans-6e" d="M305.53,69.08v3.3h-.9v-3.27c0-.52-.1-.9-.3-1.16-.2-.26-.5-.39-.91-.39-.49,0-.87.15-1.15.46-.28.31-.42.73-.42,1.26v3.09h-.9v-5.47h.9v.85c.22-.33.47-.58.76-.74.29-.16.63-.24,1.01-.24.63,0,1.1.19,1.43.58.32.39.48.96.48,1.72Z"/>
            <path id="DejaVuSans-63-2" data-name="DejaVuSans-63" d="M311.26,67.13v.84c-.25-.14-.51-.25-.76-.32s-.51-.1-.77-.1c-.58,0-1.04.18-1.36.55-.32.37-.48.89-.48,1.55s.16,1.19.48,1.56c.32.37.78.55,1.36.55.26,0,.52-.03.77-.1s.51-.18.76-.32v.83c-.25.12-.51.2-.78.26-.27.06-.55.09-.86.09-.82,0-1.48-.26-1.96-.78-.48-.52-.73-1.22-.73-2.1s.24-1.59.73-2.1c.49-.51,1.16-.77,2.02-.77.28,0,.55.03.81.09.26.06.52.14.77.25Z"/>
            <path id="DejaVuSans-7a" d="M312.43,66.92h4.27v.82l-3.38,3.93h3.38v.72h-4.39v-.82l3.38-3.93h-3.26v-.72Z"/>
            <path id="DejaVuSans-6f" d="M320.19,67.55c-.48,0-.86.19-1.14.56s-.42.89-.42,1.55.14,1.17.42,1.55c.28.38.66.56,1.15.56s.86-.19,1.14-.57c.28-.38.42-.89.42-1.54s-.14-1.16-.42-1.54c-.28-.38-.66-.57-1.14-.57ZM320.19,66.78c.78,0,1.39.25,1.84.76.45.51.67,1.21.67,2.11s-.22,1.6-.67,2.11c-.45.51-1.06.76-1.84.76s-1.4-.25-1.84-.76c-.44-.51-.67-1.21-.67-2.11s.22-1.6.67-2.11c.44-.51,1.06-.76,1.84-.76Z"/>
            <path id="DejaVuSans-73-2" data-name="DejaVuSans-73" d="M327.67,67.08v.85c-.25-.13-.52-.23-.79-.29-.27-.07-.56-.1-.85-.1-.45,0-.78.07-1,.2-.22.14-.33.34-.33.62,0,.21.08.37.24.49s.48.23.96.34l.31.07c.64.14,1.09.33,1.36.58s.4.6.4,1.04c0,.51-.2.91-.6,1.21-.4.3-.95.44-1.66.44-.29,0-.6-.03-.92-.09-.32-.06-.65-.14-1-.26v-.93c.33.17.66.3.98.39.32.09.64.13.96.13.42,0,.75-.07.98-.22.23-.14.34-.35.34-.61,0-.24-.08-.43-.25-.56-.16-.13-.52-.26-1.08-.38l-.31-.07c-.56-.12-.96-.3-1.21-.54-.25-.24-.37-.58-.37-1,0-.51.18-.91.55-1.19.36-.28.88-.42,1.55-.42.33,0,.64.02.94.07.29.05.56.12.81.22Z"/>
            <path id="DejaVuSans-6b" d="M332.54,64.79h.9v4.49l2.68-2.36h1.15l-2.9,2.56,3.02,2.91h-1.17l-2.78-2.67v2.67h-.9v-7.6Z"/>
            <path id="DejaVuSans-65-3" data-name="DejaVuSans-65" d="M342.68,69.43v.44h-4.13c.04.62.23,1.09.56,1.41.33.32.8.49,1.39.49.34,0,.68-.04,1-.13s.65-.21.97-.38v.85c-.32.14-.65.24-.99.31s-.68.11-1.03.11c-.87,0-1.56-.25-2.07-.76-.51-.51-.76-1.2-.76-2.06s.24-1.6.73-2.13c.48-.53,1.14-.79,1.96-.79.74,0,1.32.24,1.75.71.43.47.64,1.12.64,1.93ZM341.78,69.16c0-.49-.14-.88-.41-1.18-.27-.29-.62-.44-1.07-.44-.5,0-.9.14-1.2.43s-.47.68-.52,1.2h3.2Z"/>
            <path id="DejaVuSans-72" d="M347.33,67.76c-.1-.06-.21-.1-.33-.13-.12-.03-.25-.04-.39-.04-.51,0-.9.17-1.17.5s-.41.8-.41,1.42v2.88h-.9v-5.47h.9v.85c.19-.33.44-.58.74-.74.3-.16.67-.24,1.1-.24.06,0,.13,0,.2.01.08,0,.16.02.25.04v.92Z"/>
            <path id="DejaVuSans-6e-3" data-name="DejaVuSans-6e" d="M352.64,69.08v3.3h-.9v-3.27c0-.52-.1-.9-.3-1.16-.2-.26-.5-.39-.91-.39-.49,0-.87.15-1.15.46-.28.31-.42.73-.42,1.26v3.09h-.9v-5.47h.9v.85c.22-.33.47-.58.76-.74.29-.16.63-.24,1.01-.24.63,0,1.1.19,1.43.58.32.39.48.96.48,1.72Z"/>
            <path id="DejaVuSans-65-4" data-name="DejaVuSans-65" d="M359.11,69.43v.44h-4.13c.04.62.23,1.09.56,1.41.33.32.8.49,1.39.49.34,0,.68-.04,1-.13s.65-.21.97-.38v.85c-.32.14-.65.24-.99.31s-.68.11-1.03.11c-.87,0-1.56-.25-2.07-.76-.51-.51-.76-1.2-.76-2.06s.24-1.6.73-2.13c.48-.53,1.14-.79,1.96-.79.74,0,1.32.24,1.75.71.43.47.64,1.12.64,1.93ZM358.21,69.16c0-.49-.14-.88-.41-1.18-.27-.29-.62-.44-1.07-.44-.5,0-.9.14-1.2.43s-.47.68-.52,1.2h3.2Z"/>
            <path id="DejaVuSans-6c-2" data-name="DejaVuSans-6c" d="M360.58,64.79h.9v7.6h-.9v-7.6Z"/>
          </g>
        </g>
        <g id="line2d_40" data-name="line2d 40">
          <path id="m1487914121" class="cls-31" d="M270.34,87.56c1.06,0,2.08-.42,2.83-1.17s1.17-1.77,1.17-2.83-.42-2.08-1.17-2.83-1.77-1.17-2.83-1.17-2.08.42-2.83,1.17-1.17,1.77-1.17,2.83.42,2.08,1.17,2.83,1.77,1.17,2.83,1.17Z"/>
        </g>
        <g id="text_10" data-name="text 10">
          <g>
            <path id="DejaVuSans-43" d="M294.78,80.33v1.04c-.33-.31-.69-.54-1.06-.69-.38-.15-.78-.23-1.2-.23-.83,0-1.47.25-1.91.76s-.66,1.25-.66,2.21.22,1.7.66,2.2,1.08.76,1.91.76c.42,0,.82-.08,1.2-.23s.73-.38,1.06-.69v1.03c-.34.23-.71.41-1.1.53-.39.12-.79.18-1.22.18-1.1,0-1.97-.34-2.61-1.01-.63-.68-.95-1.6-.95-2.77s.32-2.1.95-2.77c.64-.68,1.51-1.01,2.61-1.01.44,0,.85.06,1.23.17.39.12.75.29,1.09.52Z"/>
            <path id="DejaVuSans-6f-2" data-name="DejaVuSans-6f" d="M298.39,82.22c-.48,0-.86.19-1.14.56s-.42.89-.42,1.55.14,1.17.42,1.55c.28.38.66.56,1.15.56s.86-.19,1.14-.57c.28-.38.42-.89.42-1.54s-.14-1.16-.42-1.54c-.28-.38-.66-.57-1.14-.57ZM298.39,81.46c.78,0,1.39.25,1.84.76.45.51.67,1.21.67,2.11s-.22,1.6-.67,2.11c-.45.51-1.06.76-1.84.76s-1.4-.25-1.84-.76c-.44-.51-.67-1.21-.67-2.11s.22-1.6.67-2.11c.44-.51,1.06-.76,1.84-.76Z"/>
            <path id="DejaVuSans-6e-4" data-name="DejaVuSans-6e" d="M306.93,83.76v3.3h-.9v-3.27c0-.52-.1-.9-.3-1.16-.2-.26-.5-.39-.91-.39-.49,0-.87.15-1.15.46-.28.31-.42.73-.42,1.26v3.09h-.9v-5.47h.9v.85c.22-.33.47-.58.76-.74.29-.16.63-.24,1.01-.24.63,0,1.1.19,1.43.58.32.39.48.96.48,1.72Z"/>
            <path id="DejaVuSans-74-4" data-name="DejaVuSans-74" d="M309.61,80.04v1.55h1.85v.7h-1.85v2.97c0,.45.06.73.18.86s.37.19.75.19h.92v.75h-.92c-.69,0-1.17-.13-1.44-.39-.26-.26-.4-.73-.4-1.41v-2.97h-.66v-.7h.66v-1.55h.9Z"/>
            <path id="DejaVuSans-72-2" data-name="DejaVuSans-72" d="M315.81,82.43c-.1-.06-.21-.1-.33-.13-.12-.03-.25-.04-.39-.04-.51,0-.9.17-1.17.5s-.41.8-.41,1.42v2.88h-.9v-5.47h.9v.85c.19-.33.44-.58.74-.74.3-.16.67-.24,1.1-.24.06,0,.13,0,.2.01.08,0,.16.02.25.04v.92Z"/>
            <path id="DejaVuSans-69-4" data-name="DejaVuSans-69" d="M316.76,81.59h.9v5.47h-.9v-5.47ZM316.76,79.46h.9v1.14h-.9v-1.14Z"/>
            <path id="DejaVuSans-62" d="M323.46,84.33c0-.66-.14-1.18-.41-1.55s-.65-.56-1.12-.56-.85.19-1.12.56-.41.89-.41,1.55.14,1.18.41,1.55c.27.38.65.56,1.12.56s.85-.19,1.12-.56c.27-.38.41-.89.41-1.55ZM320.4,82.42c.19-.33.43-.57.72-.72.29-.16.63-.24,1.03-.24.66,0,1.2.26,1.62.79.42.53.62,1.22.62,2.08s-.21,1.55-.62,2.08c-.41.53-.95.79-1.62.79-.4,0-.74-.08-1.03-.24-.29-.16-.53-.4-.72-.73v.82h-.9v-7.6h.9v2.96Z"/>
            <path id="DejaVuSans-75-2" data-name="DejaVuSans-75" d="M325.79,84.91v-3.31h.9v3.28c0,.52.1.91.3,1.17.2.26.51.39.91.39.48,0,.87-.15,1.15-.46.28-.31.42-.73.42-1.27v-3.1h.9v5.47h-.9v-.84c-.22.33-.47.58-.76.74-.29.16-.62.24-1,.24-.63,0-1.11-.2-1.43-.59-.33-.39-.49-.96-.49-1.71ZM328.05,81.46h0Z"/>
            <path id="DejaVuSans-74-5" data-name="DejaVuSans-74" d="M333.11,80.04v1.55h1.85v.7h-1.85v2.97c0,.45.06.73.18.86s.37.19.75.19h.92v.75h-.92c-.69,0-1.17-.13-1.44-.39-.26-.26-.4-.73-.4-1.41v-2.97h-.66v-.7h.66v-1.55h.9Z"/>
            <path id="DejaVuSans-69-5" data-name="DejaVuSans-69" d="M336.14,81.59h.9v5.47h-.9v-5.47ZM336.14,79.46h.9v1.14h-.9v-1.14Z"/>
            <path id="DejaVuSans-6f-3" data-name="DejaVuSans-6f" d="M341.04,82.22c-.48,0-.86.19-1.14.56s-.42.89-.42,1.55.14,1.17.42,1.55c.28.38.66.56,1.15.56s.86-.19,1.14-.57c.28-.38.42-.89.42-1.54s-.14-1.16-.42-1.54c-.28-.38-.66-.57-1.14-.57ZM341.04,81.46c.78,0,1.39.25,1.84.76.45.51.67,1.21.67,2.11s-.22,1.6-.67,2.11c-.45.51-1.06.76-1.84.76s-1.4-.25-1.84-.76c-.44-.51-.67-1.21-.67-2.11s.22-1.6.67-2.11c.44-.51,1.06-.76,1.84-.76Z"/>
            <path id="DejaVuSans-6e-5" data-name="DejaVuSans-6e" d="M349.58,83.76v3.3h-.9v-3.27c0-.52-.1-.9-.3-1.16-.2-.26-.5-.39-.91-.39-.49,0-.87.15-1.15.46-.28.31-.42.73-.42,1.26v3.09h-.9v-5.47h.9v.85c.22-.33.47-.58.76-.74.29-.16.63-.24,1.01-.24.63,0,1.1.19,1.43.58.32.39.48.96.48,1.72Z"/>
            <path id="DejaVuSans-73-3" data-name="DejaVuSans-73" d="M354.86,81.76v.85c-.25-.13-.52-.23-.79-.29-.27-.07-.56-.1-.85-.1-.45,0-.78.07-1,.2-.22.14-.33.34-.33.62,0,.21.08.37.24.49s.48.23.96.34l.31.07c.64.14,1.09.33,1.36.58s.4.6.4,1.04c0,.51-.2.91-.6,1.21-.4.3-.95.44-1.66.44-.29,0-.6-.03-.92-.09-.32-.06-.65-.14-1-.26v-.93c.33.17.66.3.98.39.32.09.64.13.96.13.42,0,.75-.07.98-.22.23-.14.34-.35.34-.61,0-.24-.08-.43-.25-.56-.16-.13-.52-.26-1.08-.38l-.31-.07c-.56-.12-.96-.3-1.21-.54-.25-.24-.37-.58-.37-1,0-.51.18-.91.55-1.19.36-.28.88-.42,1.55-.42.33,0,.64.02.94.07.29.05.56.12.81.22Z"/>
          </g>
        </g>
      </g>
    </g>
  </g>
  <g>
    <line class="cls-4" x1="259.15" y1="54.27" x2="263.55" y2="54.27"/>
    <line class="cls-21" x1="263.55" y1="54.27" x2="267.95" y2="54.27"/>
    <line class="cls-2" x1="267.95" y1="54.27" x2="272.35" y2="54.27"/>
    <line class="cls-10" x1="272.27" y1="54.27" x2="276.67" y2="54.27"/>
    <line class="cls-19" x1="276.67" y1="54.27" x2="281.53" y2="54.27"/>
  </g>
  <g>
    <circle class="cls-93" cx="262.22" cy="83.56" r="4.06"/>
    <circle class="cls-49" cx="266.28" cy="83.56" r="4.06"/>
    <circle class="cls-95" cx="270.34" cy="83.56" r="4.06"/>
    <circle class="cls-94" cx="274.41" cy="83.56" r="4.06"/>
    <circle class="cls-46" cx="278.47" cy="83.56" r="4.06"/>
  </g>
</svg>