<?xml version="1.0" encoding="UTF-8"?>
<svg id="Layer_1" data-name="Layer 1" xmlns="http://www.w3.org/2000/svg" xmlns:xlink="http://www.w3.org/1999/xlink" viewBox="0 0 460.8 345.6">
  <defs>
    <style>
      .cls-1, .cls-2, .cls-3, .cls-4, .cls-5, .cls-6, .cls-7, .cls-8, .cls-9, .cls-10, .cls-11, .cls-12, .cls-13, .cls-14, .cls-15, .cls-16, .cls-17 {
        fill: none;
      }

      .cls-18 {
        fill: #10a2f0;
      }

      .cls-18, .cls-19, .cls-20, .cls-2, .cls-21, .cls-3, .cls-22, .cls-4, .cls-5, .cls-6, .cls-7, .cls-8, .cls-23, .cls-24, .cls-9, .cls-25, .cls-10, .cls-11, .cls-26, .cls-12, .cls-13, .cls-14, .cls-27, .cls-28, .cls-29, .cls-16, .cls-17 {
        stroke-linejoin: round;
      }

      .cls-18, .cls-8 {
        stroke: #10a2f0;
      }

      .cls-19 {
        fill: #d5dd7f;
      }

      .cls-19, .cls-5 {
        stroke: #d5dd7f;
      }

      .cls-30, .cls-22 {
        fill: #8000ff;
      }

      .cls-31 {
        isolation: isolate;
        opacity: .8;
        stroke: #ccc;
      }

      .cls-31, .cls-32, .cls-26 {
        fill: #fff;
      }

      .cls-20 {
        fill: #ff562c;
      }

      .cls-20, .cls-12 {
        stroke: #ff562c;
      }

      .cls-2, .cls-3, .cls-4, .cls-5, .cls-6, .cls-7, .cls-8, .cls-10, .cls-12, .cls-14, .cls-16, .cls-17 {
        stroke-linecap: round;
      }

      .cls-2, .cls-3, .cls-5, .cls-6, .cls-7, .cls-8, .cls-10, .cls-11, .cls-12, .cls-14, .cls-16, .cls-17 {
        stroke-width: 1.5px;
      }

      .cls-2, .cls-23 {
        stroke: red;
      }

      .cls-21, .cls-3 {
        stroke: #ffa256;
      }

      .cls-21, .cls-33 {
        fill: #ffa256;
      }

      .cls-22, .cls-7 {
        stroke: #8000ff;
      }

      .cls-4, .cls-9 {
        stroke-width: 2px;
      }

      .cls-4, .cls-9, .cls-11, .cls-13, .cls-29, .cls-15 {
        stroke: #000;
      }

      .cls-6, .cls-24 {
        stroke: #9cfba4;
      }

      .cls-34 {
        clip-path: url(#clippath-11);
      }

      .cls-35 {
        clip-path: url(#clippath-10);
      }

      .cls-36 {
        clip-path: url(#clippath-12);
      }

      .cls-37 {
        clip-path: url(#clippath-1);
      }

      .cls-38 {
        clip-path: url(#clippath-3);
      }

      .cls-39 {
        clip-path: url(#clippath-4);
      }

      .cls-40 {
        clip-path: url(#clippath-2);
      }

      .cls-41 {
        clip-path: url(#clippath-7);
      }

      .cls-42 {
        clip-path: url(#clippath-6);
      }

      .cls-43 {
        clip-path: url(#clippath-9);
      }

      .cls-44 {
        clip-path: url(#clippath-8);
      }

      .cls-45 {
        clip-path: url(#clippath-5);
      }

      .cls-23, .cls-46 {
        fill: red;
      }

      .cls-24 {
        fill: #9cfba4;
      }

      .cls-9, .cls-11, .cls-13, .cls-15 {
        stroke-linecap: square;
      }

      .cls-25 {
        fill: #62fbc4;
      }

      .cls-25, .cls-14 {
        stroke: #62fbc4;
      }

      .cls-10, .cls-28 {
        stroke: #4756fb;
      }

      .cls-47, .cls-27 {
        fill: #2bdddd;
      }

      .cls-26 {
        stroke: #fff;
      }

      .cls-13 {
        stroke-width: .5px;
      }

      .cls-48 {
        fill: #9dfba4;
      }

      .cls-27, .cls-17 {
        stroke: #2bdddd;
      }

      .cls-28 {
        fill: #4756fb;
      }

      .cls-29, .cls-15 {
        stroke-width: .8px;
      }

      .cls-16 {
        stroke: #9dfba4;
      }

      .cls-49 {
        clip-path: url(#clippath);
      }
    </style>
    <clipPath id="clippath">
      <rect class="cls-1" x="57.6" y="40.93" width="357.12" height="266.11"/>
    </clipPath>
    <clipPath id="clippath-1">
      <rect class="cls-1" x="57.6" y="40.93" width="357.12" height="266.11"/>
    </clipPath>
    <clipPath id="clippath-2">
      <rect class="cls-1" x="57.6" y="40.93" width="357.12" height="266.11"/>
    </clipPath>
    <clipPath id="clippath-3">
      <rect class="cls-1" x="57.6" y="40.93" width="357.12" height="266.11"/>
    </clipPath>
    <clipPath id="clippath-4">
      <rect class="cls-1" x="57.6" y="40.93" width="357.12" height="266.11"/>
    </clipPath>
    <clipPath id="clippath-5">
      <rect class="cls-1" x="57.6" y="40.93" width="357.12" height="266.11"/>
    </clipPath>
    <clipPath id="clippath-6">
      <rect class="cls-1" x="57.6" y="40.93" width="357.12" height="266.11"/>
    </clipPath>
    <clipPath id="clippath-7">
      <rect class="cls-1" x="57.6" y="40.93" width="357.12" height="266.11"/>
    </clipPath>
    <clipPath id="clippath-8">
      <rect class="cls-1" x="57.6" y="40.93" width="357.12" height="266.11"/>
    </clipPath>
    <clipPath id="clippath-9">
      <rect class="cls-1" x="57.6" y="40.93" width="357.12" height="266.11"/>
    </clipPath>
    <clipPath id="clippath-10">
      <rect class="cls-1" x="57.6" y="40.93" width="357.12" height="266.11"/>
    </clipPath>
    <clipPath id="clippath-11">
      <rect class="cls-1" x="57.6" y="40.93" width="357.12" height="266.11"/>
    </clipPath>
    <clipPath id="clippath-12">
      <rect class="cls-1" x="57.6" y="40.93" width="357.12" height="266.11"/>
    </clipPath>
  </defs>
  <g id="figure_1" data-name="figure 1">
    <g id="patch_1" data-name="patch 1">
      <path class="cls-32" d="M0,345.05h460.8V-.55H0v345.6Z"/>
    </g>
    <g id="axes_1" data-name="axes 1">
      <g id="patch_2" data-name="patch 2">
        <path class="cls-32" d="M57.6,307.04h357.12V40.93H57.6v266.11Z"/>
      </g>
      <g id="PathCollection_1" data-name="PathCollection 1">
        <g class="cls-49">
          <g>
            <path id="m1dd849b6b6" class="cls-26" d="M79.34,254.69c.8,0,1.56-.32,2.12-.88.56-.56.88-1.33.88-2.12s-.32-1.56-.88-2.12c-.56-.56-1.33-.88-2.12-.88s-1.56.32-2.12.88c-.56.56-.88,1.33-.88,2.12s.32,1.56.88,2.12c.56.56,1.33.88,2.12.88Z"/>
            <path id="m1dd849b6b6-2" data-name="m1dd849b6b6" class="cls-26" d="M101.45,296.9c.8,0,1.56-.32,2.12-.88.56-.56.88-1.33.88-2.12s-.32-1.56-.88-2.12c-.56-.56-1.33-.88-2.12-.88s-1.56.32-2.12.88c-.56.56-.88,1.33-.88,2.12s.32,1.56.88,2.12c.56.56,1.33.88,2.12.88Z"/>
            <path id="m1dd849b6b6-3" data-name="m1dd849b6b6" class="cls-26" d="M121.94,56.02c.8,0,1.56-.32,2.12-.88.56-.56.88-1.33.88-2.12s-.32-1.56-.88-2.12c-.56-.56-1.33-.88-2.12-.88s-1.56.32-2.12.88c-.56.56-.88,1.33-.88,2.12s.32,1.56.88,2.12c.56.56,1.33.88,2.12.88Z"/>
            <path id="m1dd849b6b6-4" data-name="m1dd849b6b6" class="cls-26" d="M178.84,197.59c.8,0,1.56-.32,2.12-.88.56-.56.88-1.33.88-2.12s-.32-1.56-.88-2.12c-.56-.56-1.33-.88-2.12-.88s-1.56.32-2.12.88c-.56.56-.88,1.33-.88,2.12s.32,1.56.88,2.12c.56.56,1.33.88,2.12.88Z"/>
            <path id="m1dd849b6b6-5" data-name="m1dd849b6b6" class="cls-26" d="M217.13,297.94c.8,0,1.56-.32,2.12-.88.56-.56.88-1.33.88-2.12s-.32-1.56-.88-2.12c-.56-.56-1.33-.88-2.12-.88s-1.56.32-2.12.88c-.56.56-.88,1.33-.88,2.12s.32,1.56.88,2.12c.56.56,1.33.88,2.12.88Z"/>
            <path id="m1dd849b6b6-6" data-name="m1dd849b6b6" class="cls-26" d="M250.29,147.93c.8,0,1.56-.32,2.12-.88.56-.56.88-1.33.88-2.12s-.32-1.56-.88-2.12c-.56-.56-1.33-.88-2.12-.88s-1.56.32-2.12.88c-.56.56-.88,1.33-.88,2.12s.32,1.56.88,2.12c.56.56,1.33.88,2.12.88Z"/>
            <path id="m1dd849b6b6-7" data-name="m1dd849b6b6" class="cls-26" d="M274.56,224.26c.8,0,1.56-.32,2.12-.88.56-.56.88-1.33.88-2.12s-.32-1.56-.88-2.12c-.56-.56-1.33-.88-2.12-.88s-1.56.32-2.12.88c-.56.56-.88,1.33-.88,2.12s.32,1.56.88,2.12c.56.56,1.33.88,2.12.88Z"/>
            <path id="m1dd849b6b6-8" data-name="m1dd849b6b6" class="cls-26" d="M304.22,169.41c.8,0,1.56-.32,2.12-.88.56-.56.88-1.33.88-2.12s-.32-1.56-.88-2.12c-.56-.56-1.33-.88-2.12-.88s-1.56.32-2.12.88c-.56.56-.88,1.33-.88,2.12s.32,1.56.88,2.12c.56.56,1.33.88,2.12.88Z"/>
            <path id="m1dd849b6b6-9" data-name="m1dd849b6b6" class="cls-26" d="M358.69,275.03c.8,0,1.56-.32,2.12-.88.56-.56.88-1.33.88-2.12s-.32-1.56-.88-2.12c-.56-.56-1.33-.88-2.12-.88s-1.56.32-2.12.88c-.56.56-.88,1.33-.88,2.12s.32,1.56.88,2.12c.56.56,1.33.88,2.12.88Z"/>
            <path id="m1dd849b6b6-10" data-name="m1dd849b6b6" class="cls-26" d="M373.79,147.25c.8,0,1.56-.32,2.12-.88.56-.56.88-1.33.88-2.12s-.32-1.56-.88-2.12c-.56-.56-1.33-.88-2.12-.88s-1.56.32-2.12.88c-.56.56-.88,1.33-.88,2.12s.32,1.56.88,2.12c.56.56,1.33.88,2.12.88Z"/>
          </g>
        </g>
      </g>
      <g id="matplotlib.axis_1" data-name="matplotlib.axis 1">
        <g id="xtick_1" data-name="xtick 1">
          <g id="line2d_1" data-name="line2d 1">
            <path id="m22a3e551a8" class="cls-29" d="M74.48,307.04v3.5"/>
          </g>
        </g>
        <g id="xtick_2" data-name="xtick 2">
          <g id="line2d_2" data-name="line2d 2">
            <path id="m22a3e551a8-2" data-name="m22a3e551a8" class="cls-29" d="M128.41,307.04v3.5"/>
          </g>
        </g>
        <g id="xtick_3" data-name="xtick 3">
          <g id="line2d_3" data-name="line2d 3">
            <path id="m22a3e551a8-3" data-name="m22a3e551a8" class="cls-29" d="M182.34,307.04v3.5"/>
          </g>
        </g>
        <g id="xtick_4" data-name="xtick 4">
          <g id="line2d_4" data-name="line2d 4">
            <path id="m22a3e551a8-4" data-name="m22a3e551a8" class="cls-29" d="M236.27,307.04v3.5"/>
          </g>
        </g>
        <g id="xtick_5" data-name="xtick 5">
          <g id="line2d_5" data-name="line2d 5">
            <path id="m22a3e551a8-5" data-name="m22a3e551a8" class="cls-29" d="M290.2,307.04v3.5"/>
          </g>
        </g>
        <g id="xtick_6" data-name="xtick 6">
          <g id="line2d_6" data-name="line2d 6">
            <path id="m22a3e551a8-6" data-name="m22a3e551a8" class="cls-29" d="M344.13,307.04v3.5"/>
          </g>
        </g>
        <g id="xtick_7" data-name="xtick 7">
          <g id="line2d_7" data-name="line2d 7">
            <path id="m22a3e551a8-7" data-name="m22a3e551a8" class="cls-29" d="M398.06,307.04v3.5"/>
          </g>
        </g>
      </g>
      <g id="matplotlib.axis_2" data-name="matplotlib.axis 2">
        <g id="ytick_1" data-name="ytick 1">
          <g id="line2d_8" data-name="line2d 8">
            <path id="m6161e02d38" class="cls-29" d="M57.6,301.24h-3.5"/>
          </g>
          <g id="text_1" data-name="text 1">
            <g>
              <path id="DejaVuSans-2212" d="M27.38,301.49h6.26v.83h-6.26v-.83Z"/>
              <path id="DejaVuSans-31" d="M35.94,304.21h1.61v-5.56l-1.75.35v-.9l1.74-.35h.99v6.46h1.61v.83h-4.2v-.83Z"/>
              <path id="DejaVuSans-2e" d="M42.13,303.8h1.03v1.24h-1.03v-1.24Z"/>
              <path id="DejaVuSans-35" d="M45.32,297.75h3.87v.83h-2.97v1.79c.14-.05.29-.09.43-.11.14-.02.29-.04.43-.04.81,0,1.46.22,1.93.67.48.45.71,1.05.71,1.81s-.24,1.39-.73,1.83c-.49.43-1.18.65-2.07.65-.31,0-.62-.03-.94-.08-.32-.05-.64-.13-.98-.23v-.99c.29.16.6.28.91.36s.64.12.99.12c.56,0,1.01-.15,1.34-.44.33-.3.49-.7.49-1.21s-.16-.91-.49-1.2c-.33-.3-.77-.45-1.34-.45-.26,0-.53.03-.79.09-.26.06-.53.15-.8.27v-3.66Z"/>
            </g>
          </g>
        </g>
        <g id="ytick_2" data-name="ytick 2">
          <g id="line2d_9" data-name="line2d 9">
            <path id="m6161e02d38-2" data-name="m6161e02d38" class="cls-29" d="M57.6,259.39h-3.5"/>
          </g>
          <g id="text_2" data-name="text 2">
            <g>
              <path id="DejaVuSans-2212-2" data-name="DejaVuSans-2212" d="M27.38,259.64h6.26v.83h-6.26v-.83Z"/>
              <path id="DejaVuSans-31-2" data-name="DejaVuSans-31" d="M35.94,262.36h1.61v-5.56l-1.75.35v-.9l1.74-.35h.99v6.46h1.61v.83h-4.2v-.83Z"/>
              <path id="DejaVuSans-2e-2" data-name="DejaVuSans-2e" d="M42.13,261.95h1.03v1.24h-1.03v-1.24Z"/>
              <path id="DejaVuSans-30" d="M47.42,256.55c-.51,0-.89.25-1.15.75-.26.5-.38,1.25-.38,2.25s.13,1.75.38,2.25c.26.5.64.75,1.15.75s.89-.25,1.15-.75c.26-.5.38-1.25.38-2.25s-.13-1.75-.38-2.25c-.26-.5-.64-.75-1.15-.75ZM47.42,255.77c.82,0,1.44.32,1.87.97.43.65.65,1.58.65,2.81s-.22,2.16-.65,2.81c-.43.65-1.06.97-1.87.97s-1.44-.32-1.87-.97c-.43-.65-.65-1.58-.65-2.81s.22-2.17.65-2.81c.43-.65,1.06-.97,1.87-.97Z"/>
            </g>
          </g>
        </g>
        <g id="ytick_3" data-name="ytick 3">
          <g id="line2d_10" data-name="line2d 10">
            <path id="m6161e02d38-3" data-name="m6161e02d38" class="cls-29" d="M57.6,217.54h-3.5"/>
          </g>
          <g id="text_3" data-name="text 3">
            <g>
              <path id="DejaVuSans-2212-3" data-name="DejaVuSans-2212" d="M27.38,217.79h6.26v.83h-6.26v-.83Z"/>
              <path id="DejaVuSans-30-2" data-name="DejaVuSans-30" d="M37.87,214.7c-.51,0-.89.25-1.15.75-.26.5-.38,1.25-.38,2.25s.13,1.75.38,2.25c.26.5.64.75,1.15.75s.89-.25,1.15-.75c.26-.5.38-1.25.38-2.25s-.13-1.75-.38-2.25c-.26-.5-.64-.75-1.15-.75ZM37.87,213.92c.82,0,1.44.32,1.87.97.43.65.65,1.58.65,2.81s-.22,2.16-.65,2.81c-.43.65-1.06.97-1.87.97s-1.44-.32-1.87-.97c-.43-.65-.65-1.58-.65-2.81s.22-2.17.65-2.81c.43-.65,1.06-.97,1.87-.97Z"/>
              <path id="DejaVuSans-2e-3" data-name="DejaVuSans-2e" d="M42.13,220.1h1.03v1.24h-1.03v-1.24Z"/>
              <path id="DejaVuSans-35-2" data-name="DejaVuSans-35" d="M45.32,214.05h3.87v.83h-2.97v1.79c.14-.05.29-.09.43-.11.14-.02.29-.04.43-.04.81,0,1.46.22,1.93.67.48.45.71,1.05.71,1.81s-.24,1.39-.73,1.83c-.49.43-1.18.65-2.07.65-.31,0-.62-.03-.94-.08-.32-.05-.64-.13-.98-.23v-.99c.29.16.6.28.91.36s.64.12.99.12c.56,0,1.01-.15,1.34-.44.33-.3.49-.7.49-1.21s-.16-.91-.49-1.2c-.33-.3-.77-.45-1.34-.45-.26,0-.53.03-.79.09-.26.06-.53.15-.8.27v-3.66Z"/>
            </g>
          </g>
        </g>
        <g id="ytick_4" data-name="ytick 4">
          <g id="line2d_11" data-name="line2d 11">
            <path id="m6161e02d38-4" data-name="m6161e02d38" class="cls-29" d="M57.6,175.69h-3.5"/>
          </g>
          <g id="text_4" data-name="text 4">
            <g>
              <path id="DejaVuSans-30-3" data-name="DejaVuSans-30" d="M37.88,172.85c-.51,0-.89.25-1.15.75-.26.5-.38,1.25-.38,2.25s.13,1.75.38,2.25c.26.5.64.75,1.15.75s.89-.25,1.15-.75c.26-.5.38-1.25.38-2.25s-.13-1.75-.38-2.25c-.26-.5-.64-.75-1.15-.75ZM37.88,172.07c.82,0,1.44.32,1.87.97.43.65.65,1.58.65,2.81s-.22,2.16-.65,2.81c-.43.65-1.06.97-1.87.97s-1.44-.32-1.87-.97c-.43-.65-.65-1.58-.65-2.81s.22-2.17.65-2.81c.43-.65,1.06-.97,1.87-.97Z"/>
              <path id="DejaVuSans-2e-4" data-name="DejaVuSans-2e" d="M42.13,178.25h1.03v1.24h-1.03v-1.24Z"/>
              <path id="DejaVuSans-30-4" data-name="DejaVuSans-30" d="M47.42,172.85c-.51,0-.89.25-1.15.75-.26.5-.38,1.25-.38,2.25s.13,1.75.38,2.25c.26.5.64.75,1.15.75s.89-.25,1.15-.75c.26-.5.38-1.25.38-2.25s-.13-1.75-.38-2.25c-.26-.5-.64-.75-1.15-.75ZM47.42,172.07c.82,0,1.44.32,1.87.97.43.65.65,1.58.65,2.81s-.22,2.16-.65,2.81c-.43.65-1.06.97-1.87.97s-1.44-.32-1.87-.97c-.43-.65-.65-1.58-.65-2.81s.22-2.17.65-2.81c.43-.65,1.06-.97,1.87-.97Z"/>
            </g>
          </g>
        </g>
        <g id="ytick_5" data-name="ytick 5">
          <g id="line2d_12" data-name="line2d 12">
            <path id="m6161e02d38-5" data-name="m6161e02d38" class="cls-29" d="M57.6,133.84h-3.5"/>
          </g>
          <g id="text_5" data-name="text 5">
            <g>
              <path id="DejaVuSans-30-5" data-name="DejaVuSans-30" d="M37.88,131c-.51,0-.89.25-1.15.75-.26.5-.38,1.25-.38,2.25s.13,1.75.38,2.25c.26.5.64.75,1.15.75s.89-.25,1.15-.75c.26-.5.38-1.25.38-2.25s-.13-1.75-.38-2.25c-.26-.5-.64-.75-1.15-.75ZM37.88,130.22c.82,0,1.44.32,1.87.97.43.65.65,1.58.65,2.81s-.22,2.16-.65,2.81c-.43.65-1.06.97-1.87.97s-1.44-.32-1.87-.97c-.43-.65-.65-1.58-.65-2.81s.22-2.17.65-2.81c.43-.65,1.06-.97,1.87-.97Z"/>
              <path id="DejaVuSans-2e-5" data-name="DejaVuSans-2e" d="M42.13,136.4h1.03v1.24h-1.03v-1.24Z"/>
              <path id="DejaVuSans-35-3" data-name="DejaVuSans-35" d="M45.32,130.35h3.87v.83h-2.97v1.79c.14-.05.29-.09.43-.11.14-.02.29-.04.43-.04.81,0,1.46.22,1.93.67.48.45.71,1.05.71,1.81s-.24,1.39-.73,1.83c-.49.43-1.18.65-2.07.65-.31,0-.62-.03-.94-.08-.32-.05-.64-.13-.98-.23v-.99c.29.16.6.28.91.36s.64.12.99.12c.56,0,1.01-.15,1.34-.44.33-.3.49-.7.49-1.21s-.16-.91-.49-1.2c-.33-.3-.77-.45-1.34-.45-.26,0-.53.03-.79.09-.26.06-.53.15-.8.27v-3.66Z"/>
            </g>
          </g>
        </g>
        <g id="ytick_6" data-name="ytick 6">
          <g id="line2d_13" data-name="line2d 13">
            <path id="m6161e02d38-6" data-name="m6161e02d38" class="cls-29" d="M57.6,91.99h-3.5"/>
          </g>
          <g id="text_6" data-name="text 6">
            <g>
              <path id="DejaVuSans-31-3" data-name="DejaVuSans-31" d="M35.94,94.96h1.61v-5.56l-1.75.35v-.9l1.74-.35h.99v6.46h1.61v.83h-4.2v-.83Z"/>
              <path id="DejaVuSans-2e-6" data-name="DejaVuSans-2e" d="M42.13,94.55h1.03v1.24h-1.03v-1.24Z"/>
              <path id="DejaVuSans-30-6" data-name="DejaVuSans-30" d="M47.42,89.15c-.51,0-.89.25-1.15.75-.26.5-.38,1.25-.38,2.25s.13,1.75.38,2.25c.26.5.64.75,1.15.75s.89-.25,1.15-.75c.26-.5.38-1.25.38-2.25s-.13-1.75-.38-2.25c-.26-.5-.64-.75-1.15-.75ZM47.42,88.37c.82,0,1.44.32,1.87.97.43.65.65,1.58.65,2.81s-.22,2.16-.65,2.81c-.43.65-1.06.97-1.87.97s-1.44-.32-1.87-.97c-.43-.65-.65-1.58-.65-2.81s.22-2.17.65-2.81c.43-.65,1.06-.97,1.87-.97Z"/>
            </g>
          </g>
        </g>
        <g id="ytick_7" data-name="ytick 7">
          <g id="line2d_14" data-name="line2d 14">
            <path id="m6161e02d38-7" data-name="m6161e02d38" class="cls-29" d="M57.6,50.15h-3.5"/>
          </g>
          <g id="text_7" data-name="text 7">
            <g>
              <path id="DejaVuSans-31-4" data-name="DejaVuSans-31" d="M35.94,53.12h1.61v-5.56l-1.75.35v-.9l1.74-.35h.99v6.46h1.61v.83h-4.2v-.83Z"/>
              <path id="DejaVuSans-2e-7" data-name="DejaVuSans-2e" d="M42.13,52.7h1.03v1.24h-1.03v-1.24Z"/>
              <path id="DejaVuSans-35-4" data-name="DejaVuSans-35" d="M45.32,46.65h3.87v.83h-2.97v1.79c.14-.05.29-.09.43-.11.14-.02.29-.04.43-.04.81,0,1.46.22,1.93.67.48.45.71,1.05.71,1.81s-.24,1.39-.73,1.83c-.49.43-1.18.65-2.07.65-.31,0-.62-.03-.94-.08-.32-.05-.64-.13-.98-.23v-.99c.29.16.6.28.91.36s.64.12.99.12c.56,0,1.01-.15,1.34-.44.33-.3.49-.7.49-1.21s-.16-.91-.49-1.2c-.33-.3-.77-.45-1.34-.45-.26,0-.53.03-.79.09-.26.06-.53.15-.8.27v-3.66Z"/>
            </g>
          </g>
        </g>
      </g>
      <g id="line2d_15" data-name="line2d 15">
        <g class="cls-37">
          <path class="cls-11" d="M73.83,175.69l5.66-.11,5.66-.33,6.74-.63,13.75-1.37,4.58-.18,3.78.07,3.51.28,3.51.51,3.24.69,3.51.99,3.51,1.22,4.04,1.65,5.12,2.36,8.63,4,3.51,1.36,2.97.91,2.43.53,2.43.3,2.16.04,2.16-.19,1.89-.38,1.89-.59,1.89-.81,1.89-1.03,1.89-1.27,1.89-1.51,2.16-2.03,2.16-2.34,2.16-2.66,2.43-3.35,2.43-3.72,2.7-4.53,2.97-5.4,3.51-6.86,4.58-9.49,10.25-21.41,3.51-6.72,2.97-5.2,2.43-3.84,2.43-3.42,2.16-2.64,1.89-1.97,1.89-1.64,1.62-1.13,1.62-.87,1.62-.61,1.62-.34,1.35-.07,1.35.12,1.35.31,1.62.62,1.62.88,1.62,1.14,1.62,1.39,1.89,1.93,1.89,2.25,2.16,2.93,2.43,3.72,2.7,4.59,2.97,5.51,3.51,6.98,5.39,11.31,7.28,15.23,3.78,7.39,3.24,5.87,2.97,4.9,2.7,4.01,2.43,3.22,2.43,2.83,2.16,2.18,2.16,1.86,2.16,1.54,1.89,1.09,1.89.86,1.89.64,1.89.43,2.16.25h2.16s2.16-.2,2.16-.2l2.43-.46,2.7-.76,2.97-1.07,3.78-1.61,6.74-3.18,5.66-2.57,4.04-1.6,3.51-1.16,3.51-.93,3.24-.63,3.51-.45,3.51-.23,3.78-.02,4.31.2,5.66.51,15.91,1.57,5.66.26,3.78.05h0"/>
        </g>
      </g>
      <g id="line2d_16" data-name="line2d 16">
        <g class="cls-40">
          <path class="cls-13" d="M57.6,175.69h357.12"/>
        </g>
      </g>
      <g id="patch_3" data-name="patch 3">
        <path class="cls-15" d="M57.6,307.04V40.93"/>
      </g>
      <g id="patch_4" data-name="patch 4">
        <path class="cls-15" d="M414.72,307.04V40.93"/>
      </g>
      <g id="patch_5" data-name="patch 5">
        <path class="cls-15" d="M57.6,307.04h357.12"/>
      </g>
      <g id="patch_6" data-name="patch 6">
        <path class="cls-15" d="M57.6,40.93h357.12"/>
      </g>
      <g id="patch_7" data-name="patch 7">
        <path class="cls-2" d="M79.34,175.69v74.32"/>
        <path class="cls-2" d="M81.34,246.02l-2,4-2-4"/>
      </g>
      <g id="patch_8" data-name="patch 8">
        <path class="cls-12" d="M101.45,175.69v116.53"/>
        <path class="cls-12" d="M103.45,288.22l-2,4-2-4"/>
      </g>
      <g id="patch_9" data-name="patch 9">
        <path class="cls-3" d="M121.94,175.69V54.7"/>
        <path class="cls-3" d="M119.94,58.7l2-4,2,4"/>
      </g>
      <g id="patch_10" data-name="patch 10">
        <path class="cls-5" d="M178.84,175.69c0,6.3,0,12.04,0,17.22"/>
        <path class="cls-5" d="M180.84,188.91l-2,4-2-4"/>
      </g>
      <g id="patch_11" data-name="patch 11">
        <path class="cls-6" d="M217.13,175.69v117.57"/>
        <path class="cls-6" d="M219.13,289.26l-2,4-2-4"/>
      </g>
      <g id="patch_12" data-name="patch 12">
        <path class="cls-14" d="M250.29,175.69c0-10.25,0-19.95,0-29.08"/>
        <path class="cls-14" d="M248.29,150.61l2-4,2,4"/>
      </g>
      <g id="patch_13" data-name="patch 13">
        <path class="cls-17" d="M274.56,175.69v43.89"/>
        <path class="cls-17" d="M276.56,215.58l-2,4-2-4"/>
      </g>
      <g id="patch_14" data-name="patch 14">
        <path class="cls-8" d="M304.22,175.69v-7.61"/>
        <path class="cls-8" d="M302.22,172.09l2-4,2,4"/>
      </g>
      <g id="patch_15" data-name="patch 15">
        <path class="cls-10" d="M358.69,175.69v94.66"/>
        <path class="cls-10" d="M360.69,266.35l-2,4-2-4"/>
      </g>
      <g id="patch_16" data-name="patch 16">
        <path class="cls-7" d="M373.79,175.69v-29.77"/>
        <path class="cls-7" d="M371.79,149.92l2-4,2,4"/>
      </g>
      <g id="patch_17" data-name="patch 17">
        <path class="cls-4" d="M236.27,175.69v82.86"/>
        <path class="cls-4" d="M238.27,254.55l-2,4-2-4"/>
      </g>
      <g id="PathCollection_2" data-name="PathCollection 2">
        <g class="cls-38">
          <path id="C0_0_17c867b3de" data-name="C0 0 17c867b3de" class="cls-23" d="M79.34,178.78c.8,0,1.56-.32,2.12-.88.56-.56.88-1.33.88-2.12s-.32-1.56-.88-2.12c-.56-.56-1.33-.88-2.12-.88s-1.56.32-2.12.88c-.56.56-.88,1.33-.88,2.12s.32,1.56.88,2.12c.56.56,1.33.88,2.12.88Z"/>
        </g>
        <g class="cls-39">
          <path id="C0_0_17c867b3de-2" data-name="C0 0 17c867b3de" class="cls-20" d="M101.45,181.64c.8,0,1.56-.32,2.12-.88.56-.56.88-1.33.88-2.12s-.32-1.56-.88-2.12c-.56-.56-1.33-.88-2.12-.88s-1.56.32-2.12.88c-.56.56-.88,1.33-.88,2.12s.32,1.56.88,2.12c.56.56,1.33.88,2.12.88Z"/>
        </g>
        <g class="cls-45">
          <path id="C0_0_17c867b3de-3" data-name="C0 0 17c867b3de" class="cls-21" d="M121.94,176.39c.8,0,1.56-.32,2.12-.88.56-.56.88-1.33.88-2.12s-.32-1.56-.88-2.12c-.56-.56-1.33-.88-2.12-.88s-1.56.32-2.12.88c-.56.56-.88,1.33-.88,2.12s.32,1.56.88,2.12c.56.56,1.33.88,2.12.88Z"/>
        </g>
        <g class="cls-42">
          <path id="C0_0_17c867b3de-4" data-name="C0 0 17c867b3de" class="cls-19" d="M178.84,177.83c.8,0,1.56-.32,2.12-.88.56-.56.88-1.33.88-2.12s-.32-1.56-.88-2.12c-.56-.56-1.33-.88-2.12-.88s-1.56.32-2.12.88c-.56.56-.88,1.33-.88,2.12s.32,1.56.88,2.12c.56.56,1.33.88,2.12.88Z"/>
        </g>
        <g class="cls-41">
          <path id="C0_0_17c867b3de-5" data-name="C0 0 17c867b3de" class="cls-24" d="M217.13,272.7c.8,0,1.56-.32,2.12-.88.56-.56.88-1.33.88-2.12s-.32-1.56-.88-2.12c-.56-.56-1.33-.88-2.12-.88s-1.56.32-2.12.88c-.56.56-.88,1.33-.88,2.12s.32,1.56.88,2.12c.56.56,1.33.88,2.12.88Z"/>
        </g>
        <g class="cls-44">
          <path id="C0_0_17c867b3de-6" data-name="C0 0 17c867b3de" class="cls-25" d="M250.29,151.55c.8,0,1.56-.32,2.12-.88.56-.56.88-1.33.88-2.12s-.32-1.56-.88-2.12c-.56-.56-1.33-.88-2.12-.88s-1.56.32-2.12.88c-.56.56-.88,1.33-.88,2.12s.32,1.56.88,2.12c.56.56,1.33.88,2.12.88Z"/>
        </g>
        <g class="cls-43">
          <path id="C0_0_17c867b3de-7" data-name="C0 0 17c867b3de" class="cls-27" d="M274.56,193.56c.8,0,1.56-.32,2.12-.88.56-.56.88-1.33.88-2.12s-.32-1.56-.88-2.12c-.56-.56-1.33-.88-2.12-.88s-1.56.32-2.12.88c-.56.56-.88,1.33-.88,2.12s.32,1.56.88,2.12c.56.56,1.33.88,2.12.88Z"/>
        </g>
        <g class="cls-35">
          <path id="C0_0_17c867b3de-8" data-name="C0 0 17c867b3de" class="cls-18" d="M304.22,179.94c.8,0,1.56-.32,2.12-.88.56-.56.88-1.33.88-2.12s-.32-1.56-.88-2.12c-.56-.56-1.33-.88-2.12-.88s-1.56.32-2.12.88c-.56.56-.88,1.33-.88,2.12s.32,1.56.88,2.12c.56.56,1.33.88,2.12.88Z"/>
        </g>
        <g class="cls-34">
          <path id="C0_0_17c867b3de-9" data-name="C0 0 17c867b3de" class="cls-28" d="M358.69,181.62c.8,0,1.56-.32,2.12-.88.56-.56.88-1.33.88-2.12s-.32-1.56-.88-2.12c-.56-.56-1.33-.88-2.12-.88s-1.56.32-2.12.88c-.56.56-.88,1.33-.88,2.12s.32,1.56.88,2.12c.56.56,1.33.88,2.12.88Z"/>
        </g>
        <g class="cls-36">
          <path id="C0_0_17c867b3de-10" data-name="C0 0 17c867b3de" class="cls-22" d="M373.79,178.01c.8,0,1.56-.32,2.12-.88.56-.56.88-1.33.88-2.12s-.32-1.56-.88-2.12c-.56-.56-1.33-.88-2.12-.88s-1.56.32-2.12.88c-.56.56-.88,1.33-.88,2.12s.32,1.56.88,2.12c.56.56,1.33.88,2.12.88Z"/>
        </g>
      </g>
      <g id="legend_1" data-name="legend 1">
        <g id="patch_18" data-name="patch 18">
          <path class="cls-31" d="M247.42,92.96h160.3c1.33,0,2-.67,2-2v-43.03c0-1.33-.67-2-2-2h-160.3c-1.33,0-2,.67-2,2v43.03c0,1.33.67,2,2,2Z"/>
        </g>
        <g id="text_8" data-name="text 8">
          <g>
            <path id="DejaVuSans-53" d="M282.77,50.47v.96c-.37-.18-.73-.31-1.06-.4-.33-.09-.65-.13-.96-.13-.54,0-.95.1-1.24.31-.29.21-.44.5-.44.89,0,.32.1.57.29.73.19.16.56.3,1.1.4l.6.12c.74.14,1.28.39,1.63.74s.53.83.53,1.42c0,.71-.24,1.24-.71,1.61-.47.36-1.17.55-2.08.55-.34,0-.71-.04-1.1-.12-.39-.08-.79-.19-1.21-.35v-1.02c.4.22.79.39,1.18.51.38.11.76.17,1.13.17.56,0,1-.11,1.3-.33.31-.22.46-.54.46-.95,0-.36-.11-.64-.33-.84s-.58-.35-1.08-.45l-.6-.12c-.74-.15-1.27-.38-1.6-.69-.33-.31-.49-.75-.49-1.3,0-.64.23-1.15.68-1.52.45-.37,1.08-.56,1.88-.56.34,0,.69.03,1.05.09.36.06.72.15,1.09.28Z"/>
            <path id="DejaVuSans-65" d="M289.39,54.56v.44h-4.13c.04.62.23,1.09.56,1.41.33.32.8.49,1.39.49.34,0,.68-.04,1-.13s.65-.21.97-.38v.85c-.32.14-.65.24-.99.31s-.68.11-1.03.11c-.87,0-1.56-.25-2.07-.76-.51-.51-.76-1.2-.76-2.06s.24-1.6.73-2.13c.48-.53,1.14-.79,1.96-.79.74,0,1.32.24,1.75.71.43.47.64,1.12.64,1.93ZM288.49,54.3c0-.49-.14-.88-.41-1.18-.27-.29-.62-.44-1.07-.44-.5,0-.9.14-1.2.43s-.47.68-.52,1.2h3.2Z"/>
            <path id="DejaVuSans-6d" d="M295.12,53.1c.23-.4.49-.7.81-.89s.68-.29,1.1-.29c.57,0,1.01.2,1.32.6.31.4.46.96.46,1.7v3.3h-.9v-3.27c0-.52-.09-.91-.28-1.17-.19-.25-.47-.38-.85-.38-.47,0-.83.15-1.1.46-.27.31-.4.73-.4,1.26v3.09h-.9v-3.27c0-.53-.09-.92-.28-1.17s-.47-.38-.86-.38c-.46,0-.82.16-1.1.47-.27.31-.4.73-.4,1.26v3.09h-.9v-5.47h.9v.85c.21-.34.45-.58.74-.74s.63-.24,1.02-.24.74.1,1.01.3c.28.2.48.49.62.88Z"/>
            <path id="DejaVuSans-61" d="M303.09,54.77c-.73,0-1.23.08-1.51.25s-.42.45-.42.85c0,.32.11.57.32.76.21.19.5.28.86.28.5,0,.9-.18,1.2-.53s.45-.82.45-1.41v-.2h-.89ZM304.88,54.4v3.12h-.9v-.83c-.21.33-.46.58-.77.73-.31.16-.68.24-1.12.24-.56,0-1-.16-1.34-.47-.33-.31-.5-.74-.5-1.26,0-.61.21-1.08.62-1.39.41-.31,1.03-.47,1.84-.47h1.26v-.09c0-.41-.14-.73-.41-.96s-.65-.34-1.15-.34c-.31,0-.62.04-.91.11-.3.08-.58.19-.85.34v-.83c.33-.13.65-.22.96-.28.31-.06.61-.1.9-.1.79,0,1.38.21,1.77.62.39.41.59,1.03.59,1.86Z"/>
            <path id="DejaVuSans-6e" d="M311.28,54.22v3.3h-.9v-3.27c0-.52-.1-.9-.3-1.16-.2-.26-.5-.39-.91-.39-.49,0-.87.15-1.15.46-.28.31-.42.73-.42,1.26v3.09h-.9v-5.47h.9v.85c.22-.33.47-.58.76-.74.29-.16.63-.24,1.01-.24.63,0,1.1.19,1.43.58.32.39.48.96.48,1.72Z"/>
            <path id="DejaVuSans-74" d="M313.96,50.5v1.55h1.85v.7h-1.85v2.97c0,.45.06.73.18.86s.37.19.75.19h.92v.75h-.92c-.69,0-1.17-.13-1.44-.39-.26-.26-.4-.73-.4-1.41v-2.97h-.66v-.7h.66v-1.55h.9Z"/>
            <path id="DejaVuSans-69" d="M316.99,52.05h.9v5.47h-.9v-5.47ZM316.99,49.92h.9v1.14h-.9v-1.14Z"/>
            <path id="DejaVuSans-63" d="M323.7,52.26v.84c-.25-.14-.51-.25-.76-.32s-.51-.1-.77-.1c-.58,0-1.04.18-1.36.55-.32.37-.48.89-.48,1.55s.16,1.19.48,1.56c.32.37.78.55,1.36.55.26,0,.52-.03.77-.1s.51-.18.76-.32v.83c-.25.12-.51.2-.78.26-.27.06-.55.09-.86.09-.82,0-1.48-.26-1.96-.78-.48-.52-.73-1.22-.73-2.1s.24-1.59.73-2.1c.49-.51,1.16-.77,2.02-.77.28,0,.55.03.81.09.26.06.52.14.77.25Z"/>
            <path id="DejaVuSans-53-2" data-name="DejaVuSans-53" d="M332.85,50.47v.96c-.37-.18-.73-.31-1.06-.4-.33-.09-.65-.13-.96-.13-.54,0-.95.1-1.24.31-.29.21-.44.5-.44.89,0,.32.1.57.29.73.19.16.56.3,1.1.4l.6.12c.74.14,1.28.39,1.63.74s.53.83.53,1.42c0,.71-.24,1.24-.71,1.61-.47.36-1.17.55-2.08.55-.34,0-.71-.04-1.1-.12-.39-.08-.79-.19-1.21-.35v-1.02c.4.22.79.39,1.18.51.38.11.76.17,1.13.17.56,0,1-.11,1.3-.33.31-.22.46-.54.46-.95,0-.36-.11-.64-.33-.84s-.58-.35-1.08-.45l-.6-.12c-.74-.15-1.27-.38-1.6-.69-.33-.31-.49-.75-.49-1.3,0-.64.23-1.15.68-1.52.45-.37,1.08-.56,1.88-.56.34,0,.69.03,1.05.09.36.06.72.15,1.09.28Z"/>
            <path id="DejaVuSans-74-2" data-name="DejaVuSans-74" d="M335.68,50.5v1.55h1.85v.7h-1.85v2.97c0,.45.06.73.18.86s.37.19.75.19h.92v.75h-.92c-.69,0-1.17-.13-1.44-.39-.26-.26-.4-.73-.4-1.41v-2.97h-.66v-.7h.66v-1.55h.9Z"/>
            <path id="DejaVuSans-69-2" data-name="DejaVuSans-69" d="M338.71,52.05h.9v5.47h-.9v-5.47ZM338.71,49.92h.9v1.14h-.9v-1.14Z"/>
            <path id="DejaVuSans-6d-2" data-name="DejaVuSans-6d" d="M345.75,53.1c.23-.4.49-.7.81-.89s.68-.29,1.1-.29c.57,0,1.01.2,1.32.6.31.4.46.96.46,1.7v3.3h-.9v-3.27c0-.52-.09-.91-.28-1.17-.19-.25-.47-.38-.85-.38-.47,0-.83.15-1.1.46-.27.31-.4.73-.4,1.26v3.09h-.9v-3.27c0-.53-.09-.92-.28-1.17s-.47-.38-.86-.38c-.46,0-.82.16-1.1.47-.27.31-.4.73-.4,1.26v3.09h-.9v-5.47h.9v.85c.21-.34.45-.58.74-.74s.63-.24,1.02-.24.74.1,1.01.3c.28.2.48.49.62.88Z"/>
            <path id="DejaVuSans-75" d="M351.14,55.36v-3.31h.9v3.28c0,.52.1.91.3,1.17.2.26.51.39.91.39.48,0,.87-.15,1.15-.46.28-.31.42-.73.42-1.27v-3.1h.9v5.47h-.9v-.84c-.22.33-.47.58-.76.74-.29.16-.62.24-1,.24-.63,0-1.11-.2-1.43-.59-.33-.39-.49-.96-.49-1.71ZM353.4,51.92h0Z"/>
            <path id="DejaVuSans-6c" d="M357.57,49.92h.9v7.6h-.9v-7.6Z"/>
            <path id="DejaVuSans-69-3" data-name="DejaVuSans-69" d="M360.35,52.05h.9v5.47h-.9v-5.47ZM360.35,49.92h.9v1.14h-.9v-1.14Z"/>
            <path id="DejaVuSans-28" d="M368.46,49.93c-.44.75-.76,1.49-.97,2.22-.21.73-.32,1.47-.32,2.23s.11,1.5.32,2.23.54,1.48.97,2.23h-.78c-.49-.77-.85-1.52-1.1-2.26-.24-.74-.36-1.47-.36-2.2s.12-1.46.36-2.19c.24-.74.61-1.49,1.1-2.26h.78Z"/>
            <path id="DejaVuSans-64" d="M373.81,52.88v-2.96h.9v7.6h-.9v-.82c-.19.33-.43.57-.72.73-.29.16-.63.24-1.04.24-.66,0-1.2-.26-1.61-.79-.41-.53-.62-1.22-.62-2.08s.21-1.55.62-2.08c.42-.53.95-.79,1.61-.79.4,0,.75.08,1.04.24.29.16.53.4.72.72ZM370.75,54.79c0,.66.14,1.18.41,1.55.27.38.65.56,1.12.56s.85-.19,1.12-.56c.27-.38.41-.89.41-1.55s-.14-1.18-.41-1.55c-.27-.38-.65-.56-1.12-.56s-.85.19-1.12.56-.41.89-.41,1.55Z"/>
            <path id="DejaVuSans-69-4" data-name="DejaVuSans-69" d="M376.56,52.05h.9v5.47h-.9v-5.47ZM376.56,49.92h.9v1.14h-.9v-1.14Z"/>
            <path id="DejaVuSans-72" d="M382.5,52.89c-.1-.06-.21-.1-.33-.13-.12-.03-.25-.04-.39-.04-.51,0-.9.17-1.17.5s-.41.8-.41,1.42v2.88h-.9v-5.47h.9v.85c.19-.33.44-.58.74-.74.3-.16.67-.24,1.1-.24.06,0,.13,0,.2.01.08,0,.16.02.25.04v.92Z"/>
            <path id="DejaVuSans-61-2" data-name="DejaVuSans-61" d="M385.93,54.77c-.73,0-1.23.08-1.51.25s-.42.45-.42.85c0,.32.11.57.32.76.21.19.5.28.86.28.5,0,.9-.18,1.2-.53s.45-.82.45-1.41v-.2h-.89ZM387.72,54.4v3.12h-.9v-.83c-.21.33-.46.58-.77.73-.31.16-.68.24-1.12.24-.56,0-1-.16-1.34-.47-.33-.31-.5-.74-.5-1.26,0-.61.21-1.08.62-1.39.41-.31,1.03-.47,1.84-.47h1.26v-.09c0-.41-.14-.73-.41-.96s-.65-.34-1.15-.34c-.31,0-.62.04-.91.11-.3.08-.58.19-.85.34v-.83c.33-.13.65-.22.96-.28.31-.06.61-.1.9-.1.79,0,1.38.21,1.77.62.39.41.59,1.03.59,1.86Z"/>
            <path id="DejaVuSans-63-2" data-name="DejaVuSans-63" d="M393.51,52.26v.84c-.25-.14-.51-.25-.76-.32s-.51-.1-.77-.1c-.58,0-1.04.18-1.36.55-.32.37-.48.89-.48,1.55s.16,1.19.48,1.56c.32.37.78.55,1.36.55.26,0,.52-.03.77-.1s.51-.18.76-.32v.83c-.25.12-.51.2-.78.26-.27.06-.55.09-.86.09-.82,0-1.48-.26-1.96-.78-.48-.52-.73-1.22-.73-2.1s.24-1.59.73-2.1c.49-.51,1.16-.77,2.02-.77.28,0,.55.03.81.09.26.06.52.14.77.25Z"/>
            <path id="Cmmi10-b1" d="M399.31,57.67c-.23,0-.45-.04-.65-.13-.2-.09-.37-.21-.52-.37-.15-.16-.26-.34-.33-.54-.07-.2-.11-.42-.11-.65,0-.42.1-.82.3-1.21.2-.39.47-.73.81-1.02s.71-.48,1.11-.58c-.2-.36-.34-.67-.45-.93-.1-.26-.15-.53-.15-.8,0-.2.05-.38.14-.53.09-.16.23-.28.39-.36.17-.09.35-.13.56-.13s.59.07,1.18.2c.15.04.23.12.23.27,0,.11-.04.21-.12.3-.08.09-.18.14-.29.14-.08,0-.15-.02-.22-.06-.06-.04-.17-.1-.31-.2-.14-.09-.26-.17-.38-.22-.11-.05-.23-.08-.35-.08-.14,0-.26.04-.37.13-.11.08-.16.19-.16.32,0,.21.09.45.28.73s.45.63.8,1.06c.39.5.59,1.05.59,1.66,0,.3-.04.62-.13.97-.09.35-.21.68-.38.99-.16.31-.38.56-.63.76-.26.2-.54.3-.85.3ZM399.33,57.4c.26,0,.48-.13.67-.4.19-.27.33-.59.43-.97.1-.37.15-.69.15-.94,0-.5-.17-1.06-.52-1.68-.35.1-.65.3-.91.61-.25.31-.45.67-.58,1.08s-.2.79-.2,1.16c0,.32.08.59.25.81.17.22.4.33.71.33Z"/>
            <path id="DejaVuSans-29" d="M402.55,49.93h.78c.49.77.85,1.52,1.1,2.26.24.74.36,1.47.36,2.19s-.12,1.46-.36,2.2c-.24.74-.61,1.49-1.1,2.26h-.78c.43-.75.76-1.49.97-2.23.21-.74.32-1.48.32-2.23s-.11-1.49-.32-2.23c-.21-.73-.54-1.47-.97-2.22Z"/>
          </g>
        </g>
        <g id="line2d_18" data-name="line2d 18">
          <path class="cls-9" d="M249.42,68.7h20"/>
        </g>
        <g id="text_9" data-name="text 9">
          <g>
            <path id="DejaVuSans-4c" d="M278.4,64.91h.99v6.46h3.55v.83h-4.54v-7.29Z"/>
            <path id="DejaVuSans-61-3" data-name="DejaVuSans-61" d="M286.42,69.45c-.73,0-1.23.08-1.51.25s-.42.45-.42.85c0,.32.11.57.32.76.21.19.5.28.86.28.5,0,.9-.18,1.2-.53s.45-.82.45-1.41v-.2h-.89ZM288.21,69.08v3.12h-.9v-.83c-.21.33-.46.58-.77.73-.31.16-.68.24-1.12.24-.56,0-1-.16-1.34-.47-.33-.31-.5-.74-.5-1.26,0-.61.21-1.08.62-1.39.41-.31,1.03-.47,1.84-.47h1.26v-.09c0-.41-.14-.73-.41-.96s-.65-.34-1.15-.34c-.31,0-.62.04-.91.11-.3.08-.58.19-.85.34v-.83c.33-.13.65-.22.96-.28.31-.06.61-.1.9-.1.79,0,1.38.21,1.77.62.39.41.59,1.03.59,1.86Z"/>
            <path id="DejaVuSans-6e-2" data-name="DejaVuSans-6e" d="M294.61,68.9v3.3h-.9v-3.27c0-.52-.1-.9-.3-1.16-.2-.26-.5-.39-.91-.39-.49,0-.87.15-1.15.46-.28.31-.42.73-.42,1.26v3.09h-.9v-5.47h.9v.85c.22-.33.47-.58.76-.74.29-.16.63-.24,1.01-.24.63,0,1.1.19,1.43.58.32.39.48.96.48,1.72Z"/>
            <path id="DejaVuSans-63-3" data-name="DejaVuSans-63" d="M300.34,66.94v.84c-.25-.14-.51-.25-.76-.32s-.51-.1-.77-.1c-.58,0-1.04.18-1.36.55-.32.37-.48.89-.48,1.55s.16,1.19.48,1.56c.32.37.78.55,1.36.55.26,0,.52-.03.77-.1s.51-.18.76-.32v.83c-.25.12-.51.2-.78.26-.27.06-.55.09-.86.09-.82,0-1.48-.26-1.96-.78-.48-.52-.73-1.22-.73-2.1s.24-1.59.73-2.1c.49-.51,1.16-.77,2.02-.77.28,0,.55.03.81.09.26.06.52.14.77.25Z"/>
            <path id="DejaVuSans-7a" d="M301.51,66.73h4.27v.82l-3.38,3.93h3.38v.72h-4.39v-.82l3.38-3.93h-3.26v-.72Z"/>
            <path id="DejaVuSans-6f" d="M309.27,67.36c-.48,0-.86.19-1.14.56s-.42.89-.42,1.55.14,1.17.42,1.55c.28.38.66.56,1.15.56s.86-.19,1.14-.57c.28-.38.42-.89.42-1.54s-.14-1.16-.42-1.54c-.28-.38-.66-.57-1.14-.57ZM309.27,66.6c.78,0,1.39.25,1.84.76.45.51.67,1.21.67,2.11s-.22,1.6-.67,2.11c-.45.51-1.06.76-1.84.76s-1.4-.25-1.84-.76c-.44-.51-.67-1.21-.67-2.11s.22-1.6.67-2.11c.44-.51,1.06-.76,1.84-.76Z"/>
            <path id="DejaVuSans-73" d="M316.75,66.89v.85c-.25-.13-.52-.23-.79-.29-.27-.07-.56-.1-.85-.1-.45,0-.78.07-1,.2-.22.14-.33.34-.33.62,0,.21.08.37.24.49s.48.23.96.34l.31.07c.64.14,1.09.33,1.36.58s.4.6.4,1.04c0,.51-.2.91-.6,1.21-.4.3-.95.44-1.66.44-.29,0-.6-.03-.92-.09-.32-.06-.65-.14-1-.26v-.93c.33.17.66.3.98.39.32.09.64.13.96.13.42,0,.75-.07.98-.22.23-.14.34-.35.34-.61,0-.24-.08-.43-.25-.56-.16-.13-.52-.26-1.08-.38l-.31-.07c-.56-.12-.96-.3-1.21-.54-.25-.24-.37-.58-.37-1,0-.51.18-.91.55-1.19.36-.28.88-.42,1.55-.42.33,0,.64.02.94.07.29.05.56.12.81.22Z"/>
            <path id="DejaVuSans-6b" d="M321.62,64.6h.9v4.49l2.68-2.36h1.15l-2.9,2.56,3.02,2.91h-1.17l-2.78-2.67v2.67h-.9v-7.6Z"/>
            <path id="DejaVuSans-65-2" data-name="DejaVuSans-65" d="M331.76,69.24v.44h-4.13c.04.62.23,1.09.56,1.41.33.32.8.49,1.39.49.34,0,.68-.04,1-.13s.65-.21.97-.38v.85c-.32.14-.65.24-.99.31s-.68.11-1.03.11c-.87,0-1.56-.25-2.07-.76-.51-.51-.76-1.2-.76-2.06s.24-1.6.73-2.13c.48-.53,1.14-.79,1.96-.79.74,0,1.32.24,1.75.71.43.47.64,1.12.64,1.93ZM330.86,68.98c0-.49-.14-.88-.41-1.18-.27-.29-.62-.44-1.07-.44-.5,0-.9.14-1.2.43s-.47.68-.52,1.2h3.2Z"/>
            <path id="DejaVuSans-72-2" data-name="DejaVuSans-72" d="M336.4,67.57c-.1-.06-.21-.1-.33-.13-.12-.03-.25-.04-.39-.04-.51,0-.9.17-1.17.5s-.41.8-.41,1.42v2.88h-.9v-5.47h.9v.85c.19-.33.44-.58.74-.74.3-.16.67-.24,1.1-.24.06,0,.13,0,.2.01.08,0,.16.02.25.04v.92Z"/>
            <path id="DejaVuSans-6e-3" data-name="DejaVuSans-6e" d="M341.72,68.9v3.3h-.9v-3.27c0-.52-.1-.9-.3-1.16-.2-.26-.5-.39-.91-.39-.49,0-.87.15-1.15.46-.28.31-.42.73-.42,1.26v3.09h-.9v-5.47h.9v.85c.22-.33.47-.58.76-.74.29-.16.63-.24,1.01-.24.63,0,1.1.19,1.43.58.32.39.48.96.48,1.72Z"/>
            <path id="DejaVuSans-65-3" data-name="DejaVuSans-65" d="M348.19,69.24v.44h-4.13c.04.62.23,1.09.56,1.41.33.32.8.49,1.39.49.34,0,.68-.04,1-.13s.65-.21.97-.38v.85c-.32.14-.65.24-.99.31s-.68.11-1.03.11c-.87,0-1.56-.25-2.07-.76-.51-.51-.76-1.2-.76-2.06s.24-1.6.73-2.13c.48-.53,1.14-.79,1.96-.79.74,0,1.32.24,1.75.71.43.47.64,1.12.64,1.93ZM347.29,68.98c0-.49-.14-.88-.41-1.18-.27-.29-.62-.44-1.07-.44-.5,0-.9.14-1.2.43s-.47.68-.52,1.2h3.2Z"/>
            <path id="DejaVuSans-6c-2" data-name="DejaVuSans-6c" d="M349.66,64.6h.9v7.6h-.9v-7.6Z"/>
          </g>
        </g>
        <g id="text_10" data-name="text 10">
          <g>
            <path id="DejaVuSans-43" d="M283.86,80.15v1.04c-.33-.31-.69-.54-1.06-.69-.38-.15-.78-.23-1.2-.23-.83,0-1.47.25-1.91.76s-.66,1.25-.66,2.21.22,1.7.66,2.2,1.08.76,1.91.76c.42,0,.82-.08,1.2-.23s.73-.38,1.06-.69v1.03c-.34.23-.71.41-1.1.53-.39.12-.79.18-1.22.18-1.1,0-1.97-.34-2.61-1.01-.63-.68-.95-1.6-.95-2.77s.32-2.1.95-2.77c.64-.68,1.51-1.01,2.61-1.01.44,0,.85.06,1.23.17.39.12.75.29,1.09.52Z"/>
            <path id="DejaVuSans-6f-2" data-name="DejaVuSans-6f" d="M287.46,82.04c-.48,0-.86.19-1.14.56s-.42.89-.42,1.55.14,1.17.42,1.55c.28.38.66.56,1.15.56s.86-.19,1.14-.57c.28-.38.42-.89.42-1.54s-.14-1.16-.42-1.54c-.28-.38-.66-.57-1.14-.57ZM287.46,81.28c.78,0,1.39.25,1.84.76.45.51.67,1.21.67,2.11s-.22,1.6-.67,2.11c-.45.51-1.06.76-1.84.76s-1.4-.25-1.84-.76c-.44-.51-.67-1.21-.67-2.11s.22-1.6.67-2.11c.44-.51,1.06-.76,1.84-.76Z"/>
            <path id="DejaVuSans-6e-4" data-name="DejaVuSans-6e" d="M296.01,83.58v3.3h-.9v-3.27c0-.52-.1-.9-.3-1.16-.2-.26-.5-.39-.91-.39-.49,0-.87.15-1.15.46-.28.31-.42.73-.42,1.26v3.09h-.9v-5.47h.9v.85c.22-.33.47-.58.76-.74.29-.16.63-.24,1.01-.24.63,0,1.1.19,1.43.58.32.39.48.96.48,1.72Z"/>
            <path id="DejaVuSans-74-3" data-name="DejaVuSans-74" d="M298.69,79.86v1.55h1.85v.7h-1.85v2.97c0,.45.06.73.18.86s.37.19.75.19h.92v.75h-.92c-.69,0-1.17-.13-1.44-.39-.26-.26-.4-.73-.4-1.41v-2.97h-.66v-.7h.66v-1.55h.9Z"/>
            <path id="DejaVuSans-72-3" data-name="DejaVuSans-72" d="M304.89,82.25c-.1-.06-.21-.1-.33-.13-.12-.03-.25-.04-.39-.04-.51,0-.9.17-1.17.5s-.41.8-.41,1.42v2.88h-.9v-5.47h.9v.85c.19-.33.44-.58.74-.74.3-.16.67-.24,1.1-.24.06,0,.13,0,.2.01.08,0,.16.02.25.04v.92Z"/>
            <path id="DejaVuSans-69-5" data-name="DejaVuSans-69" d="M305.83,81.41h.9v5.47h-.9v-5.47ZM305.83,79.28h.9v1.14h-.9v-1.14Z"/>
            <path id="DejaVuSans-62" d="M312.54,84.15c0-.66-.14-1.18-.41-1.55s-.65-.56-1.12-.56-.85.19-1.12.56-.41.89-.41,1.55.14,1.18.41,1.55c.27.38.65.56,1.12.56s.85-.19,1.12-.56c.27-.38.41-.89.41-1.55ZM309.48,82.24c.19-.33.43-.57.72-.72.29-.16.63-.24,1.03-.24.66,0,1.2.26,1.62.79.42.53.62,1.22.62,2.08s-.21,1.55-.62,2.08c-.41.53-.95.79-1.62.79-.4,0-.74-.08-1.03-.24-.29-.16-.53-.4-.72-.73v.82h-.9v-7.6h.9v2.96Z"/>
            <path id="DejaVuSans-75-2" data-name="DejaVuSans-75" d="M314.87,84.72v-3.31h.9v3.28c0,.52.1.91.3,1.17.2.26.51.39.91.39.48,0,.87-.15,1.15-.46.28-.31.42-.73.42-1.27v-3.1h.9v5.47h-.9v-.84c-.22.33-.47.58-.76.74-.29.16-.62.24-1,.24-.63,0-1.11-.2-1.43-.59-.33-.39-.49-.96-.49-1.71ZM317.13,81.28h0Z"/>
            <path id="DejaVuSans-74-4" data-name="DejaVuSans-74" d="M322.19,79.86v1.55h1.85v.7h-1.85v2.97c0,.45.06.73.18.86s.37.19.75.19h.92v.75h-.92c-.69,0-1.17-.13-1.44-.39-.26-.26-.4-.73-.4-1.41v-2.97h-.66v-.7h.66v-1.55h.9Z"/>
            <path id="DejaVuSans-69-6" data-name="DejaVuSans-69" d="M325.22,81.41h.9v5.47h-.9v-5.47ZM325.22,79.28h.9v1.14h-.9v-1.14Z"/>
            <path id="DejaVuSans-6f-3" data-name="DejaVuSans-6f" d="M330.11,82.04c-.48,0-.86.19-1.14.56s-.42.89-.42,1.55.14,1.17.42,1.55c.28.38.66.56,1.15.56s.86-.19,1.14-.57c.28-.38.42-.89.42-1.54s-.14-1.16-.42-1.54c-.28-.38-.66-.57-1.14-.57ZM330.11,81.28c.78,0,1.39.25,1.84.76.45.51.67,1.21.67,2.11s-.22,1.6-.67,2.11c-.45.51-1.06.76-1.84.76s-1.4-.25-1.84-.76c-.44-.51-.67-1.21-.67-2.11s.22-1.6.67-2.11c.44-.51,1.06-.76,1.84-.76Z"/>
            <path id="DejaVuSans-6e-5" data-name="DejaVuSans-6e" d="M338.66,83.58v3.3h-.9v-3.27c0-.52-.1-.9-.3-1.16-.2-.26-.5-.39-.91-.39-.49,0-.87.15-1.15.46-.28.31-.42.73-.42,1.26v3.09h-.9v-5.47h.9v.85c.22-.33.47-.58.76-.74.29-.16.63-.24,1.01-.24.63,0,1.1.19,1.43.58.32.39.48.96.48,1.72Z"/>
            <path id="DejaVuSans-73-2" data-name="DejaVuSans-73" d="M343.94,81.57v.85c-.25-.13-.52-.23-.79-.29-.27-.07-.56-.1-.85-.1-.45,0-.78.07-1,.2-.22.14-.33.34-.33.62,0,.21.08.37.24.49s.48.23.96.34l.31.07c.64.14,1.09.33,1.36.58s.4.6.4,1.04c0,.51-.2.91-.6,1.21-.4.3-.95.44-1.66.44-.29,0-.6-.03-.92-.09-.32-.06-.65-.14-1-.26v-.93c.33.17.66.3.98.39.32.09.64.13.96.13.42,0,.75-.07.98-.22.23-.14.34-.35.34-.61,0-.24-.08-.43-.25-.56-.16-.13-.52-.26-1.08-.38l-.31-.07c-.56-.12-.96-.3-1.21-.54-.25-.24-.37-.58-.37-1,0-.51.18-.91.55-1.19.36-.28.88-.42,1.55-.42.33,0,.64.02.94.07.29.05.56.12.81.22Z"/>
          </g>
        </g>
      </g>
    </g>
  </g>
  <g>
    <path class="cls-2" d="M251.23,49.43v7.61"/>
    <path class="cls-2" d="M253.23,53.03l-2,4-2-4"/>
    <path class="cls-3" d="M253.29,53.43l2-4,2,4"/>
    <path class="cls-3" d="M255.29,57.03v-7.61"/>
    <path class="cls-16" d="M259.42,49.43v7.61"/>
    <path class="cls-16" d="M261.42,53.03l-2,4-2-4"/>
    <path class="cls-17" d="M263.42,49.43v7.61"/>
    <path class="cls-17" d="M265.42,53.03l-2,4-2-4"/>
    <path class="cls-7" d="M267.42,57.03v-7.61"/>
    <path class="cls-7" d="M265.42,53.43l2-4,2,4"/>
  </g>
  <g id="delta_dots" data-name="delta dots">
    <circle class="cls-46" cx="251.23" cy="83.93" r="4.06"/>
    <circle class="cls-33" cx="255.29" cy="83.93" r="4.06"/>
    <circle class="cls-48" cx="259.36" cy="83.93" r="4.06"/>
    <circle class="cls-47" cx="263.42" cy="83.93" r="4.06"/>
    <circle class="cls-30" cx="267.48" cy="83.93" r="4.06"/>
  </g>
</svg>